<svg xmlns="http://www.w3.org/2000/svg" width="892.63" height="217" viewBox="0 0 892.63 217"><defs><style>.ad75c475-653e-4784-bd66-b2875f2a44b0{fill:#231f20;}</style></defs><g id="e091b824-1746-41b4-b796-063d18d5fb02" data-name="Layer 2"><g id="afd51df5-7fba-471c-a467-33ffaa7829c6" data-name="Layer 1"><path class="ad75c475-653e-4784-bd66-b2875f2a44b0" d="M0,199.27V17.73C0,8.42,5.41,3.31,14.73,3.31H33.36c9.32,0,14.43,5.11,14.43,14.42V199.27c0,9.31-5.11,14.42-14.43,14.42H14.73C5.41,213.69,0,208.58,0,199.27Z"/><path class="ad75c475-653e-4784-bd66-b2875f2a44b0" d="M108.45,171.62c-3.9-9,.91-15.33,10.22-17.74l12.93-3c8.41-2.11,12.92,1.5,17.73,9.32,6.92,11.11,20.14,18.63,37.87,18.63,20.44,0,34-9,34-22.84,0-10.52-8.11-18.94-24-24.35l-27.35-9.92c-25-8.11-55.61-26.74-55.91-59.2C113.86,24.05,147.23,0,188.4,0c32.76,0,55.9,14.43,67.33,38.47,4.51,8.72.3,15.63-8.72,18.34l-12,3.3c-8.42,2.41-13.53-.9-18.64-8.11-5.41-9-14.72-13.83-27.34-13.83-15,0-28,7.51-28,21.34,0,7.51,3.31,15.63,21.94,22.54L210.34,92c41.18,13.82,56.51,35.47,57.11,61.91,0,41.18-35.17,63.12-79.95,63.12C148.13,217,119.58,199.57,108.45,171.62Z"/><path class="ad75c475-653e-4784-bd66-b2875f2a44b0" d="M294.63,197.16,365,14.72c2.71-7.51,8.42-11.42,16.83-11.42h21.34C411.54,3.3,417,7.21,420,14.72l71.23,182.44c3.61,9.92-.59,16.53-11.42,16.53H460.23c-8.12,0-13.83-3.6-16.84-11.42l-10.51-27.65H351.73L341.51,202c-3,7.81-8.41,11.72-16.53,11.72H306.05C295.22,213.69,291,207.08,294.63,197.16Zm128.63-60.11L392.6,52.3l-31.55,84.75Z"/><path class="ad75c475-653e-4784-bd66-b2875f2a44b0" d="M520.44,171.62c-3.9-9,.91-15.33,10.22-17.74l12.93-3c8.41-2.11,12.92,1.5,17.73,9.32,6.92,11.11,20.14,18.63,37.87,18.63,20.44,0,34-9,34-22.84,0-10.52-8.11-18.94-24-24.35l-27.35-9.92c-25-8.11-55.61-26.74-55.91-59.2C525.85,24.05,559.22,0,600.39,0c32.76,0,55.9,14.43,67.33,38.47,4.5,8.72.3,15.63-8.72,18.34l-12,3.3c-8.42,2.41-13.53-.9-18.64-8.11-5.41-9-14.72-13.83-27.34-13.83-15,0-28,7.51-28,21.34C573,67,576.35,75.14,595,82.05L622.33,92c41.18,13.82,56.51,35.47,57.11,61.91,0,41.18-35.17,63.12-80,63.12C560.12,217,531.57,199.57,520.44,171.62Z"/><path class="ad75c475-653e-4784-bd66-b2875f2a44b0" d="M706.11,108.5C706.11,49.89,750.29,0,821.52,0c27.05,0,46.89,7.81,64.32,19.84,7.52,5.11,8.42,12.62,3,20.13l-7.51,9.32c-5.41,7.52-12,7.52-20.14,2.71a81.55,81.55,0,0,0-39.67-10.52c-42.07,0-67.62,30.05-67.62,67s25.55,67,67.62,67A81.66,81.66,0,0,0,861.19,165c8.12-4.8,14.73-4.8,20.14,2.71l7.51,9.31c5.42,7.82,5.11,14.43-1.5,19.24C869.61,208.88,849.47,217,821.52,217,750.29,217,706.11,167.1,706.11,108.5Z"/></g></g></svg>