<svg xmlns="http://www.w3.org/2000/svg" width="978.19" height="280.36" viewBox="0 0 978.19 280.36"><defs><style>.b589ed7e-3ced-4d00-9cdc-21708b047414{isolation:isolate;}.efb14fb4-5b73-4b22-8690-9a31061bb972{fill:#fff;}.aaa6c038-d3ef-4316-b4dd-22cf46cfe0c9{fill:#08afb7;}.e555cfc1-9596-44a1-8b31-18403697babb{mix-blend-mode:hard-light;}.b6011fe3-5f4f-4270-a11c-0254b3f6091e{fill:#ff885f;}.ef3d13c4-2a8b-4223-8449-4e4847ba99ad{fill:#f6cfab;}</style></defs><g class="b589ed7e-3ced-4d00-9cdc-21708b047414"><g id="ea80a75a-727b-49c2-b2ad-65c9405d6f23" data-name="Layer 2"><g id="b42fea2c-a0ec-48a9-b4cf-02a1dc74dd29" data-name="Layer 1"><path class="efb14fb4-5b73-4b22-8690-9a31061bb972" d="M352.92,166.72V39.56c0-6.53,3.79-10.11,10.32-10.11h13.05c6.53,0,10.11,3.58,10.11,10.11V166.72c0,6.53-3.58,10.11-10.11,10.11H363.24C356.71,176.83,352.92,173.25,352.92,166.72Z"/><path class="efb14fb4-5b73-4b22-8690-9a31061bb972" d="M428.89,147.35c-2.73-6.32.63-10.74,7.16-12.42l9.05-2.1c5.9-1.48,9.06,1,12.43,6.52,4.84,7.79,14.1,13.05,26.52,13.05,14.32,0,23.79-6.31,23.79-16,0-7.37-5.68-13.26-16.84-17.05l-19.16-6.95c-17.47-5.68-38.95-18.73-39.16-41.47,0-27,23.37-43.79,52.22-43.79,22.94,0,39.15,10.1,47.15,27,3.16,6.1.22,10.94-6.1,12.84l-8.42,2.31c-5.9,1.69-9.48-.63-13.06-5.68-3.79-6.32-10.31-9.69-19.15-9.69-10.53,0-19.59,5.27-19.59,14.95,0,5.27,2.32,11,15.37,15.79l19.16,7c28.84,9.68,39.58,24.84,40,43.37,0,28.84-24.64,44.21-56,44.21C456.68,179.14,436.68,166.93,428.89,147.35Z"/><path class="efb14fb4-5b73-4b22-8690-9a31061bb972" d="M559.3,165.25l49.26-127.8c1.9-5.26,5.9-8,11.8-8H635.3c5.9,0,9.69,2.74,11.79,8L697,165.25c2.53,6.94-.42,11.58-8,11.58H675.3c-5.68,0-9.68-2.53-11.79-8l-7.36-19.36H599.3l-7.16,19.15c-2.1,5.48-5.89,8.22-11.58,8.22H567.3C559.72,176.83,556.77,172.19,559.3,165.25Zm90.11-42.11L627.93,63.77l-22.1,59.37Z"/><path class="efb14fb4-5b73-4b22-8690-9a31061bb972" d="M717.48,147.35c-2.73-6.32.64-10.74,7.16-12.42l9.06-2.1c5.89-1.48,9,1,12.42,6.52,4.84,7.79,14.1,13.05,26.53,13.05,14.31,0,23.79-6.31,23.79-16,0-7.37-5.69-13.26-16.85-17.05l-19.15-6.95c-17.48-5.68-39-18.73-39.17-41.47,0-27,23.37-43.79,52.22-43.79,23,0,39.16,10.1,47.16,27,3.15,6.1.21,10.94-6.11,12.84l-8.42,2.31c-5.9,1.69-9.47-.63-13-5.68-3.79-6.32-10.32-9.69-19.16-9.69-10.53,0-19.58,5.27-19.58,14.95,0,5.27,2.31,11,15.37,15.79l19.15,7c28.85,9.68,39.59,24.84,40,43.37,0,28.84-24.64,44.21-56,44.21C745.28,179.14,725.27,166.93,717.48,147.35Z"/><path class="efb14fb4-5b73-4b22-8690-9a31061bb972" d="M847.54,103.14c0-41,31-76,80.85-76,18.94,0,32.84,5.47,45.05,13.89,5.26,3.58,5.89,8.84,2.1,14.11l-5.26,6.52c-3.79,5.27-8.42,5.27-14.11,1.9a57.15,57.15,0,0,0-27.78-7.37c-29.48,0-47.37,21-47.37,47s17.89,47,47.37,47a57.15,57.15,0,0,0,27.78-7.37c5.69-3.37,10.32-3.37,14.11,1.89l5.26,6.53c3.79,5.47,3.58,10.11-1,13.47-12.42,8.85-26.53,14.53-46.1,14.53C878.49,179.14,847.54,144.19,847.54,103.14Z"/><path class="efb14fb4-5b73-4b22-8690-9a31061bb972" d="M354.85,235.62V218.06a.9.9,0,0,1,1-1h.92a.9.9,0,0,1,1,1v17.56a.9.9,0,0,1-1,1h-.92A.9.9,0,0,1,354.85,235.62Z"/><path class="efb14fb4-5b73-4b22-8690-9a31061bb972" d="M363,235.62V218.06a.9.9,0,0,1,1-1h.41a1.38,1.38,0,0,1,1.22.62l9.74,13.53V218.06a.9.9,0,0,1,1-1h.93a.93.93,0,0,1,1,1v17.56a.93.93,0,0,1-1,1h-.38a1.36,1.36,0,0,1-1.22-.62l-9.77-13.59v13.2a.9.9,0,0,1-1,1h-.92A.9.9,0,0,1,363,235.62Z"/><path class="efb14fb4-5b73-4b22-8690-9a31061bb972" d="M396.72,218.06v.42a.9.9,0,0,1-1,1h-5.3v16.14a.9.9,0,0,1-1,1h-.9a.9.9,0,0,1-1-1V219.48h-5.31a.91.91,0,0,1-1-1v-.42a.91.91,0,0,1,1-1h13.46A.9.9,0,0,1,396.72,218.06Z"/><path class="efb14fb4-5b73-4b22-8690-9a31061bb972" d="M402.7,219.48v6.35h7.13a.91.91,0,0,1,1,1v.36a.93.93,0,0,1-1,1H402.7v6H411a.91.91,0,0,1,1,1v.42a.91.91,0,0,1-1,1H400.8a.9.9,0,0,1-1-1V218.06a.9.9,0,0,1,1-1H411a.91.91,0,0,1,1,1v.42a.91.91,0,0,1-1,1Z"/><path class="efb14fb4-5b73-4b22-8690-9a31061bb972" d="M422.55,229.27H418.8v6.35a.9.9,0,0,1-1,1h-.92a.9.9,0,0,1-1-1V218.06a.9.9,0,0,1,1-1h7c3.67,0,5.79,2.85,5.79,6.18,0,2.91-1.63,5.34-4.46,5.9.19,2.13,1.47,5.32,3.54,5.32a2.62,2.62,0,0,0,1.38-.34c.6-.28,1-.22,1.31.37l.13.25a1,1,0,0,1-.3,1.4,4.76,4.76,0,0,1-2.74.81C424.1,236.94,422.74,231.62,422.55,229.27Zm.82-2.35c2.09,0,3.37-1.53,3.37-3.69s-1.31-3.75-3.37-3.75H418.8v7.44Z"/><path class="efb14fb4-5b73-4b22-8690-9a31061bb972" d="M434.63,235.62V218.06a.9.9,0,0,1,1-1H436a1.36,1.36,0,0,1,1.22.62L447,231.2V218.06a.9.9,0,0,1,1-1h.92a.92.92,0,0,1,1,1v17.56a.92.92,0,0,1-1,1h-.38a1.38,1.38,0,0,1-1.22-.62l-9.76-13.59v13.2a.9.9,0,0,1-1,1h-.93A.9.9,0,0,1,434.63,235.62Z"/><path class="efb14fb4-5b73-4b22-8690-9a31061bb972" d="M453.28,235.45l6.55-17.59a1.15,1.15,0,0,1,1.14-.81h1.58a1.12,1.12,0,0,1,1.14.81l6.61,17.59c.24.7,0,1.18-.76,1.18h-.87a1.15,1.15,0,0,1-1.17-.81l-1.17-3.19h-9.08l-1.17,3.19a1.11,1.11,0,0,1-1.14.81H454C453.31,236.63,453,236.15,453.28,235.45Zm12.23-5.23-3.75-10.29-3.7,10.29Z"/><path class="efb14fb4-5b73-4b22-8690-9a31061bb972" d="M484.9,218.06v.42a.9.9,0,0,1-1,1h-5.3v16.14a.9.9,0,0,1-1,1h-.9a.9.9,0,0,1-1-1V219.48h-5.3a.91.91,0,0,1-1-1v-.42a.91.91,0,0,1,1-1h13.46A.9.9,0,0,1,484.9,218.06Z"/><path class="efb14fb4-5b73-4b22-8690-9a31061bb972" d="M488,235.62V218.06a.9.9,0,0,1,1-1h.92a.9.9,0,0,1,1,1v17.56a.9.9,0,0,1-1,1H489A.9.9,0,0,1,488,235.62Z"/><path class="efb14fb4-5b73-4b22-8690-9a31061bb972" d="M494.72,226.84a9.9,9.9,0,1,1,9.89,10.1A10,10,0,0,1,494.72,226.84Zm16.85,0a7,7,0,1,0-7,7.44A7.15,7.15,0,0,0,511.57,226.84Z"/><path class="efb14fb4-5b73-4b22-8690-9a31061bb972" d="M518.32,235.62V218.06a.9.9,0,0,1,1-1h.4a1.39,1.39,0,0,1,1.23.62l9.73,13.53V218.06a.9.9,0,0,1,1-1h.92a.92.92,0,0,1,1,1v17.56a.92.92,0,0,1-1,1h-.38A1.38,1.38,0,0,1,531,236l-9.76-13.59v13.2a.9.9,0,0,1-1,1h-.92A.9.9,0,0,1,518.32,235.62Z"/><path class="efb14fb4-5b73-4b22-8690-9a31061bb972" d="M537,235.45l6.55-17.59a1.15,1.15,0,0,1,1.14-.81h1.58a1.12,1.12,0,0,1,1.14.81L554,235.45c.25.7,0,1.18-.76,1.18h-.87a1.15,1.15,0,0,1-1.17-.81L550,232.63h-9.08l-1.17,3.19a1.11,1.11,0,0,1-1.14.81h-.9C537,236.63,536.7,236.15,537,235.45Zm12.24-5.23-3.76-10.29-3.69,10.29Z"/><path class="efb14fb4-5b73-4b22-8690-9a31061bb972" d="M557.36,235.62V218.06a.9.9,0,0,1,1-1h.93a.9.9,0,0,1,1,1V234.2h7.7a.92.92,0,0,1,1,1v.42a.92.92,0,0,1-1,1h-9.6A.9.9,0,0,1,557.36,235.62Z"/><path class="efb14fb4-5b73-4b22-8690-9a31061bb972" d="M578,233a.87.87,0,0,1,.65-1.26l.79-.2c.6-.14.92.09,1.22.67a4.51,4.51,0,0,0,4,2.16c2.44,0,3.94-1.23,3.94-2.91,0-1.49-1.2-2.41-2.75-3l-2.83-1c-3.58-1.23-4.45-3.44-4.45-5.26,0-3.39,2.88-5.46,6.17-5.46a6,6,0,0,1,6,3.7.88.88,0,0,1-.65,1.25l-.68.23a1,1,0,0,1-1.25-.65,3.46,3.46,0,0,0-3.38-1.9c-1.79,0-3.29,1-3.29,2.74,0,.81.25,1.88,2.42,2.72l2.83,1.09c3.21,1,4.68,3.21,4.68,5.31,0,3.53-2.72,5.71-6.69,5.71C581.4,236.94,579,235.26,578,233Z"/><path class="efb14fb4-5b73-4b22-8690-9a31061bb972" d="M593.88,226.84a9.9,9.9,0,1,1,9.9,10.1A10,10,0,0,1,593.88,226.84Zm16.86,0a7,7,0,1,0-7,7.44A7.15,7.15,0,0,0,610.74,226.84Z"/><path class="efb14fb4-5b73-4b22-8690-9a31061bb972" d="M616.09,226.84c0-5.45,3.84-10.1,10.31-10.1a9.53,9.53,0,0,1,5.55,1.6,1,1,0,0,1,.32,1.4l-.24.44a.87.87,0,0,1-1.36.34,9.13,9.13,0,0,0-4.27-1.12,7.44,7.44,0,0,0,0,14.88,9.13,9.13,0,0,0,4.27-1.12.87.87,0,0,1,1.36.34l.24.44c.3.59.25,1-.16,1.29a9.47,9.47,0,0,1-5.71,1.71C619.93,236.94,616.09,232.29,616.09,226.84Z"/><path class="efb14fb4-5b73-4b22-8690-9a31061bb972" d="M636.08,235.62V218.06a.9.9,0,0,1,1-1H638a.9.9,0,0,1,1,1v17.56a.9.9,0,0,1-1,1h-.92A.9.9,0,0,1,636.08,235.62Z"/><path class="efb14fb4-5b73-4b22-8690-9a31061bb972" d="M647.06,219.48v6.35h7.13a.91.91,0,0,1,1,1v.36a.93.93,0,0,1-1,1h-7.13v6h8.32a.91.91,0,0,1,1,1v.42a.91.91,0,0,1-1,1H645.16a.9.9,0,0,1-1-1V218.06a.9.9,0,0,1,1-1h10.22a.91.91,0,0,1,1,1v.42a.91.91,0,0,1-1,1Z"/><path class="efb14fb4-5b73-4b22-8690-9a31061bb972" d="M673.6,218.06v.42a.9.9,0,0,1-1,1h-5.3v16.14a.9.9,0,0,1-1,1h-.9a.9.9,0,0,1-1-1V219.48h-5.3a.91.91,0,0,1-1-1v-.42a.91.91,0,0,1,1-1h13.46A.9.9,0,0,1,673.6,218.06Z"/><path class="efb14fb4-5b73-4b22-8690-9a31061bb972" d="M682,235.62v-7.05l-6.64-10.29c-.46-.7-.16-1.23.63-1.23h1.2a1.18,1.18,0,0,1,1.16.67l5.06,8.34,5.09-8.34a1.25,1.25,0,0,1,1.19-.67h1.17c.79,0,1.09.53.63,1.23l-6.61,10.29v7.05a.92.92,0,0,1-1,1h-.89A.9.9,0,0,1,682,235.62Z"/><path class="efb14fb4-5b73-4b22-8690-9a31061bb972" d="M709,224.43l-.19.66h-2.53l-2.25,8.71q-1.53,5.91-3.36,7.94a5.34,5.34,0,0,1-4,2,4.17,4.17,0,0,1-2.19-.58,1.69,1.69,0,0,1-1-1.44,1.13,1.13,0,0,1,.3-.81,1,1,0,0,1,1.48,0,1.16,1.16,0,0,1,.29.75,2.32,2.32,0,0,1,0,.37l0,.26a.65.65,0,0,0,.34.52,1.48,1.48,0,0,0,.84.24,3.44,3.44,0,0,0,2.93-1.91,32.07,32.07,0,0,0,2.69-7.64l2.22-8.47h-2.85l.18-.66h2.87c0-.12.11-.4.23-.86q2-7.41,6.33-7.42a2.8,2.8,0,0,1,1.9.57,1.55,1.55,0,0,1,.66,1.12c0,.52-.24.79-.72.79s-.8-.35-1.23-1a1.32,1.32,0,0,0-1.12-.75,2.63,2.63,0,0,0-1.88.93q-.9.93-2,5.06l-.42,1.59Z"/><path class="efb14fb4-5b73-4b22-8690-9a31061bb972" d="M708.22,232.71a10.89,10.89,0,0,1,.81-3.89,8.41,8.41,0,0,1,2.32-3.42,4.52,4.52,0,0,1,2.92-1.31,2.53,2.53,0,0,1,2.12,1.13,4.94,4.94,0,0,1,.83,3,10.86,10.86,0,0,1-.92,4.41,8.29,8.29,0,0,1-2.33,3.19,4.42,4.42,0,0,1-2.74,1.11,2.86,2.86,0,0,1-2.11-.95A4.8,4.8,0,0,1,708.22,232.71Zm1.55,1.72a2.31,2.31,0,0,0,.4,1.37,1.31,1.31,0,0,0,1.12.56q1.94,0,3.19-3.78a20.34,20.34,0,0,0,1.25-5.78,2.61,2.61,0,0,0-.38-1.54,1.35,1.35,0,0,0-1.15-.51c-1.21,0-2.25,1.16-3.12,3.5A17.87,17.87,0,0,0,709.77,234.43Z"/><path class="efb14fb4-5b73-4b22-8690-9a31061bb972" d="M719.41,228h-.64a10.69,10.69,0,0,1,1.53-2.85,2.47,2.47,0,0,1,1.82-1.17,1,1,0,0,1,.92.51,3,3,0,0,1,.31,1.56,15.51,15.51,0,0,1-.65,3.69c.06-.1.21-.46.48-1.07a19,19,0,0,1,1.88-3.59,2.16,2.16,0,0,1,1.62-1.1,1.07,1.07,0,0,1,.81.32,1.15,1.15,0,0,1,.3.79,1,1,0,0,1-.25.73.79.79,0,0,1-.6.29,1.11,1.11,0,0,1-.8-.5.44.44,0,0,0-.32-.19c-.48,0-1.22,1.19-2.22,3.58a63.84,63.84,0,0,0-2.44,6.74l-.32,1.07h-1.73l2.3-7.89a14.06,14.06,0,0,0,.65-3.07,1.5,1.5,0,0,0-.11-.64.34.34,0,0,0-.32-.21c-.32,0-.72.36-1.2,1.06A8.32,8.32,0,0,0,719.41,228Z"/><path class="efb14fb4-5b73-4b22-8690-9a31061bb972" d="M743.45,224.43l-.21.66h-2.17l-1.91,6.51a24.37,24.37,0,0,0-1,3.72.77.77,0,0,0,.16.54.51.51,0,0,0,.44.19c.34,0,.8-.34,1.36-1a10.59,10.59,0,0,0,1.5-2.55h.64a10.29,10.29,0,0,1-2,3.39,3.13,3.13,0,0,1-2.08,1.17,1.46,1.46,0,0,1-1.18-.54,2.09,2.09,0,0,1-.44-1.36,20.24,20.24,0,0,1,.9-3.72l1.87-6.34h-2l.2-.66h2l1.33-4.51h1.74l-1.34,4.51Z"/><path class="efb14fb4-5b73-4b22-8690-9a31061bb972" d="M744.23,236.85H742.5l5.09-17.2A11.09,11.09,0,0,0,748,218a.59.59,0,0,0-.19-.5,2,2,0,0,0-1-.14h-.46l.17-.63a9.78,9.78,0,0,0,3.42-.54h.36l-3.29,11.11c1.74-2.16,3.33-3.24,4.75-3.24a2.2,2.2,0,0,1,1.45.41,1.59,1.59,0,0,1,.48,1.27,14.14,14.14,0,0,1-.85,3.19l-1.28,3.73a16.28,16.28,0,0,0-.74,2.53.92.92,0,0,0,.15.57.49.49,0,0,0,.43.19,1.81,1.81,0,0,0,1.18-.64,5.62,5.62,0,0,0,1.11-1.59h.71a8,8,0,0,1-1.75,2.44,3,3,0,0,1-1.93.93,1.51,1.51,0,0,1-1.14-.51,1.86,1.86,0,0,1-.48-1.34A11.47,11.47,0,0,1,750,232l1.23-3.44a13,13,0,0,0,.86-3,.75.75,0,0,0-.2-.56.86.86,0,0,0-.6-.19,3.07,3.07,0,0,0-1.53.55,7,7,0,0,0-1.84,1.82,10,10,0,0,0-1.4,2.39c-.3.74-.68,1.93-1.15,3.55Z"/><path class="efb14fb4-5b73-4b22-8690-9a31061bb972" d="M762.12,232.83h.7Q761,237,758.1,237.05a2.44,2.44,0,0,1-1.93-.86,3.39,3.39,0,0,1-.75-2.32,11.09,11.09,0,0,1,1-4.17,11.6,11.6,0,0,1,2.74-4,4.93,4.93,0,0,1,3.09-1.68,1.48,1.48,0,0,1,1.23.52,2.08,2.08,0,0,1,.42,1.32A4.26,4.26,0,0,1,762.3,229a16.4,16.4,0,0,1-4.69,2.85,8.33,8.33,0,0,0-.41,2.46,2.35,2.35,0,0,0,.36,1.43,1.26,1.26,0,0,0,1.08.48Q760.62,236.17,762.12,232.83Zm-4.3-1.78a11.22,11.22,0,0,0,3.36-2.39,4.19,4.19,0,0,0,1.49-2.75,1.3,1.3,0,0,0-.22-.84.79.79,0,0,0-.67-.28c-.58,0-1.26.58-2,1.74A14.53,14.53,0,0,0,757.82,231.05Z"/><path class="efb14fb4-5b73-4b22-8690-9a31061bb972" d="M772.88,235.45l6.55-17.59a1.15,1.15,0,0,1,1.14-.81h1.58a1.12,1.12,0,0,1,1.14.81l6.61,17.59c.25.7,0,1.18-.76,1.18h-.87a1.15,1.15,0,0,1-1.17-.81l-1.17-3.19h-9.08l-1.17,3.19a1.11,1.11,0,0,1-1.14.81h-.9C772.91,236.63,772.61,236.15,772.88,235.45Zm12.24-5.23-3.76-10.29-3.69,10.29Z"/><path class="efb14fb4-5b73-4b22-8690-9a31061bb972" d="M793.27,235.62V218.06a.9.9,0,0,1,1-1h5.25a9.79,9.79,0,0,1,0,19.58h-5.25A.9.9,0,0,1,793.27,235.62Zm6.18-1.42c4.26,0,6.9-3.28,6.9-7.36s-2.64-7.36-6.9-7.36h-3.3V234.2Z"/><path class="efb14fb4-5b73-4b22-8690-9a31061bb972" d="M816.85,235.82l-6-17.59c-.24-.7.08-1.18.79-1.18h.92a1.09,1.09,0,0,1,1.12.84L818.61,233l4.82-15.13a1.09,1.09,0,0,1,1.14-.84h.92c.71,0,1,.48.79,1.18l-6,17.59a1.05,1.05,0,0,1-1.12.81H818A1,1,0,0,1,816.85,235.82Z"/><path class="efb14fb4-5b73-4b22-8690-9a31061bb972" d="M826.77,235.45l6.55-17.59a1.16,1.16,0,0,1,1.15-.81H836a1.13,1.13,0,0,1,1.15.81l6.6,17.59c.25.7,0,1.18-.76,1.18h-.87a1.15,1.15,0,0,1-1.17-.81l-1.17-3.19h-9.08l-1.17,3.19a1.11,1.11,0,0,1-1.14.81h-.9C826.8,236.63,826.5,236.15,826.77,235.45ZM839,230.22l-3.75-10.29-3.7,10.29Z"/><path class="efb14fb4-5b73-4b22-8690-9a31061bb972" d="M847.16,235.62V218.06a.9.9,0,0,1,1-1h.41a1.36,1.36,0,0,1,1.22.62l9.74,13.53V218.06a.9.9,0,0,1,1-1h.92a.92.92,0,0,1,1,1v17.56a.92.92,0,0,1-1,1H861a1.37,1.37,0,0,1-1.22-.62l-9.76-13.59v13.2a.9.9,0,0,1-1,1h-.93A.9.9,0,0,1,847.16,235.62Z"/><path class="efb14fb4-5b73-4b22-8690-9a31061bb972" d="M866.25,226.84c0-5.45,3.84-10.1,10.31-10.1a9.48,9.48,0,0,1,5.54,1.6,1,1,0,0,1,.33,1.4l-.24.44a.87.87,0,0,1-1.36.34,9.13,9.13,0,0,0-4.27-1.12,7.44,7.44,0,0,0,0,14.88,9.13,9.13,0,0,0,4.27-1.12.87.87,0,0,1,1.36.34l.24.44c.3.59.25,1-.16,1.29a9.47,9.47,0,0,1-5.71,1.71C870.09,236.94,866.25,232.29,866.25,226.84Z"/><path class="efb14fb4-5b73-4b22-8690-9a31061bb972" d="M889.12,219.48v6.35h7.12a.9.9,0,0,1,1,1v.36a.92.92,0,0,1-1,1h-7.12v6h8.32a.91.91,0,0,1,1,1v.42a.91.91,0,0,1-1,1H887.22a.9.9,0,0,1-1-1V218.06a.9.9,0,0,1,1-1h10.22a.91.91,0,0,1,1,1v.42a.91.91,0,0,1-1,1Z"/><path class="efb14fb4-5b73-4b22-8690-9a31061bb972" d="M901.6,235.57,903.23,218a.92.92,0,0,1,1-.95h1.44a1.08,1.08,0,0,1,1.11.78l5.93,14.58,5.9-14.58a1.12,1.12,0,0,1,1.14-.78h1.42a.92.92,0,0,1,1,.95l1.6,17.57a.86.86,0,0,1-.95,1.06H922a1,1,0,0,1-1.07-.95l-1.16-14.13-5.66,14a1.12,1.12,0,0,1-1.14.79h-.46a1.09,1.09,0,0,1-1.12-.79l-5.65-14-1.2,14.13a.93.93,0,0,1-1,.95h-.9A.89.89,0,0,1,901.6,235.57Z"/><path class="efb14fb4-5b73-4b22-8690-9a31061bb972" d="M931.18,219.48v6.35h7.13a.91.91,0,0,1,1,1v.36a.93.93,0,0,1-1,1h-7.13v6h8.32a.91.91,0,0,1,1,1v.42a.91.91,0,0,1-1,1H929.28a.9.9,0,0,1-1-1V218.06a.9.9,0,0,1,1-1H939.5a.91.91,0,0,1,1,1v.42a.91.91,0,0,1-1,1Z"/><path class="efb14fb4-5b73-4b22-8690-9a31061bb972" d="M944.42,235.62V218.06a.9.9,0,0,1,1-1h.41a1.36,1.36,0,0,1,1.22.62l9.74,13.53V218.06a.9.9,0,0,1,1-1h.92a.92.92,0,0,1,1,1v17.56a.92.92,0,0,1-1,1h-.38a1.36,1.36,0,0,1-1.22-.62l-9.76-13.59v13.2a.9.9,0,0,1-1,1h-.93A.9.9,0,0,1,944.42,235.62Z"/><path class="efb14fb4-5b73-4b22-8690-9a31061bb972" d="M978.19,218.06v.42a.89.89,0,0,1-1,1h-5.31v16.14a.9.9,0,0,1-1,1H970a.9.9,0,0,1-1-1V219.48h-5.3a.91.91,0,0,1-1-1v-.42a.91.91,0,0,1,1-1h13.46A.9.9,0,0,1,978.19,218.06Z"/><path class="efb14fb4-5b73-4b22-8690-9a31061bb972" d="M470,269.31a10.89,10.89,0,0,1,.81-3.89,8.43,8.43,0,0,1,2.31-3.42,4.57,4.57,0,0,1,2.93-1.31,2.53,2.53,0,0,1,2.12,1.12,5,5,0,0,1,.83,3.05,10.86,10.86,0,0,1-.92,4.41,8.29,8.29,0,0,1-2.33,3.19,4.42,4.42,0,0,1-2.74,1.11,2.86,2.86,0,0,1-2.11-.95A4.8,4.8,0,0,1,470,269.31ZM471.5,271a2.27,2.27,0,0,0,.4,1.37A1.29,1.29,0,0,0,473,273q1.94,0,3.19-3.78a20.41,20.41,0,0,0,1.25-5.78,2.59,2.59,0,0,0-.38-1.54,1.36,1.36,0,0,0-1.15-.52q-1.81,0-3.12,3.51A17.87,17.87,0,0,0,471.5,271Z"/><path class="efb14fb4-5b73-4b22-8690-9a31061bb972" d="M488.7,261l-.19.66H486l-2.25,8.71c-1,3.94-2.14,6.59-3.36,7.93a5.31,5.31,0,0,1-4,2,4.17,4.17,0,0,1-2.19-.58,1.69,1.69,0,0,1-1-1.45,1.12,1.12,0,0,1,.3-.8,1,1,0,0,1,.71-.31.93.93,0,0,1,.77.35,1.16,1.16,0,0,1,.29.75,2.44,2.44,0,0,1,0,.37l0,.26a.65.65,0,0,0,.35.52,1.43,1.43,0,0,0,.84.23,3.43,3.43,0,0,0,2.92-1.9,32.07,32.07,0,0,0,2.69-7.64l2.22-8.47h-2.85l.19-.66h2.86l.23-.86q2-7.43,6.33-7.42a2.85,2.85,0,0,1,1.91.57,1.55,1.55,0,0,1,.65,1.11c0,.53-.24.79-.72.79s-.8-.34-1.23-1a1.32,1.32,0,0,0-1.11-.75,2.63,2.63,0,0,0-1.89.93q-.9.93-2,5.06l-.42,1.59Z"/><path class="efb14fb4-5b73-4b22-8690-9a31061bb972" d="M497.27,269.56a.87.87,0,0,1,.65-1.26l.79-.19c.6-.14.92.08,1.22.67a4.52,4.52,0,0,0,4,2.15c2.45,0,3.95-1.23,3.95-2.9,0-1.49-1.2-2.41-2.75-3l-2.83-1c-3.59-1.23-4.46-3.44-4.46-5.26,0-3.38,2.89-5.45,6.18-5.45a6,6,0,0,1,6,3.69.89.89,0,0,1-.65,1.26l-.68.23a1,1,0,0,1-1.26-.65,3.44,3.44,0,0,0-3.37-1.9c-1.79,0-3.29,1-3.29,2.74,0,.81.25,1.87,2.42,2.71l2.83,1.1c3.21,1,4.68,3.21,4.68,5.31,0,3.52-2.72,5.7-6.69,5.7C500.64,273.53,498.24,271.86,497.27,269.56Z"/><path class="efb14fb4-5b73-4b22-8690-9a31061bb972" d="M513.12,263.44c0-5.46,3.83-10.1,10.3-10.1a9.51,9.51,0,0,1,5.55,1.6,1,1,0,0,1,.33,1.39l-.25.45a.87.87,0,0,1-1.36.34,9.07,9.07,0,0,0-4.27-1.12,7.44,7.44,0,0,0,0,14.88,9.07,9.07,0,0,0,4.27-1.12.87.87,0,0,1,1.36.33l.25.45c.3.59.24,1-.17,1.29a9.5,9.5,0,0,1-5.71,1.7C517,273.53,513.12,268.89,513.12,263.44Z"/><path class="efb14fb4-5b73-4b22-8690-9a31061bb972" d="M533.1,272.22V254.66a.9.9,0,0,1,1-1H535a.9.9,0,0,1,1,1v17.56a.9.9,0,0,1-1,1h-.93A.91.91,0,0,1,533.1,272.22Z"/><path class="efb14fb4-5b73-4b22-8690-9a31061bb972" d="M544.09,256.08v6.35h7.12a.9.9,0,0,1,1,1v.36a.93.93,0,0,1-1,1h-7.12v6h8.32a.92.92,0,0,1,1,1v.42a.92.92,0,0,1-1,1H542.18a.91.91,0,0,1-1-1V254.66a.9.9,0,0,1,1-1h10.23a.91.91,0,0,1,1,1v.41a.91.91,0,0,1-1,1Z"/><path class="efb14fb4-5b73-4b22-8690-9a31061bb972" d="M557.33,272.22V254.66a.9.9,0,0,1,1-1h.41a1.4,1.4,0,0,1,1.22.61l9.73,13.54V254.66a.9.9,0,0,1,1-1h.93a.92.92,0,0,1,1,1v17.56a.92.92,0,0,1-1,1h-.38a1.39,1.39,0,0,1-1.23-.62L560.21,259v13.2a.9.9,0,0,1-1,1h-.92A.9.9,0,0,1,557.33,272.22Z"/><path class="efb14fb4-5b73-4b22-8690-9a31061bb972" d="M576.42,263.44c0-5.46,3.83-10.1,10.3-10.1a9.51,9.51,0,0,1,5.55,1.6,1,1,0,0,1,.33,1.39l-.25.45a.87.87,0,0,1-1.36.34,9.1,9.1,0,0,0-4.27-1.12,7.44,7.44,0,0,0,0,14.88,9.1,9.1,0,0,0,4.27-1.12.87.87,0,0,1,1.36.33l.25.45c.29.59.24,1-.17,1.29a9.5,9.5,0,0,1-5.71,1.7C580.25,273.53,576.42,268.89,576.42,263.44Z"/><path class="efb14fb4-5b73-4b22-8690-9a31061bb972" d="M599.28,256.08v6.35h7.13a.9.9,0,0,1,1,1v.36a.93.93,0,0,1-1,1h-7.13v6h8.32a.92.92,0,0,1,1,1v.42a.92.92,0,0,1-1,1H597.38a.9.9,0,0,1-1-1V254.66a.9.9,0,0,1,1-1H607.6a.91.91,0,0,1,1,1v.41a.91.91,0,0,1-1,1Z"/><path class="efb14fb4-5b73-4b22-8690-9a31061bb972" d="M619.35,263.44c0-5.46,3.83-10.1,10.3-10.1a9.51,9.51,0,0,1,5.55,1.6,1,1,0,0,1,.33,1.39l-.25.45a.87.87,0,0,1-1.36.34,9.07,9.07,0,0,0-4.27-1.12,7.44,7.44,0,0,0,0,14.88,9.07,9.07,0,0,0,4.27-1.12.87.87,0,0,1,1.36.33l.25.45c.3.59.24,1-.17,1.29a9.5,9.5,0,0,1-5.71,1.7C623.18,273.53,619.35,268.89,619.35,263.44Z"/><path class="efb14fb4-5b73-4b22-8690-9a31061bb972" d="M637.57,263.44a9.9,9.9,0,1,1,9.89,10.09A10,10,0,0,1,637.57,263.44Zm16.86,0a7,7,0,1,0-7,7.44A7.15,7.15,0,0,0,654.43,263.44Z"/><path class="efb14fb4-5b73-4b22-8690-9a31061bb972" d="M660.41,272.16,662,254.6a.92.92,0,0,1,1-.95h1.45a1.07,1.07,0,0,1,1.11.78L671.53,269l5.9-14.57a1.1,1.1,0,0,1,1.14-.78H680a.93.93,0,0,1,1,.95l1.6,17.56a.87.87,0,0,1-1,1.07h-.9a1,1,0,0,1-1.06-1l-1.17-14.13-5.65,14a1.13,1.13,0,0,1-1.14.79h-.47a1.09,1.09,0,0,1-1.11-.79l-5.66-14-1.19,14.13a.93.93,0,0,1-1,1h-.89A.89.89,0,0,1,660.41,272.16Z"/><path class="efb14fb4-5b73-4b22-8690-9a31061bb972" d="M686.35,272.16,688,254.6a.92.92,0,0,1,1-.95h1.45a1.07,1.07,0,0,1,1.11.78L697.47,269l5.9-14.57a1.1,1.1,0,0,1,1.14-.78h1.41a.93.93,0,0,1,1,.95l1.6,17.56a.87.87,0,0,1-.95,1.07h-.9a1,1,0,0,1-1.06-1l-1.17-14.13-5.65,14a1.13,1.13,0,0,1-1.15.79h-.46a1.09,1.09,0,0,1-1.11-.79l-5.66-14-1.19,14.13a.93.93,0,0,1-1,1h-.89A.89.89,0,0,1,686.35,272.16Z"/><path class="efb14fb4-5b73-4b22-8690-9a31061bb972" d="M712.78,266V254.66a.91.91,0,0,1,1-1h.93a.9.9,0,0,1,1,1V266c0,3.31,2.17,4.93,4.67,4.93S725,269.26,725,266V254.66a.9.9,0,0,1,1-1h.89a.92.92,0,0,1,1,1V266c0,5-3.48,7.58-7.59,7.58S712.78,270.93,712.78,266Z"/><path class="efb14fb4-5b73-4b22-8690-9a31061bb972" d="M732.87,272.22V254.66a.9.9,0,0,1,1-1h.41a1.4,1.4,0,0,1,1.22.61l9.73,13.54V254.66a.9.9,0,0,1,1-1h.93a.92.92,0,0,1,1,1v17.56a.92.92,0,0,1-1,1h-.38a1.39,1.39,0,0,1-1.23-.62L735.75,259v13.2a.9.9,0,0,1-1,1h-.92A.9.9,0,0,1,732.87,272.22Z"/><path class="efb14fb4-5b73-4b22-8690-9a31061bb972" d="M753.34,272.22V254.66a.9.9,0,0,1,1-1h.93a.9.9,0,0,1,1,1v17.56a.91.91,0,0,1-1,1h-.93A.91.91,0,0,1,753.34,272.22Z"/><path class="efb14fb4-5b73-4b22-8690-9a31061bb972" d="M760.06,263.44c0-5.46,3.83-10.1,10.31-10.1a9.5,9.5,0,0,1,5.54,1.6,1,1,0,0,1,.33,1.39l-.25.45a.87.87,0,0,1-1.36.34,9.06,9.06,0,0,0-4.26-1.12,7.44,7.44,0,0,0,0,14.88,9.06,9.06,0,0,0,4.26-1.12.87.87,0,0,1,1.36.33l.25.45c.3.59.24,1-.16,1.29a9.54,9.54,0,0,1-5.71,1.7C763.89,273.53,760.06,268.89,760.06,263.44Z"/><path class="efb14fb4-5b73-4b22-8690-9a31061bb972" d="M778.19,272.05l6.56-17.59a1.15,1.15,0,0,1,1.14-.81h1.58a1.12,1.12,0,0,1,1.14.81l6.61,17.59c.24.7,0,1.18-.76,1.18h-.87a1.13,1.13,0,0,1-1.17-.81l-1.17-3.19h-9.08L781,272.42a1.12,1.12,0,0,1-1.15.81H779C778.22,273.23,777.92,272.75,778.19,272.05Zm12.24-5.23-3.75-10.29L783,266.82Z"/><path class="efb14fb4-5b73-4b22-8690-9a31061bb972" d="M809.82,254.66v.41a.9.9,0,0,1-1,1h-5.3v16.14a.91.91,0,0,1-1,1h-.9a.91.91,0,0,1-1-1V256.08h-5.3a.91.91,0,0,1-1-1v-.41a.91.91,0,0,1,1-1h13.46A.9.9,0,0,1,809.82,254.66Z"/><path class="efb14fb4-5b73-4b22-8690-9a31061bb972" d="M812.92,272.22V254.66a.9.9,0,0,1,1-1h.92a.9.9,0,0,1,1,1v17.56a.9.9,0,0,1-1,1h-.92A.9.9,0,0,1,812.92,272.22Z"/><path class="efb14fb4-5b73-4b22-8690-9a31061bb972" d="M819.63,263.44a9.9,9.9,0,1,1,9.9,10.09A10,10,0,0,1,819.63,263.44Zm16.86,0a7,7,0,1,0-7,7.44A7.14,7.14,0,0,0,836.49,263.44Z"/><path class="efb14fb4-5b73-4b22-8690-9a31061bb972" d="M843.23,272.22V254.66a.9.9,0,0,1,1-1h.41a1.4,1.4,0,0,1,1.23.61l9.73,13.54V254.66a.9.9,0,0,1,1-1h.92a.92.92,0,0,1,1,1v17.56a.93.93,0,0,1-1,1h-.38a1.37,1.37,0,0,1-1.22-.62L846.12,259v13.2a.91.91,0,0,1-1,1h-.93A.91.91,0,0,1,843.23,272.22Z"/><path class="aaa6c038-d3ef-4316-b4dd-22cf46cfe0c9" d="M144.54,78.63a100.28,100.28,0,0,1,73.64,28.44V107l35.31,32.93A100.62,100.62,0,0,0,71,55.45a48.27,48.27,0,0,1-49.3,26.07A115.88,115.88,0,0,1,8.24,78.93,6.61,6.61,0,0,0,2.13,90.18l53.29,49.69A100.63,100.63,0,0,1,144.54,78.63Z"/><g class="e555cfc1-9596-44a1-8b31-18403697babb"><path class="b6011fe3-5f4f-4270-a11c-0254b3f6091e" d="M306.79,189.63,253.5,139.94a100.6,100.6,0,0,1-162.76,32.8v.06L55.42,139.87A100.62,100.62,0,0,0,238,224.36a48.25,48.25,0,0,1,49.29-26.07,116.43,116.43,0,0,1,13.44,2.59A6.61,6.61,0,0,0,306.79,189.63Z"/></g><path class="ef3d13c4-2a8b-4223-8449-4e4847ba99ad" d="M90.74,172.74a100.6,100.6,0,0,0,162.76-32.8L218.19,107v.06a100.6,100.6,0,0,0-162.76,32.8L90.73,172.8Z"/></g></g></g></svg>