<svg xmlns="http://www.w3.org/2000/svg" width="308.92" height="279.81" viewBox="0 0 308.92 279.81"><defs><style>.a3befec9-83ce-4f45-bce0-dee8da70fc9c{isolation:isolate;}.f9283085-1d15-423a-9975-66f227ac8d3a{fill:#08afb7;}.ae526a66-943f-4fa7-8776-d6c0179db1e5{mix-blend-mode:hard-light;}.e25c549a-7fcc-49d8-999c-845ac8f11d46{fill:#ff885f;}.a0b945e2-66f7-4213-b66e-f67092a6a15a{fill:#f6cfab;}</style></defs><g class="a3befec9-83ce-4f45-bce0-dee8da70fc9c"><g id="a8d39b8b-9d3f-4cfb-8413-e28a85abb69c" data-name="Layer 2"><g id="a16e3802-7dae-4b71-a53c-4409db30db72" data-name="Layer 1"><path class="f9283085-1d15-423a-9975-66f227ac8d3a" d="M144.54,78.63a100.28,100.28,0,0,1,73.64,28.44V107l35.31,32.93A100.62,100.62,0,0,0,71,55.45a48.27,48.27,0,0,1-49.3,26.07A115.88,115.88,0,0,1,8.24,78.93,6.61,6.61,0,0,0,2.13,90.18l53.29,49.69A100.63,100.63,0,0,1,144.54,78.63Z"/><g class="ae526a66-943f-4fa7-8776-d6c0179db1e5"><path class="e25c549a-7fcc-49d8-999c-845ac8f11d46" d="M306.79,189.63,253.5,139.94a100.6,100.6,0,0,1-162.76,32.8v.06L55.42,139.87A100.62,100.62,0,0,0,238,224.36a48.25,48.25,0,0,1,49.29-26.07,116.43,116.43,0,0,1,13.44,2.59A6.61,6.61,0,0,0,306.79,189.63Z"/></g><path class="a0b945e2-66f7-4213-b66e-f67092a6a15a" d="M90.74,172.74a100.6,100.6,0,0,0,162.76-32.8L218.19,107v.06a100.6,100.6,0,0,0-162.76,32.8L90.73,172.8Z"/></g></g></g></svg>