<svg xmlns="http://www.w3.org/2000/svg" width="1250.03" height="279.81" viewBox="0 0 1250.03 279.81"><defs><style>.a7f42db2-63ed-4ca1-991d-e81206b38c0e{isolation:isolate;}.ffa850c6-5a61-4d26-a23d-fd05a12d31ff{fill:#fff;}.b2a38738-e269-4052-bfa9-ef5a2fe428e2{fill:#08afb7;}.a33d72d1-575c-4087-b1b8-13ebb458b38c{mix-blend-mode:hard-light;}.b60dabb0-a2b5-4b29-a49a-aae17251035f{fill:#ff885f;}.af521f3c-7300-4614-b74f-3d821a70673f{fill:#f6cfab;}</style></defs><g class="a7f42db2-63ed-4ca1-991d-e81206b38c0e"><g id="e4f5424c-eac6-43d4-8b7d-30b1f1b6563b" data-name="Layer 2"><g id="abb6d5fa-1989-48f7-a21b-554123c7c718" data-name="Layer 1"><path class="ffa850c6-5a61-4d26-a23d-fd05a12d31ff" d="M357.4,230.64V49.1c0-9.31,5.41-14.43,14.73-14.43h18.63c9.32,0,14.43,5.12,14.43,14.43V230.64c0,9.31-5.11,14.42-14.43,14.42H372.13C362.81,245.06,357.4,240,357.4,230.64Z"/><path class="ffa850c6-5a61-4d26-a23d-fd05a12d31ff" d="M465.85,203c-3.9-9,.91-15.33,10.22-17.73l12.93-3c8.41-2.11,12.92,1.5,17.73,9.31,6.91,11.12,20.14,18.64,37.87,18.64,20.44,0,34-9,34-22.84,0-10.52-8.11-18.94-24-24.35l-27.35-9.92c-24.95-8.11-55.61-26.75-55.91-59.21,0-38.47,33.37-62.51,74.54-62.51,32.76,0,55.9,14.43,67.32,38.47,4.52,8.72.31,15.63-8.71,18.33l-12,3.31c-8.42,2.4-13.53-.9-18.64-8.12-5.41-9-14.73-13.82-27.35-13.82-15,0-27.95,7.51-27.95,21.34,0,7.51,3.31,15.63,21.94,22.54l27.35,9.92c41.18,13.82,56.51,35.46,57.11,61.91,0,41.18-35.17,63.11-80,63.11C505.53,248.36,477,230.94,465.85,203Z"/><path class="ffa850c6-5a61-4d26-a23d-fd05a12d31ff" d="M652,228.53,722.35,46.09c2.71-7.51,8.42-11.42,16.83-11.42h21.34c8.42,0,13.83,3.91,16.83,11.42l71.23,182.44c3.61,9.92-.6,16.53-11.42,16.53H817.63c-8.12,0-13.83-3.61-16.84-11.42L790.28,206H709.13l-10.22,27.35c-3,7.81-8.41,11.72-16.53,11.72H663.45C652.62,245.06,648.41,238.45,652,228.53Zm128.64-60.11L750,83.66l-31.55,84.76Z"/><path class="ffa850c6-5a61-4d26-a23d-fd05a12d31ff" d="M877.84,203c-3.9-9,.91-15.33,10.22-17.73l12.93-3c8.41-2.11,12.92,1.5,17.73,9.31,6.91,11.12,20.14,18.64,37.87,18.64,20.44,0,34-9,34-22.84,0-10.52-8.11-18.94-24-24.35l-27.35-9.92c-24.95-8.11-55.61-26.75-55.91-59.21,0-38.47,33.37-62.51,74.54-62.51,32.76,0,55.9,14.43,67.32,38.47,4.51,8.72.31,15.63-8.71,18.33l-12,3.31c-8.42,2.4-13.53-.9-18.64-8.12-5.41-9-14.73-13.82-27.34-13.82-15,0-28,7.51-28,21.34,0,7.51,3.31,15.63,21.94,22.54l27.35,9.92c41.18,13.82,56.51,35.46,57.11,61.91,0,41.18-35.17,63.11-79.95,63.11C917.52,248.36,889,230.94,877.84,203Z"/><path class="ffa850c6-5a61-4d26-a23d-fd05a12d31ff" d="M1063.51,139.87c0-58.61,44.18-108.5,115.41-108.5,27,0,46.89,7.81,64.32,19.84,7.52,5.1,8.42,12.62,3,20.13l-7.51,9.32c-5.41,7.51-12,7.51-20.14,2.7a81.65,81.65,0,0,0-39.67-10.51c-42.07,0-67.62,30.05-67.62,67s25.55,67,67.62,67a81.66,81.66,0,0,0,39.67-10.52c8.12-4.81,14.73-4.81,20.14,2.71l7.51,9.31c5.42,7.82,5.11,14.43-1.5,19.24-17.73,12.62-37.87,20.73-65.82,20.73C1107.69,248.36,1063.51,198.47,1063.51,139.87Z"/><path class="b2a38738-e269-4052-bfa9-ef5a2fe428e2" d="M144.54,78.63a100.28,100.28,0,0,1,73.64,28.44V107l35.31,32.93A100.62,100.62,0,0,0,71,55.45a48.27,48.27,0,0,1-49.3,26.07A115.88,115.88,0,0,1,8.24,78.93,6.61,6.61,0,0,0,2.13,90.18l53.29,49.69A100.63,100.63,0,0,1,144.54,78.63Z"/><g class="a33d72d1-575c-4087-b1b8-13ebb458b38c"><path class="b60dabb0-a2b5-4b29-a49a-aae17251035f" d="M306.79,189.63,253.5,139.94a100.6,100.6,0,0,1-162.76,32.8v.06L55.42,139.87A100.62,100.62,0,0,0,238,224.36a48.25,48.25,0,0,1,49.29-26.07,116.43,116.43,0,0,1,13.44,2.59A6.61,6.61,0,0,0,306.79,189.63Z"/></g><path class="af521f3c-7300-4614-b74f-3d821a70673f" d="M90.74,172.74a100.6,100.6,0,0,0,162.76-32.8L218.19,107v.06a100.6,100.6,0,0,0-162.76,32.8L90.73,172.8Z"/></g></g></g></svg>