<svg xmlns="http://www.w3.org/2000/svg" width="308.92" height="279.81" viewBox="0 0 308.92 279.81"><defs><style>.b5377926-992c-40d6-be1b-5ec723255973{fill:#231f20;}</style></defs><g id="b581286e-51e5-4167-9f0e-4819769c2bb3" data-name="Layer 2"><g id="e1e3801c-0cbd-4000-9d13-cd1ad4284635" data-name="Layer 1"><path class="b5377926-992c-40d6-be1b-5ec723255973" d="M144.54,78.63a100.28,100.28,0,0,1,73.64,28.44V107l35.31,32.93A100.62,100.62,0,0,0,71,55.45a48.27,48.27,0,0,1-49.3,26.07A115.88,115.88,0,0,1,8.24,78.93,6.61,6.61,0,0,0,2.13,90.18l53.29,49.69A100.63,100.63,0,0,1,144.54,78.63Z"/><path class="b5377926-992c-40d6-be1b-5ec723255973" d="M306.79,189.63,253.5,139.94a100.6,100.6,0,0,1-162.76,32.8v.06L55.42,139.87A100.62,100.62,0,0,0,238,224.36a48.25,48.25,0,0,1,49.29-26.07,116.43,116.43,0,0,1,13.44,2.59A6.61,6.61,0,0,0,306.79,189.63Z"/></g></g></svg>