<?xml version="1.0" standalone="no"?>
<!DOCTYPE svg PUBLIC "-//W3C//DTD SVG 20010904//EN"
 "http://www.w3.org/TR/2001/REC-SVG-20010904/DTD/svg10.dtd">
<svg version="1.0" xmlns="http://www.w3.org/2000/svg"
 width="512.000000pt" height="512.000000pt" viewBox="0 0 512.000000 512.000000"
 preserveAspectRatio="xMidYMid meet">
<metadata>
Created by potrace 1.16, written by Peter Selinger 2001-2019
</metadata>
<g transform="translate(0.000000,512.000000) scale(0.100000,-0.100000)"
fill="#000000" stroke="none">
<path d="M2480 4720 l0 -160 80 0 80 0 0 160 0 160 -80 0 -80 0 0 -160z"/>
<path d="M1932 4627 c-29 -29 -52 -57 -52 -62 0 -5 51 -60 112 -122 l113 -113
57 57 c32 32 58 62 58 68 0 13 -212 225 -226 225 -5 0 -33 -24 -62 -53z"/>
<path d="M3002 4567 l-112 -112 63 -63 62 -62 113 113 c61 62 112 117 112 122
0 13 -102 115 -115 115 -6 0 -61 -51 -123 -113z"/>
<path d="M1460 4060 c-20 -20 -20 -33 -20 -620 0 -595 0 -600 21 -621 11 -11
19 -22 17 -24 -1 -1 -72 -37 -155 -79 -144 -72 -157 -76 -219 -76 l-66 0 36
41 c66 77 81 121 81 239 0 92 -3 112 -26 160 -34 73 -100 136 -179 174 -57 26
-76 30 -150 30 -74 0 -93 -4 -150 -30 -79 -38 -145 -101 -179 -174 -23 -48
-26 -68 -26 -160 0 -118 14 -161 81 -238 l36 -42 -76 0 c-145 0 -260 -74 -305
-195 -20 -54 -21 -73 -21 -550 0 -590 -14 -535 140 -535 l100 0 0 -540 c0
-527 0 -540 20 -560 19 -19 33 -20 380 -20 347 0 361 1 380 20 20 20 20 33 20
968 l0 947 222 115 c195 101 255 138 498 313 l277 197 363 0 363 0 273 -195
c239 -171 300 -209 498 -312 l226 -118 0 -947 c0 -935 0 -948 20 -968 19 -19
33 -20 380 -20 347 0 361 1 380 20 20 20 20 33 20 560 l0 540 100 0 c154 0
140 -55 140 535 0 477 -1 496 -21 550 -45 121 -160 195 -305 195 l-76 0 36 41
c66 77 81 121 81 239 0 92 -3 112 -26 160 -34 73 -100 136 -179 174 -57 26
-76 30 -150 30 -74 0 -93 -4 -150 -30 -79 -38 -145 -101 -179 -174 -23 -48
-26 -68 -26 -160 0 -118 14 -161 81 -238 l36 -42 -66 0 c-62 0 -75 4 -219 76
-83 42 -153 78 -155 79 -2 2 6 13 17 24 21 21 21 26 21 621 0 587 0 600 -20
620 -20 20 -33 20 -1100 20 -1067 0 -1080 0 -1100 -20z m1020 -320 c0 -226 -4
-220 135 -220 144 0 190 -28 171 -106 -10 -38 -59 -54 -171 -54 -139 0 -135 6
-135 -220 l0 -180 -440 0 -440 0 0 480 0 480 440 0 440 0 0 -180z m1040 -300
l0 -480 -440 0 -440 0 0 120 0 120 73 0 c153 1 247 93 247 242 0 74 -23 129
-71 175 -49 46 -97 63 -179 63 l-70 0 0 120 0 120 440 0 440 0 0 -480z m-2624
-355 c130 -76 125 -268 -8 -336 -162 -83 -342 97 -259 259 50 98 172 133 267
77z m3520 0 c130 -76 125 -268 -8 -336 -162 -83 -342 97 -259 259 50 98 172
133 267 77z m-2531 -294 c-6 -5 -82 -60 -170 -123 -122 -87 -218 -144 -405
-241 -135 -70 -251 -135 -257 -144 -10 -13 -13 -219 -13 -950 l0 -933 -80 0
-80 0 0 560 0 560 -80 0 -80 0 0 -560 0 -560 -80 0 -80 0 0 920 0 920 -80 0
-80 0 0 -360 0 -360 -40 0 -40 0 0 393 c0 215 5 410 10 431 11 49 37 85 81
111 32 19 57 20 434 25 l400 5 170 87 c94 48 217 119 275 157 95 64 110 71
155 71 29 0 45 -4 40 -9z m1545 -62 c58 -38 182 -109 275 -157 l170 -87 400
-5 c377 -5 402 -6 434 -25 44 -26 70 -62 81 -111 5 -21 10 -216 10 -431 l0
-393 -40 0 -40 0 0 360 0 360 -80 0 -80 0 0 -920 0 -920 -80 0 -80 0 0 560 0
560 -80 0 -80 0 0 -560 0 -560 -80 0 -80 0 0 935 c0 877 -1 936 -18 953 -9 9
-125 73 -257 141 -184 96 -277 151 -400 239 -88 63 -164 118 -169 123 -6 5 10
9 40 9 44 0 59 -7 154 -71z"/>
</g>
</svg>
