<?xml version="1.0" standalone="no"?>
<!DOCTYPE svg PUBLIC "-//W3C//DTD SVG 20010904//EN"
 "http://www.w3.org/TR/2001/REC-SVG-20010904/DTD/svg10.dtd">
<svg version="1.0" xmlns="http://www.w3.org/2000/svg"
 width="512.000000pt" height="512.000000pt" viewBox="0 0 512.000000 512.000000"
 preserveAspectRatio="xMidYMid meet">
<metadata>
Created by potrace 1.16, written by Peter Selinger 2001-2019
</metadata>
<g transform="translate(0.000000,512.000000) scale(0.100000,-0.100000)"
fill="#000000" stroke="none">
<path d="M2476 5094 l-26 -27 0 -272 0 -272 25 -26 c51 -50 137 -39 167 23 16
30 18 66 18 273 0 304 -8 327 -113 327 -35 0 -50 -6 -71 -26z"/>
<path d="M868 5084 c-39 -21 -61 -68 -53 -113 5 -30 39 -69 198 -229 106 -107
204 -200 219 -208 97 -51 195 47 144 144 -22 41 -387 399 -419 411 -37 14 -56
13 -89 -5z"/>
<path d="M4149 5092 c-32 -14 -409 -388 -425 -420 -44 -93 53 -186 144 -138
39 21 408 397 417 424 11 36 -2 86 -29 111 -25 23 -80 35 -107 23z"/>
<path d="M2110 4274 c-49 -24 -67 -27 -165 -28 -90 -1 -118 -5 -156 -22 -137
-64 -219 -205 -206 -356 5 -56 3 -68 -9 -68 -28 0 -115 -51 -155 -91 -23 -23
-53 -66 -68 -98 -22 -49 -26 -69 -26 -153 0 -82 -3 -98 -16 -98 -31 0 -119
-52 -157 -94 -52 -57 -77 -106 -92 -184 -14 -70 -2 -159 30 -222 l18 -35 -37
-17 c-65 -31 -118 -85 -153 -156 -30 -61 -33 -74 -33 -162 0 -107 17 -158 75
-224 l33 -37 -162 -163 -163 -163 -47 14 c-29 9 -73 13 -121 11 -114 -6 -171
-41 -323 -198 -147 -150 -170 -193 -170 -323 0 -120 30 -170 201 -340 124
-124 143 -139 180 -144 52 -7 88 14 108 64 24 56 7 85 -127 218 -66 66 -127
132 -135 147 -8 15 -14 46 -14 69 0 41 5 47 125 168 l124 126 49 0 c42 0 55
-5 98 -42 27 -23 286 -279 576 -570 350 -351 529 -537 533 -556 16 -62 0 -88
-128 -215 -121 -119 -125 -122 -168 -122 -25 0 -56 7 -69 16 -14 9 -82 74
-153 143 -126 124 -128 126 -173 126 -39 0 -50 -5 -76 -34 -27 -30 -30 -39
-25 -79 5 -44 12 -53 153 -193 179 -176 212 -193 354 -187 124 5 158 25 316
182 152 153 175 190 182 309 4 63 1 88 -18 138 l-22 62 193 194 c145 144 203
196 229 203 21 6 123 7 262 3 l226 -6 202 -202 202 -203 -17 -52 c-24 -72 -17
-188 15 -256 33 -69 269 -306 333 -334 105 -47 224 -44 318 7 64 34 1189 1162
1219 1222 30 60 42 146 30 212 -18 94 -47 137 -179 271 -160 161 -202 183
-336 182 -59 0 -102 -6 -126 -16 l-36 -16 -161 162 -162 161 35 43 c56 72 78
142 73 242 -3 64 -10 98 -28 135 -34 71 -114 148 -179 172 l-54 20 -1 94 c-1
79 -5 103 -27 149 -35 74 -98 136 -176 172 l-65 31 7 48 c9 61 -10 150 -43
212 -34 63 -110 131 -173 155 l-50 18 -2 100 c-2 92 -5 104 -36 162 -63 115
-150 169 -296 183 -49 4 -232 36 -405 69 -216 43 -348 63 -420 66 -99 5 -108
3 -160 -22z m395 -224 c121 -23 228 -44 238 -48 14 -6 -5 -30 -107 -131 l-124
-124 -65 46 c-105 75 -227 225 -227 280 0 25 35 23 285 -23z m-517 -23 c14 -7
33 -35 46 -67 42 -104 163 -251 276 -336 43 -32 164 -94 184 -94 20 0 40 -64
33 -106 -8 -49 -41 -89 -88 -108 -82 -33 -87 -30 -371 252 -266 264 -287 291
-274 353 18 91 119 146 194 106z m1172 -103 c58 -49 75 -116 46 -172 -8 -15
-60 -72 -116 -127 -109 -107 -130 -137 -130 -184 0 -62 79 -115 142 -96 12 5
58 42 100 83 71 69 81 75 126 80 90 8 152 -48 152 -139 0 -57 -22 -89 -154
-218 -57 -57 -98 -106 -101 -122 -9 -39 18 -95 54 -113 60 -31 98 -17 181 69
65 67 96 85 145 85 89 0 156 -81 140 -167 -5 -28 -31 -61 -121 -153 -126 -129
-141 -158 -110 -218 20 -39 44 -52 96 -52 37 0 49 6 103 58 85 80 105 92 156
92 104 0 174 -109 127 -198 -8 -15 -71 -83 -140 -152 -137 -136 -155 -166
-136 -225 15 -46 44 -65 101 -65 40 0 53 6 93 42 l48 41 156 -156 157 -157
-457 -457 -458 -458 -160 160 -159 159 84 87 c81 82 85 89 85 131 0 49 -23 82
-68 99 -45 17 -82 0 -163 -77 -108 -103 -120 -106 -441 -102 -347 4 -306 21
-576 -246 l-212 -210 -460 459 -460 460 158 158 158 158 65 -21 c89 -31 202
-25 277 14 107 55 170 136 192 252 l12 62 48 6 c66 9 161 59 205 108 45 49 81
126 90 190 7 46 7 46 53 53 64 9 141 45 190 90 49 44 99 139 108 205 l6 48 47
7 c111 15 221 97 272 203 33 71 38 188 9 271 l-21 64 128 130 c166 168 192
187 254 187 37 0 55 -6 79 -26z m-1427 -340 c45 -23 404 -381 428 -426 24 -48
24 -79 -2 -129 -15 -30 -32 -46 -66 -61 -84 -37 -92 -32 -326 200 -115 114
-215 219 -223 234 -31 60 -6 139 58 178 40 24 88 26 131 4z m-265 -438 c15 -8
100 -88 189 -178 134 -135 162 -169 168 -200 10 -53 -23 -117 -74 -146 -82
-46 -115 -30 -290 142 -169 166 -191 195 -191 254 0 105 108 175 198 128z
m-170 -530 c47 -25 159 -149 170 -189 18 -64 -6 -118 -68 -156 -71 -43 -126
-23 -227 81 -101 105 -109 164 -34 240 34 33 45 38 85 38 26 0 59 -6 74 -14z
m3350 -900 c15 -8 78 -66 140 -129 107 -109 112 -116 112 -156 0 -23 -6 -54
-14 -69 -18 -33 -1102 -1115 -1133 -1131 -12 -6 -39 -11 -61 -11 -50 0 -90 29
-204 148 -91 94 -108 129 -93 189 8 34 1104 1138 1150 1159 39 17 70 17 103 0z"/>
<path d="M3367 1789 c-24 -14 -47 -62 -47 -98 0 -20 11 -42 29 -63 25 -28 36
-33 76 -33 40 0 51 5 76 33 63 71 20 172 -73 172 -24 0 -51 -5 -61 -11z"/>
<path d="M632 795 c-34 -29 -44 -63 -30 -112 10 -38 57 -73 98 -73 64 0 115
67 103 134 -8 40 -57 76 -103 76 -26 0 -48 -8 -68 -25z"/>
</g>
</svg>
