<?xml version="1.0" standalone="no"?>
<!DOCTYPE svg PUBLIC "-//W3C//DTD SVG 20010904//EN"
 "http://www.w3.org/TR/2001/REC-SVG-20010904/DTD/svg10.dtd">
<svg version="1.0" xmlns="http://www.w3.org/2000/svg"
 width="512.000000pt" height="512.000000pt" viewBox="0 0 512.000000 512.000000"
 preserveAspectRatio="xMidYMid meet">
<metadata>
Created by potrace 1.16, written by Peter Selinger 2001-2019
</metadata>
<g transform="translate(0.000000,512.000000) scale(0.100000,-0.100000)"
fill="#000000" stroke="none">
<path d="M548 5110 c-77 -23 -166 -110 -192 -187 -19 -56 -20 -154 -2 -205
l13 -37 -43 -22 c-56 -27 -118 -97 -138 -156 -20 -58 -21 -157 -2 -210 l14
-40 -33 -12 c-47 -17 -113 -84 -141 -144 -18 -40 -24 -69 -24 -127 0 -91 28
-158 90 -219 l41 -40 -22 -42 c-63 -123 -10 -312 105 -374 l36 -20 0 -429 0
-430 -122 -205 -123 -205 -3 -710 c-3 -819 -8 -772 87 -867 38 -38 72 -61 105
-72 59 -20 156 -21 208 -3 l37 13 22 -43 c27 -56 97 -118 156 -138 58 -20 157
-21 210 -2 l40 14 12 -33 c17 -47 84 -113 144 -141 40 -18 69 -24 127 -24 91
0 158 28 219 90 l40 41 42 -22 c123 -63 312 -10 374 105 l20 36 429 0 430 0
205 -122 205 -123 710 -3 c819 -3 772 -8 867 87 38 38 61 72 72 105 20 59 21
156 3 208 l-13 37 43 22 c56 27 118 97 138 156 20 58 21 157 2 210 l-14 40 33
12 c47 17 113 84 141 144 18 40 24 69 24 127 0 91 -28 158 -90 219 l-41 40 21
42 c28 53 36 134 21 196 -17 66 -72 148 -121 175 l-40 23 0 430 0 429 122 205
123 205 3 710 c3 819 8 772 -87 867 -38 38 -72 61 -105 72 -59 20 -156 21
-208 3 l-37 -13 -22 43 c-27 56 -97 118 -156 138 -58 20 -157 21 -210 2 l-40
-14 -12 33 c-17 47 -84 113 -144 141 -40 18 -69 24 -127 24 -91 0 -158 -28
-218 -89 l-40 -42 -41 22 c-122 63 -314 10 -376 -105 l-20 -36 -429 0 -430 0
-205 123 -205 122 -716 2 c-393 1 -727 -2 -742 -7z m1580 -282 c103 -62 202
-118 222 -125 26 -9 145 -12 463 -13 l427 0 0 -371 0 -372 -32 27 c-146 117
-203 146 -288 146 -118 0 -234 -85 -266 -195 -11 -39 -15 -77 -11 -112 l6 -53
-158 0 c-239 0 -196 26 -591 -364 -624 -616 -574 -571 -621 -571 -72 0 -121
80 -86 141 7 12 66 87 132 168 66 81 123 158 127 173 10 36 -15 91 -47 103
-16 6 -223 10 -538 10 -483 0 -514 1 -543 19 -30 18 -64 74 -64 106 0 23 24
67 50 90 21 19 40 20 300 25 278 5 278 5 304 29 35 33 36 98 4 129 -22 20 -34
21 -333 24 -274 3 -314 5 -342 21 -84 46 -82 171 3 212 26 12 84 15 329 15
357 0 365 2 365 96 0 24 -8 43 -25 59 l-24 25 -221 0 c-239 0 -258 3 -299 56
-43 55 -16 145 52 177 30 15 76 17 336 17 l302 0 24 25 c17 16 25 35 25 59 0
90 -17 96 -291 96 l-221 0 -39 39 c-33 33 -39 45 -39 81 0 36 6 48 39 81 l39
39 672 0 672 0 186 -112z m1903 95 c56 -33 59 -52 59 -378 0 -357 2 -365 96
-365 24 0 43 8 59 25 l25 24 0 221 c0 239 3 258 56 299 55 43 145 16 177 -52
15 -30 17 -76 17 -336 l0 -302 25 -24 c16 -17 35 -25 59 -25 90 0 96 17 96
291 l0 221 39 39 c33 33 45 39 81 39 36 0 48 -6 81 -39 l39 -39 0 -672 0 -672
-112 -186 c-62 -103 -118 -202 -125 -222 -9 -26 -12 -145 -13 -462 l0 -428
-371 0 c-352 0 -371 1 -358 18 7 9 35 44 62 76 66 81 89 130 95 202 13 170
-109 297 -285 297 l-73 -1 0 157 c0 238 22 200 -334 561 -657 666 -601 605
-601 649 0 74 78 121 141 87 16 -8 94 -69 174 -135 126 -105 150 -120 182
-121 50 0 66 8 83 41 13 23 15 110 15 541 0 484 1 515 19 544 18 30 74 64 106
64 23 0 67 -24 90 -50 19 -21 20 -40 25 -300 5 -278 5 -278 29 -304 33 -35 98
-36 129 -3 20 21 21 33 24 332 3 273 5 314 21 342 32 59 109 80 168 46z m-848
-1748 l397 -404 0 -218 -1 -218 -404 -398 -403 -397 -219 0 -218 1 -397 404
-398 403 0 219 1 218 404 398 404 397 218 0 218 0 398 -405z m-2033 38 c-11
-16 -45 -59 -74 -97 -63 -79 -80 -131 -74 -218 7 -103 58 -181 151 -230 34
-18 59 -23 125 -23 l82 0 0 -156 c0 -237 -27 -194 369 -594 610 -617 566 -569
566 -616 0 -34 -6 -46 -33 -70 -38 -34 -74 -37 -117 -10 -16 10 -93 71 -170
135 -76 63 -151 118 -166 121 -36 8 -87 -19 -99 -51 -6 -15 -10 -235 -10 -536
0 -495 -1 -512 -20 -543 -20 -32 -72 -65 -105 -65 -23 0 -67 24 -90 50 -19 21
-20 40 -25 300 -5 278 -5 278 -29 304 -33 35 -98 36 -129 3 -20 -21 -21 -33
-24 -332 -3 -283 -5 -313 -22 -341 -37 -61 -109 -81 -167 -47 -56 33 -59 52
-59 378 0 357 -2 365 -96 365 -24 0 -43 -8 -59 -25 l-25 -24 0 -221 c0 -239
-3 -258 -56 -299 -55 -43 -145 -16 -177 52 -15 30 -17 76 -17 336 l0 302 -25
24 c-38 39 -120 32 -141 -12 -5 -10 -11 -123 -14 -251 l-5 -234 -37 -34 c-30
-27 -46 -34 -79 -34 -35 0 -48 6 -80 39 l-39 39 0 672 0 672 112 186 c62 103
118 202 125 222 9 26 12 145 13 463 l0 427 371 0 370 0 -21 -27z m2763 -953
c29 -32 34 -68 15 -103 -6 -12 -66 -89 -132 -170 -67 -82 -124 -160 -128 -173
-4 -14 -2 -39 4 -55 21 -59 17 -59 580 -59 484 0 515 -1 544 -19 30 -18 64
-74 64 -106 0 -23 -24 -67 -50 -90 -21 -19 -40 -20 -300 -25 -278 -5 -278 -5
-304 -29 -35 -33 -36 -98 -3 -129 21 -20 33 -21 332 -24 274 -3 314 -5 342
-21 84 -46 82 -171 -3 -212 -26 -12 -84 -15 -329 -15 -357 0 -365 -2 -365 -96
0 -24 8 -43 25 -59 l24 -25 221 0 c239 0 258 -3 299 -56 43 -55 16 -145 -52
-177 -30 -15 -76 -17 -336 -17 l-302 0 -24 -25 c-17 -16 -25 -35 -25 -59 0
-90 17 -96 291 -96 l221 0 39 -39 c33 -33 39 -45 39 -81 0 -36 -6 -48 -39 -81
l-39 -39 -672 0 -672 0 -186 112 c-103 62 -202 118 -222 125 -26 9 -145 12
-462 13 l-428 0 0 371 c0 352 1 371 18 358 9 -7 44 -36 77 -63 108 -88 202
-113 310 -82 45 14 69 29 111 70 63 64 90 136 81 223 l-6 53 158 0 c121 0 169
4 206 17 44 14 102 68 500 461 247 244 459 448 470 453 33 14 78 1 108 -31z"/>
</g>
</svg>
