<svg xmlns="http://www.w3.org/2000/svg" width="375" viewBox="0 0 375 375" height="375" version="1.0"><defs><clipPath id="a"><path d="M 68 96 L 310 96 L 310 290 L 68 290 Z M 68 96"/></clipPath><clipPath id="b"><path d="M 62.820312 133.492188 L 269.476562 78.890625 L 312.390625 241.316406 L 105.734375 295.917969 Z M 62.820312 133.492188"/></clipPath><clipPath id="c"><path d="M 62.820312 133.492188 L 269.476562 78.890625 L 312.390625 241.316406 L 105.734375 295.917969 Z M 62.820312 133.492188"/></clipPath><clipPath id="d"><path d="M 67 95 L 311 95 L 311 291 L 67 291 Z M 67 95"/></clipPath><clipPath id="e"><path d="M 62.820312 133.492188 L 269.476562 78.890625 L 312.390625 241.316406 L 105.734375 295.917969 Z M 62.820312 133.492188"/></clipPath><clipPath id="f"><path d="M 62.820312 133.492188 L 269.476562 78.890625 L 312.390625 241.316406 L 105.734375 295.917969 Z M 62.820312 133.492188"/></clipPath><clipPath id="g"><path d="M 105 235 L 311 235 L 311 292 L 105 292 Z M 105 235"/></clipPath><clipPath id="h"><path d="M 62.820312 133.492188 L 269.476562 78.890625 L 312.390625 241.316406 L 105.734375 295.917969 Z M 62.820312 133.492188"/></clipPath><clipPath id="i"><path d="M 62.820312 133.492188 L 269.476562 78.890625 L 312.390625 241.316406 L 105.734375 295.917969 Z M 62.820312 133.492188"/></clipPath><clipPath id="j"><path d="M 104 234 L 312 234 L 312 293 L 104 293 Z M 104 234"/></clipPath><clipPath id="k"><path d="M 62.820312 133.492188 L 269.476562 78.890625 L 312.390625 241.316406 L 105.734375 295.917969 Z M 62.820312 133.492188"/></clipPath><clipPath id="l"><path d="M 62.820312 133.492188 L 269.476562 78.890625 L 312.390625 241.316406 L 105.734375 295.917969 Z M 62.820312 133.492188"/></clipPath><clipPath id="m"><path d="M 206 226 L 305 226 L 305 262 L 206 262 Z M 206 226"/></clipPath><clipPath id="n"><path d="M 62.820312 133.492188 L 269.476562 78.890625 L 312.390625 241.316406 L 105.734375 295.917969 Z M 62.820312 133.492188"/></clipPath><clipPath id="o"><path d="M 62.820312 133.492188 L 269.476562 78.890625 L 312.390625 241.316406 L 105.734375 295.917969 Z M 62.820312 133.492188"/></clipPath><clipPath id="p"><path d="M 205 225 L 306 225 L 306 263 L 205 263 Z M 205 225"/></clipPath><clipPath id="q"><path d="M 62.820312 133.492188 L 269.476562 78.890625 L 312.390625 241.316406 L 105.734375 295.917969 Z M 62.820312 133.492188"/></clipPath><clipPath id="r"><path d="M 62.820312 133.492188 L 269.476562 78.890625 L 312.390625 241.316406 L 105.734375 295.917969 Z M 62.820312 133.492188"/></clipPath><clipPath id="s"><path d="M 106 252 L 207 252 L 207 286 L 106 286 Z M 106 252"/></clipPath><clipPath id="t"><path d="M 62.820312 133.492188 L 269.476562 78.890625 L 312.390625 241.316406 L 105.734375 295.917969 Z M 62.820312 133.492188"/></clipPath><clipPath id="u"><path d="M 62.820312 133.492188 L 269.476562 78.890625 L 312.390625 241.316406 L 105.734375 295.917969 Z M 62.820312 133.492188"/></clipPath><clipPath id="v"><path d="M 105 251 L 208 251 L 208 287 L 105 287 Z M 105 251"/></clipPath><clipPath id="w"><path d="M 62.820312 133.492188 L 269.476562 78.890625 L 312.390625 241.316406 L 105.734375 295.917969 Z M 62.820312 133.492188"/></clipPath><clipPath id="x"><path d="M 62.820312 133.492188 L 269.476562 78.890625 L 312.390625 241.316406 L 105.734375 295.917969 Z M 62.820312 133.492188"/></clipPath><clipPath id="y"><path d="M 167 89 L 295 89 L 295 260 L 167 260 Z M 167 89"/></clipPath><clipPath id="z"><path d="M 62.820312 133.492188 L 269.476562 78.890625 L 312.390625 241.316406 L 105.734375 295.917969 Z M 62.820312 133.492188"/></clipPath><clipPath id="A"><path d="M 62.820312 133.492188 L 269.476562 78.890625 L 312.390625 241.316406 L 105.734375 295.917969 Z M 62.820312 133.492188"/></clipPath><clipPath id="B"><path d="M 166 88 L 296 88 L 296 261 L 166 261 Z M 166 88"/></clipPath><clipPath id="C"><path d="M 62.820312 133.492188 L 269.476562 78.890625 L 312.390625 241.316406 L 105.734375 295.917969 Z M 62.820312 133.492188"/></clipPath><clipPath id="D"><path d="M 62.820312 133.492188 L 269.476562 78.890625 L 312.390625 241.316406 L 105.734375 295.917969 Z M 62.820312 133.492188"/></clipPath><clipPath id="E"><path d="M 77 112 L 207 112 L 207 277 L 77 277 Z M 77 112"/></clipPath><clipPath id="F"><path d="M 62.820312 133.492188 L 269.476562 78.890625 L 312.390625 241.316406 L 105.734375 295.917969 Z M 62.820312 133.492188"/></clipPath><clipPath id="G"><path d="M 62.820312 133.492188 L 269.476562 78.890625 L 312.390625 241.316406 L 105.734375 295.917969 Z M 62.820312 133.492188"/></clipPath><clipPath id="H"><path d="M 76 111 L 208 111 L 208 278 L 76 278 Z M 76 111"/></clipPath><clipPath id="I"><path d="M 62.820312 133.492188 L 269.476562 78.890625 L 312.390625 241.316406 L 105.734375 295.917969 Z M 62.820312 133.492188"/></clipPath><clipPath id="J"><path d="M 62.820312 133.492188 L 269.476562 78.890625 L 312.390625 241.316406 L 105.734375 295.917969 Z M 62.820312 133.492188"/></clipPath><clipPath id="K"><path d="M 197 259 L 219 259 L 219 268 L 197 268 Z M 197 259"/></clipPath><clipPath id="L"><path d="M 62.820312 133.492188 L 269.476562 78.890625 L 312.390625 241.316406 L 105.734375 295.917969 Z M 62.820312 133.492188"/></clipPath><clipPath id="M"><path d="M 62.820312 133.492188 L 269.476562 78.890625 L 312.390625 241.316406 L 105.734375 295.917969 Z M 62.820312 133.492188"/></clipPath><clipPath id="N"><path d="M 196 258 L 220 258 L 220 269 L 196 269 Z M 196 258"/></clipPath><clipPath id="O"><path d="M 62.820312 133.492188 L 269.476562 78.890625 L 312.390625 241.316406 L 105.734375 295.917969 Z M 62.820312 133.492188"/></clipPath><clipPath id="P"><path d="M 62.820312 133.492188 L 269.476562 78.890625 L 312.390625 241.316406 L 105.734375 295.917969 Z M 62.820312 133.492188"/></clipPath><clipPath id="Q"><path d="M 199 258 L 216 258 L 216 266 L 199 266 Z M 199 258"/></clipPath><clipPath id="R"><path d="M 62.820312 133.492188 L 269.476562 78.890625 L 312.390625 241.316406 L 105.734375 295.917969 Z M 62.820312 133.492188"/></clipPath><clipPath id="S"><path d="M 62.820312 133.492188 L 269.476562 78.890625 L 312.390625 241.316406 L 105.734375 295.917969 Z M 62.820312 133.492188"/></clipPath><clipPath id="T"><path d="M 198 257 L 217 257 L 217 267 L 198 267 Z M 198 257"/></clipPath><clipPath id="U"><path d="M 62.820312 133.492188 L 269.476562 78.890625 L 312.390625 241.316406 L 105.734375 295.917969 Z M 62.820312 133.492188"/></clipPath><clipPath id="V"><path d="M 62.820312 133.492188 L 269.476562 78.890625 L 312.390625 241.316406 L 105.734375 295.917969 Z M 62.820312 133.492188"/></clipPath><clipPath id="W"><path d="M 71 137 L 114 137 L 114 285 L 71 285 Z M 71 137"/></clipPath><clipPath id="X"><path d="M 62.820312 133.492188 L 269.476562 78.890625 L 312.390625 241.316406 L 105.734375 295.917969 Z M 62.820312 133.492188"/></clipPath><clipPath id="Y"><path d="M 62.820312 133.492188 L 269.476562 78.890625 L 312.390625 241.316406 L 105.734375 295.917969 Z M 62.820312 133.492188"/></clipPath><clipPath id="Z"><path d="M 70 136 L 115 136 L 115 286 L 70 286 Z M 70 136"/></clipPath><clipPath id="aa"><path d="M 62.820312 133.492188 L 269.476562 78.890625 L 312.390625 241.316406 L 105.734375 295.917969 Z M 62.820312 133.492188"/></clipPath><clipPath id="ab"><path d="M 62.820312 133.492188 L 269.476562 78.890625 L 312.390625 241.316406 L 105.734375 295.917969 Z M 62.820312 133.492188"/></clipPath><clipPath id="ac"><path d="M 258 89 L 305 89 L 305 232 L 258 232 Z M 258 89"/></clipPath><clipPath id="ad"><path d="M 62.820312 133.492188 L 269.476562 78.890625 L 312.390625 241.316406 L 105.734375 295.917969 Z M 62.820312 133.492188"/></clipPath><clipPath id="ae"><path d="M 62.820312 133.492188 L 269.476562 78.890625 L 312.390625 241.316406 L 105.734375 295.917969 Z M 62.820312 133.492188"/></clipPath><clipPath id="af"><path d="M 257 88 L 306 88 L 306 233 L 257 233 Z M 257 88"/></clipPath><clipPath id="ag"><path d="M 62.820312 133.492188 L 269.476562 78.890625 L 312.390625 241.316406 L 105.734375 295.917969 Z M 62.820312 133.492188"/></clipPath><clipPath id="ah"><path d="M 62.820312 133.492188 L 269.476562 78.890625 L 312.390625 241.316406 L 105.734375 295.917969 Z M 62.820312 133.492188"/></clipPath><clipPath id="ai"><path d="M 215 241 L 288 241 L 288 261 L 215 261 Z M 215 241"/></clipPath><clipPath id="aj"><path d="M 62.820312 133.492188 L 269.476562 78.890625 L 312.390625 241.316406 L 105.734375 295.917969 Z M 62.820312 133.492188"/></clipPath><clipPath id="ak"><path d="M 62.820312 133.492188 L 269.476562 78.890625 L 312.390625 241.316406 L 105.734375 295.917969 Z M 62.820312 133.492188"/></clipPath><clipPath id="al"><path d="M 214 240 L 289 240 L 289 262 L 214 262 Z M 214 240"/></clipPath><clipPath id="am"><path d="M 62.820312 133.492188 L 269.476562 78.890625 L 312.390625 241.316406 L 105.734375 295.917969 Z M 62.820312 133.492188"/></clipPath><clipPath id="an"><path d="M 62.820312 133.492188 L 269.476562 78.890625 L 312.390625 241.316406 L 105.734375 295.917969 Z M 62.820312 133.492188"/></clipPath><clipPath id="ao"><path d="M 130 262 L 201 262 L 201 284 L 130 284 Z M 130 262"/></clipPath><clipPath id="ap"><path d="M 62.820312 133.492188 L 269.476562 78.890625 L 312.390625 241.316406 L 105.734375 295.917969 Z M 62.820312 133.492188"/></clipPath><clipPath id="aq"><path d="M 62.820312 133.492188 L 269.476562 78.890625 L 312.390625 241.316406 L 105.734375 295.917969 Z M 62.820312 133.492188"/></clipPath><clipPath id="ar"><path d="M 129 261 L 201 261 L 201 285 L 129 285 Z M 129 261"/></clipPath><clipPath id="as"><path d="M 62.820312 133.492188 L 269.476562 78.890625 L 312.390625 241.316406 L 105.734375 295.917969 Z M 62.820312 133.492188"/></clipPath><clipPath id="at"><path d="M 62.820312 133.492188 L 269.476562 78.890625 L 312.390625 241.316406 L 105.734375 295.917969 Z M 62.820312 133.492188"/></clipPath><clipPath id="au"><path d="M 109 135 L 151 135 L 151 183 L 109 183 Z M 109 135"/></clipPath><clipPath id="av"><path d="M 107.144531 138.792969 L 150.492188 135.1875 L 154.222656 180.03125 L 110.871094 183.640625 Z M 107.144531 138.792969"/></clipPath><clipPath id="aw"><path d="M 107.144531 138.792969 L 150.492188 135.1875 L 154.222656 180.03125 L 110.871094 183.640625 Z M 107.144531 138.792969"/></clipPath><clipPath id="ax"><path d="M 195 109 L 253 109 L 253 164 L 195 164 Z M 195 109"/></clipPath><clipPath id="ay"><path d="M 182.652344 129.148438 L 233.449219 98.648438 L 259.316406 141.726562 L 208.519531 172.230469 Z M 182.652344 129.148438"/></clipPath><clipPath id="az"><path d="M 182.652344 129.148438 L 233.449219 98.648438 L 259.316406 141.726562 L 208.519531 172.230469 Z M 182.652344 129.148438"/></clipPath><clipPath id="aA"><path d="M 103 185 L 180 185 L 180 214 L 103 214 Z M 103 185"/></clipPath><clipPath id="aB"><path d="M 99.675781 206.265625 L 180.890625 184.808594 L 182.996094 192.785156 L 101.785156 214.238281 Z M 99.675781 206.265625"/></clipPath><clipPath id="aC"><path d="M 99.675781 206.265625 L 180.890625 184.808594 L 182.996094 192.785156 L 101.785156 214.238281 Z M 99.675781 206.265625"/></clipPath><clipPath id="aD"><path d="M 107 202 L 184 202 L 184 231 L 107 231 Z M 107 202"/></clipPath><clipPath id="aE"><path d="M 104.136719 223.152344 L 185.351562 201.695312 L 187.460938 209.671875 L 106.246094 231.125 Z M 104.136719 223.152344"/></clipPath><clipPath id="aF"><path d="M 104.136719 223.152344 L 185.351562 201.695312 L 187.460938 209.671875 L 106.246094 231.125 Z M 104.136719 223.152344"/></clipPath><clipPath id="aG"><path d="M 113 222 L 189 222 L 189 250 L 113 250 Z M 113 222"/></clipPath><clipPath id="aH"><path d="M 109.34375 242.859375 L 190.558594 221.402344 L 192.667969 229.378906 L 111.453125 250.835938 Z M 109.34375 242.859375"/></clipPath><clipPath id="aI"><path d="M 109.34375 242.859375 L 190.558594 221.402344 L 192.667969 229.378906 L 111.453125 250.835938 Z M 109.34375 242.859375"/></clipPath><clipPath id="aJ"><path d="M 189 162 L 274 162 L 274 189 L 189 189 Z M 189 162"/></clipPath><clipPath id="aK"><path d="M 187.410156 181.707031 L 272.972656 159.101562 L 274.890625 166.351562 L 189.324219 188.957031 Z M 187.410156 181.707031"/></clipPath><clipPath id="aL"><path d="M 187.410156 181.707031 L 272.972656 159.101562 L 274.890625 166.351562 L 189.324219 188.957031 Z M 187.410156 181.707031"/></clipPath><clipPath id="aM"><path d="M 193 180 L 279 180 L 279 207 L 193 207 Z M 193 180"/></clipPath><clipPath id="aN"><path d="M 192.210938 199.882812 L 277.773438 177.277344 L 279.691406 184.527344 L 194.125 207.132812 Z M 192.210938 199.882812"/></clipPath><clipPath id="aO"><path d="M 192.210938 199.882812 L 277.773438 177.277344 L 279.691406 184.527344 L 194.125 207.132812 Z M 192.210938 199.882812"/></clipPath><clipPath id="aP"><path d="M 199 200 L 284 200 L 284 227 L 199 227 Z M 199 200"/></clipPath><clipPath id="aQ"><path d="M 197.417969 219.589844 L 282.980469 196.984375 L 284.898438 204.234375 L 199.332031 226.839844 Z M 197.417969 219.589844"/></clipPath><clipPath id="aR"><path d="M 197.417969 219.589844 L 282.980469 196.984375 L 284.898438 204.234375 L 199.332031 226.839844 Z M 197.417969 219.589844"/></clipPath></defs><path fill="#F7CEAD" d="M 187.375 344.980469 C 145.296875 344.980469 105.671875 328.601562 75.941406 298.808594 C 46.144531 269.074219 29.765625 229.453125 29.765625 187.375 C 29.765625 145.296875 46.144531 105.671875 75.941406 75.941406 C 105.671875 46.144531 145.296875 29.765625 187.375 29.765625 C 229.453125 29.765625 269.074219 46.144531 298.808594 75.941406 C 328.601562 105.734375 344.980469 145.296875 344.980469 187.375 C 344.980469 229.453125 328.601562 269.074219 298.808594 298.808594 C 269.074219 328.601562 229.453125 344.980469 187.375 344.980469 Z M 187.375 39.214844 C 147.816406 39.214844 110.585938 54.648438 82.617188 82.617188 C 54.648438 110.585938 39.214844 147.816406 39.214844 187.375 C 39.214844 226.933594 54.648438 264.160156 82.617188 292.128906 C 110.585938 320.097656 147.816406 335.53125 187.375 335.53125 C 226.933594 335.53125 264.160156 320.097656 292.128906 292.128906 C 320.097656 264.160156 335.53125 226.933594 335.53125 187.375 C 335.53125 147.816406 320.097656 110.585938 292.128906 82.617188 C 264.160156 54.648438 226.933594 39.214844 187.375 39.214844 Z M 187.375 39.214844"/><path fill="#08AFB7" d="M 187.359375 363.78125 C 140.257812 363.78125 95.90625 345.445312 62.621094 312.09375 C 29.269531 278.8125 10.9375 234.460938 10.9375 187.359375 C 10.9375 140.257812 29.269531 95.90625 62.621094 62.621094 C 95.90625 29.269531 140.257812 10.9375 187.359375 10.9375 C 234.460938 10.9375 278.8125 29.269531 312.09375 62.621094 C 345.445312 95.976562 363.78125 140.257812 363.78125 187.359375 C 363.78125 234.460938 345.445312 278.8125 312.09375 312.09375 C 278.8125 345.445312 234.460938 363.78125 187.359375 363.78125 Z M 187.359375 21.515625 C 143.078125 21.515625 101.40625 38.789062 70.097656 70.097656 C 38.789062 101.40625 21.515625 143.078125 21.515625 187.359375 C 21.515625 231.640625 38.789062 273.3125 70.097656 304.621094 C 101.40625 335.929688 143.078125 353.203125 187.359375 353.203125 C 231.640625 353.203125 273.3125 335.929688 304.621094 304.621094 C 335.929688 273.3125 353.203125 231.640625 353.203125 187.359375 C 353.203125 143.078125 335.929688 101.40625 304.621094 70.097656 C 273.3125 38.789062 231.640625 21.515625 187.359375 21.515625 Z M 187.359375 21.515625"/><g clip-path="url(#a)"><g clip-path="url(#b)"><g clip-path="url(#c)"><path fill="#F7CEAD" d="M 309.675781 235.519531 L 105.402344 289.613281 L 68.683594 150.949219 L 272.949219 96.851562 L 309.675781 235.519531"/></g></g></g><g clip-path="url(#d)"><g clip-path="url(#e)"><g clip-path="url(#f)"><path fill="#FF885F" d="M 309.675781 235.519531 L 309.429688 234.597656 L 106.082031 288.449219 L 69.851562 151.625 L 272.265625 98.019531 L 308.75 235.765625 L 309.675781 235.519531 L 309.429688 234.597656 L 309.675781 235.519531 L 310.597656 235.273438 L 273.871094 96.609375 C 273.734375 96.097656 273.210938 95.796875 272.703125 95.929688 L 68.4375 150.027344 C 67.929688 150.160156 67.625 150.683594 67.757812 151.191406 L 104.480469 289.859375 C 104.542969 290.105469 104.703125 290.3125 104.921875 290.441406 C 105.144531 290.566406 105.398438 290.601562 105.648438 290.535156 L 309.917969 236.441406 C 310.164062 236.375 310.371094 236.21875 310.5 235.996094 C 310.628906 235.777344 310.664062 235.519531 310.597656 235.273438 L 309.675781 235.519531"/></g></g></g><g clip-path="url(#g)"><g clip-path="url(#h)"><g clip-path="url(#i)"><path fill="#F7CEAD" d="M 310.269531 237.800781 L 106.007812 291.890625 L 105.402344 289.613281 L 309.675781 235.519531 L 310.269531 237.800781"/></g></g></g><g clip-path="url(#j)"><g clip-path="url(#k)"><g clip-path="url(#l)"><path fill="#FF885F" d="M 310.269531 237.800781 L 310.027344 236.875 L 106.6875 290.726562 L 106.570312 290.292969 L 308.992188 236.6875 L 309.34375 238.042969 L 310.269531 237.800781 L 310.027344 236.875 L 310.269531 237.800781 L 311.195312 237.558594 L 310.597656 235.273438 C 310.535156 235.03125 310.375 234.824219 310.15625 234.691406 C 309.933594 234.566406 309.675781 234.53125 309.429688 234.597656 L 105.160156 288.691406 C 104.914062 288.757812 104.703125 288.917969 104.578125 289.136719 C 104.449219 289.351562 104.414062 289.617188 104.480469 289.859375 L 105.082031 292.136719 C 105.21875 292.644531 105.742188 292.949219 106.25 292.816406 L 310.515625 238.722656 C 311.023438 238.585938 311.328125 238.066406 311.195312 237.558594 L 310.269531 237.800781"/></g></g></g><g clip-path="url(#m)"><g clip-path="url(#n)"><g clip-path="url(#o)"><path fill="#F7CEAD" d="M 206.4375 259.085938 C 206.4375 259.085938 214.527344 258.882812 215.15625 261.269531 C 215.15625 261.269531 218.886719 249.710938 253.710938 245.15625 C 253.710938 245.15625 295.886719 245.605469 304.738281 231.675781 L 294.5625 226.335938 C 294.5625 226.335938 288.289062 237.445312 252.839844 238.339844 C 252.839844 238.339844 216.660156 237.734375 206.4375 259.085938"/></g></g></g><g clip-path="url(#p)"><g clip-path="url(#q)"><g clip-path="url(#r)"><path fill="#FF885F" d="M 206.4375 259.085938 L 206.457031 260.039062 L 206.539062 260.039062 C 206.957031 260.03125 208.9375 260.019531 210.824219 260.277344 C 211.761719 260.40625 212.679688 260.605469 213.320312 260.867188 C 213.644531 260.996094 213.890625 261.140625 214.035156 261.261719 C 214.183594 261.390625 214.21875 261.472656 214.230469 261.515625 C 214.339844 261.921875 214.707031 262.214844 215.128906 262.226562 C 215.554688 262.238281 215.9375 261.964844 216.066406 261.5625 L 215.515625 261.386719 L 216.0625 261.574219 L 216.066406 261.5625 L 215.515625 261.386719 L 216.0625 261.574219 L 216.066406 261.558594 C 216.136719 261.382812 216.875 259.546875 219.96875 257.105469 C 223.058594 254.664062 228.515625 251.621094 238.003906 249.113281 C 242.375 247.960938 247.597656 246.917969 253.835938 246.105469 L 253.710938 245.15625 L 253.703125 246.109375 C 253.71875 246.113281 258.425781 246.160156 265.039062 245.710938 C 271.652344 245.257812 280.160156 244.304688 287.816406 242.285156 C 291.644531 241.273438 295.261719 239.992188 298.332031 238.351562 C 301.402344 236.710938 303.941406 234.703125 305.542969 232.1875 C 305.6875 231.960938 305.730469 231.683594 305.660156 231.425781 C 305.589844 231.171875 305.417969 230.953125 305.179688 230.828125 L 295.007812 225.492188 C 294.550781 225.25 293.984375 225.417969 293.730469 225.867188 L 294.257812 226.164062 L 293.734375 225.863281 L 293.730469 225.867188 L 294.257812 226.164062 L 293.734375 225.863281 L 293.730469 225.871094 C 293.652344 225.988281 292.851562 227.246094 290.480469 228.898438 C 288.109375 230.550781 284.160156 232.601562 277.804688 234.28125 C 271.832031 235.863281 263.726562 237.109375 252.820312 237.382812 L 252.839844 238.339844 L 252.859375 237.382812 C 252.808594 237.382812 242.902344 237.214844 231.886719 240.121094 C 226.835938 241.457031 221.546875 243.441406 216.867188 246.414062 C 212.1875 249.390625 208.109375 253.371094 205.570312 258.671875 C 205.429688 258.972656 205.449219 259.324219 205.632812 259.601562 C 205.8125 259.882812 206.125 260.046875 206.457031 260.039062 L 206.4375 259.085938 L 207.296875 259.496094 C 209.652344 254.582031 213.4375 250.863281 217.890625 248.027344 C 222.34375 245.195312 227.457031 243.265625 232.375 241.96875 C 237.738281 240.550781 242.863281 239.882812 246.640625 239.566406 C 248.53125 239.410156 250.082031 239.339844 251.160156 239.3125 C 251.699219 239.296875 252.117188 239.292969 252.398438 239.292969 C 252.542969 239.289062 252.648438 239.292969 252.71875 239.292969 C 252.792969 239.292969 252.824219 239.292969 252.824219 239.292969 L 252.863281 239.292969 C 263.894531 239.015625 272.144531 237.753906 278.292969 236.128906 C 285.152344 234.320312 289.394531 232.054688 291.9375 230.203125 C 294.484375 228.355469 295.332031 226.917969 295.394531 226.804688 L 294.5625 226.335938 L 294.117188 227.183594 L 304.289062 232.519531 L 304.738281 231.675781 L 303.925781 231.164062 C 302.582031 233.289062 300.320312 235.125 297.429688 236.667969 C 294.550781 238.210938 291.058594 239.457031 287.328125 240.4375 C 279.867188 242.414062 271.449219 243.359375 264.910156 243.804688 C 261.640625 244.03125 258.835938 244.128906 256.859375 244.171875 C 255.867188 244.191406 255.082031 244.203125 254.546875 244.203125 C 254.277344 244.203125 254.070312 244.203125 253.933594 244.203125 C 253.792969 244.203125 253.726562 244.203125 253.722656 244.203125 L 253.589844 244.210938 C 247.277344 245.035156 241.976562 246.089844 237.515625 247.269531 C 227.367188 249.949219 221.582031 253.273438 218.3125 255.988281 C 215.039062 258.703125 214.292969 260.816406 214.246094 260.980469 L 215.15625 261.269531 L 216.082031 261.027344 C 215.9375 260.476562 215.585938 260.050781 215.195312 259.742188 C 214.503906 259.207031 213.644531 258.910156 212.714844 258.683594 C 211.328125 258.351562 209.769531 258.222656 208.546875 258.164062 C 207.320312 258.109375 206.429688 258.128906 206.414062 258.128906 L 206.4375 259.085938 L 207.296875 259.496094 L 206.4375 259.085938"/></g></g></g><g clip-path="url(#s)"><g clip-path="url(#t)"><g clip-path="url(#u)"><path fill="#F7CEAD" d="M 206.4375 259.085938 C 206.4375 259.085938 200.484375 262.167969 201.222656 264.953125 C 201.222656 264.953125 176.035156 260.210938 159.03125 270.257812 C 159.03125 270.257812 121.144531 291.882812 106.761719 284.109375 L 113.652344 274.28125 C 113.652344 274.28125 125.285156 279.804688 155.96875 263.191406 C 155.96875 263.191406 188.113281 243.054688 206.4375 259.085938"/></g></g></g><g clip-path="url(#v)"><g clip-path="url(#w)"><g clip-path="url(#x)"><path fill="#FF885F" d="M 206.4375 259.085938 L 205.996094 258.238281 C 205.964844 258.253906 204.441406 259.042969 202.953125 260.230469 C 202.214844 260.828125 201.472656 261.523438 200.933594 262.332031 C 200.660156 262.738281 200.441406 263.175781 200.3125 263.65625 C 200.183594 264.136719 200.160156 264.671875 200.296875 265.195312 L 201.222656 264.953125 L 201.402344 264.015625 C 201.371094 264.007812 197.257812 263.234375 191.222656 262.96875 C 185.1875 262.703125 177.226562 262.941406 169.476562 264.984375 C 165.699219 265.984375 161.972656 267.414062 158.546875 269.4375 L 159.03125 270.257812 L 158.558594 269.429688 C 158.558594 269.429688 158.496094 269.46875 158.371094 269.535156 C 157.429688 270.066406 153.035156 272.5 147.078125 275.277344 C 141.117188 278.050781 133.585938 281.167969 126.410156 283.0625 C 122.597656 284.070312 118.878906 284.734375 115.578125 284.832031 C 112.273438 284.925781 109.390625 284.449219 107.21875 283.269531 L 106.761719 284.109375 L 107.546875 284.65625 L 114.433594 274.828125 L 113.652344 274.28125 L 113.238281 275.144531 C 113.453125 275.25 118.929688 277.726562 131.734375 274.339844 C 138.074219 272.664062 146.210938 269.558594 156.421875 264.03125 L 156.476562 264 C 156.476562 264 156.503906 263.980469 156.570312 263.941406 C 157.546875 263.339844 166 258.285156 176.289062 255.570312 C 181.207031 254.269531 186.535156 253.507812 191.644531 253.984375 C 196.761719 254.46875 201.644531 256.167969 205.804688 259.800781 L 206.4375 259.085938 L 205.996094 258.238281 L 206.4375 259.085938 L 207.066406 258.367188 C 202.5625 254.425781 197.246094 252.589844 191.828125 252.085938 C 186.40625 251.582031 180.867188 252.386719 175.804688 253.722656 C 164.5 256.714844 155.507812 262.355469 155.457031 262.382812 L 155.96875 263.191406 L 155.511719 262.351562 C 145.410156 267.820312 137.410156 270.867188 131.25 272.492188 C 125.019531 274.140625 120.667969 274.339844 117.902344 274.148438 C 116.519531 274.050781 115.53125 273.855469 114.90625 273.691406 C 114.59375 273.609375 114.367188 273.535156 114.230469 273.484375 C 114.160156 273.460938 114.113281 273.441406 114.085938 273.429688 L 114.058594 273.417969 L 114.054688 273.414062 L 113.800781 273.972656 L 114.0625 273.417969 L 114.054688 273.414062 L 113.800781 273.972656 L 114.0625 273.417969 C 113.640625 273.21875 113.136719 273.351562 112.867188 273.734375 L 105.980469 283.5625 C 105.820312 283.785156 105.769531 284.0625 105.832031 284.328125 C 105.894531 284.59375 106.066406 284.820312 106.304688 284.949219 C 108.914062 286.355469 112.121094 286.835938 115.628906 286.738281 C 119.144531 286.636719 122.988281 285.941406 126.898438 284.910156 C 134.742188 282.835938 142.875 279.382812 149.066406 276.449219 C 155.253906 273.515625 159.492188 271.097656 159.503906 271.089844 L 159.519531 271.082031 C 162.757812 269.167969 166.324219 267.792969 169.964844 266.832031 C 177.433594 264.855469 185.226562 264.613281 191.136719 264.875 C 194.09375 265.007812 196.578125 265.261719 198.320312 265.480469 C 199.191406 265.59375 199.875 265.695312 200.34375 265.769531 C 200.574219 265.804688 200.753906 265.835938 200.875 265.859375 L 201.046875 265.890625 C 201.367188 265.953125 201.699219 265.84375 201.921875 265.601562 C 202.148438 265.363281 202.230469 265.023438 202.148438 264.707031 C 202.105469 264.535156 202.105469 264.359375 202.164062 264.140625 C 202.257812 263.757812 202.566406 263.25 203.027344 262.753906 C 203.710938 262.003906 204.6875 261.273438 205.480469 260.757812 C 205.878906 260.5 206.234375 260.289062 206.484375 260.148438 C 206.609375 260.074219 206.710938 260.019531 206.777344 259.984375 L 206.851562 259.945312 L 206.875 259.929688 C 207.15625 259.785156 207.34375 259.511719 207.382812 259.199219 C 207.425781 258.886719 207.304688 258.574219 207.066406 258.367188 L 206.4375 259.085938"/></g></g></g><g clip-path="url(#y)"><g clip-path="url(#z)"><g clip-path="url(#A)"><path fill="#F7CEAD" d="M 167.835938 113.339844 L 206.4375 259.085938 C 206.4375 259.085938 217.292969 238.800781 252.554688 238.902344 C 291.554688 239.011719 294.574219 226.363281 294.574219 226.363281 L 258.296875 89.386719 C 258.296875 89.386719 240.652344 101.683594 211.984375 101.675781 C 183.316406 101.675781 175.328125 107.453125 167.835938 113.339844"/></g></g></g><g clip-path="url(#B)"><g clip-path="url(#C)"><g clip-path="url(#D)"><path fill="#FF885F" d="M 167.835938 113.339844 L 166.910156 113.582031 L 205.511719 259.328125 C 205.613281 259.710938 205.933594 259.984375 206.324219 260.03125 C 206.714844 260.078125 207.09375 259.878906 207.277344 259.535156 L 207.011719 259.394531 L 207.277344 259.535156 L 207.011719 259.394531 L 207.277344 259.535156 C 207.289062 259.511719 208.949219 256.453125 213.046875 252.757812 C 217.144531 249.0625 223.675781 244.726562 233.472656 242.136719 C 238.8125 240.726562 245.125 239.832031 252.550781 239.855469 C 264.523438 239.890625 273.15625 238.730469 279.398438 237.082031 C 286.496094 235.207031 290.507812 232.691406 292.757812 230.574219 C 295.007812 228.457031 295.472656 226.742188 295.507812 226.585938 C 295.542969 226.433594 295.539062 226.273438 295.5 226.121094 L 259.222656 89.144531 C 259.140625 88.839844 258.921875 88.597656 258.625 88.492188 C 258.332031 88.382812 258.003906 88.425781 257.75 88.605469 L 257.734375 88.617188 C 257.324219 88.898438 249.605469 94.105469 236.394531 97.59375 C 229.621094 99.382812 221.40625 100.722656 211.984375 100.722656 C 199.730469 100.722656 191.199219 101.765625 184.820312 103.453125 C 176.214844 105.71875 171.550781 109.195312 167.246094 112.589844 C 166.945312 112.824219 166.8125 113.214844 166.910156 113.582031 L 167.835938 113.339844 L 168.425781 114.089844 C 172.722656 110.714844 177 107.5 185.308594 105.296875 C 191.464844 103.671875 199.839844 102.628906 211.980469 102.628906 C 221.585938 102.632812 229.96875 101.265625 236.882812 99.4375 C 250.804688 95.761719 258.777344 90.214844 258.84375 90.167969 L 258.296875 89.386719 L 257.375 89.632812 L 293.652344 226.609375 L 294.574219 226.363281 L 293.644531 226.144531 L 294.019531 226.234375 L 293.648438 226.132812 L 293.644531 226.144531 L 294.019531 226.234375 L 293.648438 226.132812 C 293.636719 226.160156 293.269531 227.53125 291.253906 229.359375 C 289.242188 231.1875 285.558594 233.476562 278.910156 235.234375 C 272.875 236.828125 264.402344 237.980469 252.558594 237.945312 C 244.976562 237.925781 238.492188 238.835938 232.984375 240.292969 C 222.796875 242.980469 215.953125 247.535156 211.664062 251.429688 C 207.371094 255.328125 205.632812 258.558594 205.589844 258.632812 L 206.4375 259.085938 L 207.359375 258.839844 L 168.757812 113.09375 L 167.835938 113.339844 L 168.425781 114.089844 L 167.835938 113.339844"/></g></g></g><g clip-path="url(#E)"><g clip-path="url(#F)"><g clip-path="url(#G)"><path fill="#F7CEAD" d="M 167.835938 113.339844 L 206.4375 259.085938 C 206.4375 259.085938 191.144531 243.84375 157.308594 263.234375 C 123.46875 282.621094 113.652344 274.28125 113.652344 274.28125 L 77.375 137.296875 C 77.375 137.296875 98.789062 139.257812 123.699219 125.054688 C 148.605469 110.863281 158.414062 111.929688 167.835938 113.339844"/></g></g></g><g clip-path="url(#H)"><g clip-path="url(#I)"><g clip-path="url(#J)"><path fill="#FF885F" d="M 167.835938 113.339844 L 166.910156 113.582031 L 205.511719 259.328125 L 206.4375 259.085938 L 207.109375 258.40625 C 207.035156 258.332031 204.550781 255.878906 199.445312 254.140625 C 194.347656 252.402344 186.636719 251.390625 176.210938 254.148438 C 170.558594 255.640625 164.109375 258.234375 156.832031 262.40625 C 145.949219 268.644531 137.59375 271.976562 131.296875 273.640625 C 124.707031 275.382812 120.382812 275.292969 117.75 274.8125 C 116.429688 274.566406 115.535156 274.230469 114.980469 273.964844 C 114.703125 273.828125 114.511719 273.714844 114.394531 273.640625 L 114.28125 273.558594 L 114.261719 273.546875 L 114.015625 273.855469 L 114.273438 273.554688 L 114.261719 273.546875 L 114.015625 273.855469 L 114.273438 273.554688 L 113.652344 274.28125 L 114.574219 274.035156 L 78.300781 137.050781 L 77.375 137.296875 L 77.285156 138.246094 C 77.363281 138.253906 86.992188 139.125 100.855469 135.464844 C 107.792969 133.632812 115.789062 130.664062 124.175781 125.882812 C 134.757812 119.851562 142.5625 116.613281 148.726562 114.984375 C 157.003906 112.804688 162.300781 113.484375 167.691406 114.285156 L 167.835938 113.339844 L 166.910156 113.582031 L 167.835938 113.339844 L 167.976562 112.398438 C 162.566406 111.582031 156.808594 110.867188 148.238281 113.140625 C 141.855469 114.828125 133.902344 118.140625 123.226562 124.226562 C 115 128.914062 107.164062 131.824219 100.371094 133.617188 C 93.578125 135.414062 87.832031 136.09375 83.792969 136.324219 C 81.773438 136.441406 80.179688 136.445312 79.097656 136.421875 C 78.558594 136.410156 78.140625 136.386719 77.863281 136.375 C 77.730469 136.367188 77.625 136.359375 77.558594 136.351562 L 77.480469 136.347656 L 77.460938 136.34375 C 77.148438 136.316406 76.847656 136.441406 76.644531 136.679688 C 76.441406 136.917969 76.371094 137.238281 76.449219 137.539062 L 112.726562 274.527344 C 112.777344 274.714844 112.882812 274.882812 113.03125 275.007812 C 113.144531 275.109375 114.4375 276.148438 117.402344 276.6875 C 120.363281 277.230469 124.984375 277.28125 131.785156 275.484375 C 138.289062 273.765625 146.789062 270.363281 157.78125 264.0625 C 164.933594 259.964844 171.226562 257.4375 176.695312 255.996094 C 186.789062 253.332031 194.066406 254.328125 198.828125 255.949219 C 201.207031 256.761719 202.957031 257.730469 204.109375 258.492188 C 204.679688 258.871094 205.101562 259.199219 205.375 259.425781 C 205.515625 259.539062 205.617188 259.628906 205.675781 259.683594 L 205.746094 259.75 L 205.757812 259.761719 L 205.8125 259.707031 L 205.757812 259.761719 L 205.8125 259.707031 L 205.757812 259.761719 C 206.066406 260.066406 206.535156 260.128906 206.910156 259.910156 C 207.289062 259.695312 207.46875 259.257812 207.359375 258.839844 L 168.757812 113.09375 C 168.660156 112.726562 168.355469 112.449219 167.976562 112.398438 L 167.835938 113.339844"/></g></g></g><g clip-path="url(#K)"><g clip-path="url(#L)"><g clip-path="url(#M)"><path fill="#F7CEAD" d="M 201.046875 264.28125 C 201.046875 264.28125 208.980469 265.695312 214.816406 260.640625 C 214.816406 260.640625 217.378906 260.015625 218.296875 259.714844 C 218.296875 259.714844 216.183594 264.726562 209.394531 266.53125 C 209.394531 266.53125 202.542969 268.453125 197.273438 265.28125 L 201.046875 264.28125"/></g></g></g><g clip-path="url(#N)"><g clip-path="url(#O)"><g clip-path="url(#P)"><path fill="#FF885F" d="M 201.046875 264.28125 L 200.878906 265.21875 C 200.957031 265.230469 204.59375 265.882812 208.890625 264.753906 C 211.042969 264.183594 213.363281 263.160156 215.441406 261.363281 L 214.816406 260.640625 L 215.042969 261.566406 C 215.042969 261.566406 216.078125 261.3125 217.082031 261.050781 C 217.660156 260.898438 218.214844 260.742188 218.589844 260.621094 L 218.296875 259.714844 L 217.414062 259.34375 C 217.382812 259.417969 216.855469 260.585938 215.570312 261.925781 C 214.28125 263.265625 212.25 264.785156 209.148438 265.609375 L 209.109375 265.621094 C 208.867188 265.683594 207.167969 266.109375 204.960938 266.152344 C 202.75 266.195312 200.054688 265.847656 197.765625 264.464844 L 197.273438 265.28125 L 197.515625 266.207031 L 201.292969 265.203125 L 201.046875 264.28125 L 200.878906 265.21875 L 201.046875 264.28125 L 200.800781 263.359375 L 197.023438 264.359375 C 196.65625 264.457031 196.378906 264.769531 196.324219 265.148438 C 196.269531 265.53125 196.449219 265.902344 196.777344 266.101562 C 199.515625 267.746094 202.570312 268.101562 204.996094 268.058594 C 207.425781 268.011719 209.253906 267.554688 209.597656 267.46875 L 209.640625 267.457031 C 213.226562 266.503906 215.617188 264.679688 217.089844 263.09375 C 218.566406 261.503906 219.144531 260.15625 219.175781 260.082031 C 219.320312 259.738281 219.253906 259.339844 218.996094 259.066406 C 218.742188 258.789062 218.355469 258.691406 218 258.804688 C 217.703125 258.902344 217.152344 259.054688 216.59375 259.203125 C 216.105469 259.332031 215.601562 259.460938 215.222656 259.554688 C 214.84375 259.652344 214.589844 259.710938 214.589844 259.714844 C 214.441406 259.746094 214.304688 259.820312 214.1875 259.917969 C 212.375 261.492188 210.335938 262.398438 208.402344 262.90625 C 206.476562 263.417969 204.660156 263.527344 203.335938 263.503906 C 202.671875 263.496094 202.128906 263.453125 201.761719 263.414062 C 201.578125 263.390625 201.4375 263.375 201.34375 263.359375 L 201.238281 263.34375 L 201.21875 263.34375 L 201.214844 263.339844 L 201.167969 263.601562 L 201.214844 263.339844 L 201.167969 263.601562 L 201.214844 263.339844 C 201.078125 263.316406 200.9375 263.324219 200.800781 263.359375 L 201.046875 264.28125"/></g></g></g><g clip-path="url(#Q)"><g clip-path="url(#R)"><g clip-path="url(#S)"><path fill="#F7CEAD" d="M 215.582031 259.71875 C 215.996094 261.292969 212.816406 263.503906 208.476562 264.648438 C 204.136719 265.804688 200.28125 265.457031 199.859375 263.875 C 199.441406 262.296875 202.625 260.089844 206.96875 258.945312 C 211.308594 257.796875 215.160156 258.140625 215.582031 259.71875"/></g></g></g><g clip-path="url(#T)"><g clip-path="url(#U)"><g clip-path="url(#V)"><path fill="#FF885F" d="M 215.582031 259.71875 L 214.65625 259.960938 C 214.664062 259.984375 214.667969 260.011719 214.648438 260.09375 C 214.617188 260.234375 214.46875 260.515625 214.152344 260.832031 C 213.683594 261.316406 212.882812 261.875 211.859375 262.382812 C 210.835938 262.894531 209.597656 263.367188 208.230469 263.726562 L 208.183594 263.738281 C 206.117188 264.285156 204.167969 264.46875 202.769531 264.335938 C 202.074219 264.273438 201.519531 264.128906 201.1875 263.964844 C 201.019531 263.882812 200.914062 263.804688 200.859375 263.746094 C 200.800781 263.683594 200.789062 263.652344 200.785156 263.628906 C 200.777344 263.605469 200.773438 263.578125 200.792969 263.496094 C 200.824219 263.359375 200.972656 263.078125 201.289062 262.757812 C 201.757812 262.277344 202.558594 261.714844 203.578125 261.207031 C 204.601562 260.695312 205.84375 260.226562 207.207031 259.867188 L 206.96875 258.96875 L 206.984375 259.898438 C 207.023438 259.898438 207.121094 259.890625 207.207031 259.867188 L 206.96875 258.96875 L 206.984375 259.898438 C 207.109375 259.898438 207.234375 259.867188 207.351562 259.816406 L 206.984375 258.980469 L 207.21875 259.863281 C 207.320312 259.835938 207.351562 259.816406 207.351562 259.816406 L 206.984375 258.980469 L 207.21875 259.863281 C 209.292969 259.316406 211.253906 259.128906 212.660156 259.257812 C 213.359375 259.320312 213.917969 259.464844 214.25 259.628906 C 214.417969 259.707031 214.527344 259.792969 214.582031 259.847656 C 214.640625 259.910156 214.648438 259.9375 214.660156 259.964844 L 214.65625 259.960938 L 215.582031 259.71875 L 216.507812 259.472656 C 216.410156 259.101562 216.207031 258.773438 215.957031 258.515625 C 215.511719 258.066406 214.949219 257.804688 214.316406 257.621094 C 213.367188 257.347656 212.222656 257.265625 210.933594 257.332031 C 209.644531 257.398438 208.210938 257.628906 206.730469 258.019531 C 206.628906 258.046875 206.59375 258.070312 206.585938 258.066406 L 206.96875 258.945312 L 206.957031 257.988281 C 206.910156 257.988281 206.8125 257.996094 206.71875 258.019531 C 204.457031 258.621094 202.496094 259.484375 201.082031 260.464844 C 200.375 260.957031 199.800781 261.472656 199.394531 262.058594 C 199.191406 262.355469 199.03125 262.667969 198.941406 263.015625 C 198.847656 263.363281 198.835938 263.75 198.933594 264.117188 C 199.03125 264.488281 199.230469 264.816406 199.484375 265.070312 C 199.921875 265.519531 200.484375 265.785156 201.113281 265.972656 C 202.0625 266.242188 203.199219 266.328125 204.488281 266.265625 C 205.769531 266.199219 207.195312 265.972656 208.671875 265.582031 L 208.71875 265.570312 C 210.980469 264.972656 212.945312 264.105469 214.355469 263.128906 C 215.0625 262.632812 215.636719 262.117188 216.042969 261.53125 C 216.25 261.238281 216.410156 260.921875 216.5 260.574219 C 216.589844 260.226562 216.605469 259.84375 216.507812 259.472656 L 215.582031 259.71875"/></g></g></g><g clip-path="url(#W)"><g clip-path="url(#X)"><g clip-path="url(#Y)"><path fill="#F7CEAD" d="M 77.375 137.296875 L 71.144531 151.136719 L 106.761719 284.109375 L 113.652344 274.28125 L 77.375 137.296875"/></g></g></g><g clip-path="url(#Z)"><g clip-path="url(#aa)"><g clip-path="url(#ab)"><path fill="#FF885F" d="M 77.375 137.296875 L 76.5 136.90625 L 70.273438 150.742188 C 70.183594 150.945312 70.164062 151.167969 70.222656 151.382812 L 105.839844 284.355469 C 105.933594 284.714844 106.230469 284.988281 106.597656 285.050781 C 106.964844 285.113281 107.332031 284.960938 107.546875 284.65625 L 114.433594 274.828125 C 114.597656 274.601562 114.648438 274.304688 114.574219 274.035156 L 78.300781 137.050781 C 78.195312 136.660156 77.855469 136.375 77.453125 136.34375 C 77.050781 136.3125 76.667969 136.535156 76.5 136.90625 L 77.375 137.296875 L 76.449219 137.539062 L 112.613281 274.097656 L 107.15625 281.882812 L 72.160156 151.214844 L 78.246094 137.6875 L 77.375 137.296875 L 76.449219 137.539062 L 77.375 137.296875"/></g></g></g><g clip-path="url(#ac)"><g clip-path="url(#ad)"><g clip-path="url(#ae)"><path fill="#F7CEAD" d="M 258.296875 89.386719 L 269.84375 98.515625 L 304.738281 231.675781 L 294.574219 226.363281 L 258.296875 89.386719"/></g></g></g><g clip-path="url(#af)"><g clip-path="url(#ag)"><g clip-path="url(#ah)"><path fill="#FF885F" d="M 258.296875 89.386719 L 257.703125 90.136719 L 268.996094 99.066406 L 303.261719 229.828125 L 295.394531 225.714844 L 259.222656 89.144531 L 258.296875 89.386719 L 257.703125 90.136719 L 258.296875 89.386719 L 257.375 89.632812 L 293.652344 226.609375 C 293.71875 226.871094 293.890625 227.085938 294.132812 227.210938 L 304.292969 232.523438 C 304.625 232.695312 305.035156 232.65625 305.332031 232.421875 C 305.628906 232.1875 305.757812 231.796875 305.664062 231.433594 L 270.765625 98.273438 C 270.714844 98.070312 270.597656 97.894531 270.433594 97.765625 L 258.890625 88.640625 C 258.566406 88.382812 258.117188 88.363281 257.773438 88.585938 C 257.429688 88.816406 257.269531 89.234375 257.375 89.632812 L 258.296875 89.386719"/></g></g></g><g clip-path="url(#ai)"><g clip-path="url(#aj)"><g clip-path="url(#ak)"><path fill="#F7CEAD" d="M 215.757812 260.390625 C 215.757812 260.390625 218.058594 253.414062 238.980469 247.875 C 259.910156 242.335938 267.550781 246.667969 287.644531 241.34375 L 215.757812 260.390625"/></g></g></g><g clip-path="url(#al)"><g clip-path="url(#am)"><g clip-path="url(#an)"><path fill="#FF885F" d="M 215.757812 260.390625 L 216.667969 260.6875 L 216.285156 260.558594 L 216.660156 260.699219 L 216.667969 260.6875 L 216.285156 260.558594 L 216.660156 260.699219 C 216.671875 260.675781 217.273438 259.054688 220.398438 256.746094 C 223.523438 254.4375 229.175781 251.457031 239.226562 248.796875 L 239.242188 248.792969 L 239.273438 248.78125 C 249.621094 246.050781 256.628906 245.757812 263.648438 245.480469 C 270.667969 245.207031 277.703125 244.957031 287.800781 242.289062 L 287.867188 242.269531 L 287.644531 241.34375 L 287.398438 240.417969 L 215.511719 259.464844 L 215.757812 260.390625 L 216.667969 260.6875 L 215.757812 260.390625 L 216.003906 261.3125 L 287.886719 242.265625 C 288.394531 242.132812 288.695312 241.617188 288.570312 241.109375 C 288.441406 240.597656 287.929688 240.292969 287.417969 240.414062 L 287.3125 240.441406 C 277.398438 243.058594 270.601562 243.300781 263.574219 243.574219 C 256.554688 243.847656 249.304688 244.15625 238.789062 246.9375 L 238.71875 246.957031 L 238.980469 247.875 L 238.738281 246.953125 C 228.191406 249.746094 222.265625 252.914062 218.945312 255.453125 C 215.621094 257.984375 214.90625 259.902344 214.851562 260.089844 C 214.738281 260.425781 214.820312 260.789062 215.058594 261.042969 C 215.304688 261.296875 215.664062 261.402344 216.003906 261.3125 L 215.757812 260.390625"/></g></g></g><g clip-path="url(#ao)"><g clip-path="url(#ap)"><g clip-path="url(#aq)"><path fill="#F7CEAD" d="M 200.039062 264.550781 C 200.039062 264.550781 191.734375 260.117188 171.382812 265.5 C 151.03125 270.890625 149.667969 277.882812 130.128906 283.054688 L 200.039062 264.550781"/></g></g></g><g clip-path="url(#ar)"><g clip-path="url(#as)"><g clip-path="url(#at)"><path fill="#FF885F" d="M 200.039062 264.550781 L 200.492188 263.710938 C 200.277344 263.585938 191.683594 259.140625 171.179688 264.566406 L 171.097656 264.589844 L 171.382812 265.5 L 171.136719 264.578125 C 160.871094 267.292969 155.304688 270.460938 149.972656 273.53125 C 144.640625 276.601562 139.558594 279.566406 129.886719 282.132812 C 129.375 282.269531 129.070312 282.789062 129.207031 283.300781 C 129.339844 283.808594 129.863281 284.113281 130.375 283.976562 L 200.28125 265.476562 C 200.664062 265.375 200.941406 265.050781 200.988281 264.664062 C 201.035156 264.273438 200.835938 263.894531 200.492188 263.710938 L 200.039062 264.550781 L 199.792969 263.628906 L 129.886719 282.132812 C 129.375 282.269531 129.070312 282.789062 129.207031 283.300781 C 129.339844 283.808594 129.863281 284.113281 130.375 283.976562 C 140.242188 281.371094 145.605469 278.253906 150.925781 275.183594 C 156.253906 272.121094 161.542969 269.097656 171.625 266.421875 L 171.667969 266.414062 C 181.730469 263.753906 188.773438 263.535156 193.261719 263.957031 C 195.503906 264.171875 197.113281 264.542969 198.148438 264.855469 C 198.664062 265.011719 199.039062 265.15625 199.277344 265.253906 C 199.394531 265.304688 199.480469 265.34375 199.53125 265.367188 L 199.582031 265.390625 L 199.589844 265.394531 L 199.757812 265.082031 L 199.589844 265.394531 L 199.757812 265.082031 L 199.589844 265.394531 L 200.039062 264.550781 L 199.792969 263.628906 L 200.039062 264.550781"/></g></g></g><g clip-path="url(#au)"><g clip-path="url(#av)"><g clip-path="url(#aw)"><path fill="#08AFB7" d="M 148.84375 135.460938 L 147.007812 136.949219 C 137.402344 144.71875 128.171875 159.914062 123.9375 172 C 123.042969 170.949219 122.769531 170.597656 121.886719 169.421875 C 118.351562 165.417969 114.015625 162.085938 111.992188 160.894531 L 109.105469 162.382812 L 109.214844 162.550781 C 111.464844 164.625 115.5 169.308594 121.871094 179.835938 C 122.246094 180.28125 122.640625 180.71875 123.085938 181.117188 C 124.246094 182.164062 125.363281 182.3125 126.09375 182.253906 C 128.175781 182.078125 129.269531 180.34375 129.957031 178.359375 C 133.746094 157.734375 145.507812 142.777344 150.699219 137.558594 Z M 148.84375 135.460938"/></g></g></g><g clip-path="url(#ax)"><g clip-path="url(#ay)"><g clip-path="url(#az)"><path fill="#FF885F" d="M 239.089844 109.707031 C 238.605469 109.855469 237.859375 110.039062 236.960938 110.375 C 236.089844 110.742188 234.972656 111.15625 233.8125 111.804688 C 232.617188 112.417969 231.332031 113.214844 229.976562 114.160156 C 228.640625 115.117188 227.25 116.238281 225.882812 117.519531 C 224.519531 118.796875 223.148438 120.222656 221.863281 121.769531 C 221.210938 122.539062 220.558594 123.324219 219.957031 124.152344 C 219.902344 124.226562 219.84375 124.304688 219.789062 124.382812 C 219.316406 124.214844 218.847656 124.054688 218.375 123.910156 C 217.445312 123.636719 216.507812 123.421875 215.597656 123.183594 C 214.6875 122.941406 213.78125 122.746094 212.898438 122.542969 C 212.019531 122.332031 211.152344 122.152344 210.304688 122.046875 C 208.609375 121.792969 207 121.601562 205.511719 121.457031 C 202.53125 121.160156 200.089844 121.1875 198.324219 121.242188 C 196.578125 121.277344 195.554688 121.402344 195.554688 121.402344 L 195.082031 123.359375 C 195.082031 123.359375 195.9375 123.925781 197.480469 124.730469 C 198.25 125.148438 199.1875 125.636719 200.277344 126.144531 C 201.359375 126.636719 202.582031 127.1875 203.914062 127.792969 C 205.230469 128.378906 206.65625 128.984375 208.171875 129.566406 C 209.695312 130.148438 211.222656 130.878906 212.859375 131.496094 C 213.445312 131.71875 214.035156 131.953125 214.632812 132.179688 C 213.632812 133.871094 212.664062 135.535156 211.75 137.214844 C 210.773438 138.960938 209.847656 140.699219 208.949219 142.4375 C 208.078125 144.171875 207.246094 145.90625 206.542969 147.589844 C 205.820312 149.265625 205.226562 150.914062 204.742188 152.457031 C 204.46875 153.203125 204.316406 153.992188 204.121094 154.699219 C 203.945312 155.425781 203.757812 156.070312 203.652344 156.757812 C 203.433594 158.09375 203.246094 159.273438 203.191406 160.175781 C 203.117188 161.996094 203.136719 163.050781 203.136719 163.050781 L 204.917969 163.507812 C 204.917969 163.507812 205.457031 162.59375 206.285156 160.96875 C 206.679688 160.144531 207.296875 159.308594 207.859375 158.289062 C 208.488281 157.289062 209.222656 156.132812 210.03125 154.914062 C 210.449219 154.304688 210.894531 153.675781 211.320312 153.015625 C 211.785156 152.367188 212.261719 151.695312 212.753906 151.003906 C 213.222656 150.308594 213.773438 149.609375 214.292969 148.878906 C 214.804688 148.148438 215.347656 147.402344 215.917969 146.640625 C 217 145.109375 218.171875 143.5 219.296875 141.828125 C 220.441406 140.175781 221.546875 138.441406 222.644531 136.761719 C 222.871094 136.410156 223.097656 136.054688 223.324219 135.703125 C 224.996094 136.398438 226.679688 137.058594 228.34375 137.6875 C 230.128906 138.359375 231.824219 139 233.515625 139.597656 C 235.160156 140.222656 236.8125 140.761719 238.308594 141.335938 C 239.058594 141.621094 239.808594 141.878906 240.527344 142.132812 C 241.238281 142.402344 241.921875 142.664062 242.574219 142.914062 C 243.234375 143.167969 243.871094 143.398438 244.484375 143.617188 C 245.066406 143.867188 245.628906 144.097656 246.164062 144.308594 C 247.226562 144.746094 248.210938 145.070312 248.933594 145.449219 C 250.445312 146.128906 251.382812 146.488281 251.382812 146.488281 L 252.695312 144.957031 C 252.695312 144.957031 252.105469 144.136719 250.941406 142.757812 C 250.367188 142.054688 249.617188 141.277344 248.707031 140.4375 C 248.257812 140.007812 247.769531 139.554688 247.246094 139.089844 C 246.714844 138.648438 246.148438 138.195312 245.546875 137.734375 C 244.359375 136.773438 243.015625 135.847656 241.570312 134.910156 C 240.136719 133.925781 238.574219 133.074219 236.957031 132.128906 C 235.339844 131.257812 233.632812 130.34375 231.925781 129.527344 C 230.753906 128.957031 229.550781 128.40625 228.355469 127.859375 C 228.539062 127.574219 228.722656 127.285156 228.902344 127.003906 C 229.398438 126.246094 229.890625 125.5 230.371094 124.769531 C 230.855469 124.050781 231.332031 123.34375 231.792969 122.65625 C 232.265625 121.980469 232.738281 121.332031 233.171875 120.679688 C 233.636719 120.054688 234.082031 119.453125 234.503906 118.851562 C 235.382812 117.707031 236.179688 116.617188 236.945312 115.699219 C 237.675781 114.730469 238.394531 113.964844 238.945312 113.257812 C 239.53125 112.578125 239.988281 112.042969 240.300781 111.675781 C 240.617188 111.304688 240.78125 111.089844 240.78125 111.089844 L 239.847656 109.511719 C 239.847656 109.511719 239.578125 109.566406 239.089844 109.707031 Z M 239.089844 109.707031"/></g></g></g><g clip-path="url(#aA)"><g clip-path="url(#aB)"><g clip-path="url(#aC)"><path fill="#08AFB7" d="M 177.769531 185.914062 C 160.835938 190.21875 144.914062 196.878906 128.738281 203.125 C 124.699219 204.6875 104.238281 209.953125 103.53125 212.519531 C 103.316406 213.304688 104.351562 213.625 104.871094 213.148438 C 106.855469 211.332031 117.148438 209.65625 120.429688 208.804688 C 126.023438 207.359375 131.632812 204.75 136.90625 202.492188 C 150.253906 196.785156 164.710938 192.925781 178.347656 187.890625 C 179.636719 187.417969 179.125 185.570312 177.769531 185.914062 Z M 177.769531 185.914062"/></g></g></g><g clip-path="url(#aD)"><g clip-path="url(#aE)"><g clip-path="url(#aF)"><path fill="#08AFB7" d="M 182.230469 202.800781 C 165.296875 207.105469 149.378906 213.765625 133.199219 220.011719 C 129.160156 221.574219 108.699219 226.839844 107.992188 229.40625 C 107.777344 230.191406 108.8125 230.511719 109.332031 230.035156 C 111.316406 228.21875 121.609375 226.542969 124.890625 225.691406 C 130.484375 224.246094 136.09375 221.636719 141.367188 219.378906 C 154.714844 213.671875 169.171875 209.8125 182.808594 204.777344 C 184.097656 204.304688 183.585938 202.457031 182.230469 202.800781 Z M 182.230469 202.800781"/></g></g></g><g clip-path="url(#aG)"><g clip-path="url(#aH)"><g clip-path="url(#aI)"><path fill="#08AFB7" d="M 187.4375 222.507812 C 170.503906 226.8125 154.585938 233.472656 138.40625 239.722656 C 134.367188 241.28125 113.90625 246.546875 113.199219 249.117188 C 112.984375 249.902344 114.019531 250.222656 114.539062 249.742188 C 116.523438 247.929688 126.816406 246.25 130.097656 245.398438 C 135.691406 243.953125 141.300781 241.34375 146.574219 239.085938 C 159.921875 233.382812 174.378906 229.519531 188.015625 224.484375 C 189.304688 224.011719 188.792969 222.164062 187.4375 222.507812 Z M 187.4375 222.507812"/></g></g></g><g clip-path="url(#aJ)"><g clip-path="url(#aK)"><g clip-path="url(#aL)"><path fill="#FF885F" d="M 192.980469 180.703125 C 193.300781 180.460938 193.566406 180.082031 194.003906 180.0625 C 194.394531 179.992188 194.78125 179.910156 195.183594 179.921875 C 195.21875 179.9375 195.292969 179.96875 195.328125 179.988281 C 195.757812 180.035156 196.195312 180.089844 196.601562 180.253906 C 197.117188 180.535156 197.605469 180.878906 197.988281 181.332031 C 198.222656 181.605469 198.457031 181.878906 198.71875 182.128906 C 199.019531 181.902344 199.273438 181.625 199.539062 181.363281 C 199.625 181.25 199.757812 181.207031 199.894531 181.179688 C 200.488281 180.503906 201.0625 179.777344 201.832031 179.296875 C 201.855469 179.265625 201.902344 179.203125 201.925781 179.171875 C 201.976562 179.144531 202.078125 179.09375 202.128906 179.066406 C 202.226562 179.058594 202.320312 179.054688 202.417969 179.046875 C 202.65625 179.09375 202.878906 178.980469 203.109375 178.945312 C 203.269531 178.933594 203.433594 178.960938 203.597656 178.972656 C 203.898438 178.996094 204.1875 179.109375 204.492188 179.109375 C 204.972656 179.21875 205.339844 179.558594 205.734375 179.839844 C 206.195312 180.300781 206.453125 180.910156 206.824219 181.445312 C 206.945312 181.625 207.046875 181.847656 207.261719 181.9375 C 207.453125 181.914062 207.582031 181.75 207.761719 181.695312 C 208.039062 181.613281 208.226562 181.363281 208.488281 181.25 C 208.6875 180.992188 208.953125 180.808594 209.183594 180.582031 C 209.449219 180.457031 209.671875 180.265625 209.828125 180.015625 C 209.960938 179.972656 210.109375 179.941406 210.210938 179.835938 C 211.328125 178.628906 212.414062 177.363281 213.769531 176.417969 C 214.0625 176.207031 214.398438 176.0625 214.714844 175.882812 C 215.378906 175.726562 216.089844 175.589844 216.757812 175.820312 C 217.667969 175.949219 218.542969 176.332031 219.265625 176.90625 C 219.390625 177.003906 219.535156 177.070312 219.683594 177.125 C 219.851562 177.058594 220.027344 177.011719 220.203125 176.957031 C 220.410156 176.722656 220.710938 176.609375 220.9375 176.394531 C 221.203125 176.398438 221.351562 176.125 221.542969 175.976562 C 221.683594 175.867188 221.8125 175.734375 222.003906 175.722656 C 222.632812 175.109375 223.316406 174.542969 224.070312 174.085938 C 224.230469 174 224.34375 173.804688 224.542969 173.800781 C 224.816406 173.765625 225.09375 173.746094 225.371094 173.742188 C 225.695312 173.695312 226.019531 173.789062 226.34375 173.820312 C 226.644531 173.933594 226.964844 174 227.265625 174.113281 C 227.472656 174.230469 227.667969 174.355469 227.878906 174.457031 C 228.285156 174.78125 228.617188 175.1875 229.015625 175.519531 C 229.46875 175.320312 229.949219 175.152344 230.285156 174.761719 C 230.359375 174.777344 230.453125 174.90625 230.523438 174.824219 C 231.039062 174.320312 231.589844 173.859375 232.132812 173.386719 C 232.878906 172.667969 233.707031 172.03125 234.570312 171.457031 C 234.613281 171.441406 234.703125 171.40625 234.746094 171.386719 C 234.855469 171.285156 234.953125 171.144531 235.117188 171.125 C 235.710938 171.019531 236.316406 170.960938 236.921875 171.011719 C 237.738281 171.015625 238.515625 171.324219 239.300781 171.523438 C 239.917969 171.636719 240.511719 171.320312 241.027344 171.011719 C 241.09375 170.964844 241.167969 170.917969 241.238281 170.871094 C 241.316406 170.808594 241.394531 170.746094 241.472656 170.679688 C 241.519531 170.703125 241.609375 170.746094 241.65625 170.765625 C 242.589844 170.023438 243.5 169.25 244.378906 168.429688 C 244.84375 168.050781 245.304688 167.667969 245.765625 167.28125 C 246.699219 166.617188 247.65625 165.894531 248.800781 165.671875 C 249.191406 165.617188 249.585938 165.605469 249.980469 165.617188 C 251.304688 165.734375 252.550781 166.261719 253.789062 166.722656 C 254.097656 166.84375 254.410156 166.988281 254.746094 166.964844 C 255.027344 166.945312 255.308594 166.902344 255.585938 166.832031 C 256.210938 166.53125 256.832031 166.214844 257.488281 165.976562 C 257.691406 165.769531 257.960938 165.664062 258.203125 165.519531 C 258.335938 165.40625 258.480469 165.316406 258.621094 165.21875 C 258.6875 165.214844 258.757812 165.210938 258.828125 165.207031 C 259.378906 164.839844 259.972656 164.554688 260.558594 164.253906 C 260.796875 164.144531 261.03125 164.007812 261.300781 163.988281 C 261.789062 163.734375 262.355469 163.636719 262.890625 163.519531 C 263.121094 163.453125 263.359375 163.496094 263.597656 163.496094 C 263.953125 163.441406 264.300781 163.542969 264.65625 163.5625 C 265.476562 163.601562 266.273438 163.875 267.097656 163.828125 C 268.003906 163.945312 268.90625 163.726562 269.796875 163.589844 C 269.875 163.570312 269.953125 163.546875 270.035156 163.523438 C 270.652344 163.390625 271.253906 163.203125 271.871094 163.085938 C 272.40625 162.921875 272.964844 162.855469 273.496094 162.679688 C 273.574219 162.664062 273.65625 162.667969 273.738281 162.691406 C 273.792969 162.816406 273.808594 162.960938 273.890625 163.078125 C 273.78125 163.335938 273.886719 163.601562 273.886719 163.867188 C 273.847656 164.050781 273.703125 164.179688 273.597656 164.320312 C 273.617188 164.535156 273.355469 164.542969 273.230469 164.644531 C 273.058594 164.71875 272.882812 164.804688 272.789062 164.972656 C 272.679688 164.992188 272.574219 165.003906 272.46875 165.015625 C 272.484375 165.046875 272.519531 165.105469 272.535156 165.136719 C 272.457031 165.144531 272.304688 165.164062 272.226562 165.171875 C 272.019531 165.367188 271.71875 165.375 271.464844 165.472656 C 270.929688 165.636719 270.359375 165.664062 269.804688 165.71875 C 269.457031 165.742188 269.109375 165.675781 268.773438 165.765625 C 268.734375 165.75 268.664062 165.714844 268.628906 165.699219 C 268.03125 165.730469 267.453125 165.578125 266.867188 165.5 C 266.359375 165.355469 265.835938 165.378906 265.320312 165.34375 C 264.960938 165.316406 264.613281 165.40625 264.265625 165.472656 C 263.9375 165.621094 263.570312 165.628906 263.25 165.789062 C 262.578125 166.117188 261.90625 166.449219 261.28125 166.859375 C 260.667969 167.179688 260.132812 167.621094 259.507812 167.914062 C 259.152344 168.074219 258.847656 168.339844 258.464844 168.433594 C 258.078125 168.527344 257.742188 168.765625 257.34375 168.800781 C 256.464844 168.996094 255.585938 168.699219 254.734375 168.492188 C 253.964844 168.242188 253.214844 167.941406 252.464844 167.636719 C 252.152344 167.542969 251.847656 167.394531 251.519531 167.371094 C 250.777344 167.285156 250.035156 167.566406 249.4375 168 C 249.097656 168.226562 248.738281 168.4375 248.457031 168.742188 C 248.359375 168.835938 248.234375 168.890625 248.125 168.957031 C 247.835938 169.234375 247.566406 169.53125 247.214844 169.726562 C 247.035156 169.875 246.9375 170.109375 246.710938 170.203125 C 246.523438 170.351562 246.347656 170.515625 246.207031 170.710938 C 245.871094 170.917969 245.53125 171.140625 245.292969 171.46875 C 244.71875 171.992188 244.085938 172.441406 243.441406 172.875 C 243.148438 173.109375 242.761719 173.136719 242.429688 173.277344 C 242.117188 173.355469 241.789062 173.4375 241.464844 173.371094 C 240.71875 173.363281 239.992188 173.179688 239.292969 172.929688 C 238.804688 172.785156 238.308594 172.613281 237.792969 172.667969 C 237.132812 172.777344 236.582031 173.175781 236.070312 173.582031 C 235.269531 174.195312 234.574219 174.925781 233.824219 175.601562 C 233.480469 175.890625 233.191406 176.246094 232.820312 176.5 C 232.101562 177.066406 231.253906 177.636719 230.292969 177.519531 C 230.144531 177.480469 229.992188 177.464844 229.84375 177.46875 C 229.773438 177.441406 229.707031 177.414062 229.640625 177.390625 C 228.726562 177.269531 227.90625 176.757812 227.222656 176.152344 C 226.960938 175.96875 226.777344 175.683594 226.484375 175.546875 C 226.144531 175.773438 225.800781 175.992188 225.496094 176.265625 C 224.890625 176.875 224.21875 177.417969 223.574219 177.988281 C 223.472656 178.089844 223.371094 178.1875 223.246094 178.257812 C 223.007812 178.472656 222.734375 178.636719 222.46875 178.8125 C 222.160156 178.894531 221.890625 179.085938 221.578125 179.148438 C 220.785156 179.148438 219.996094 178.953125 219.261719 178.644531 C 218.964844 178.421875 218.605469 178.300781 218.3125 178.074219 C 218.035156 177.859375 217.726562 177.691406 217.460938 177.464844 C 217.34375 177.359375 217.195312 177.304688 217.042969 177.28125 C 216.914062 177.414062 216.738281 177.457031 216.570312 177.507812 C 215.648438 178.074219 214.929688 178.890625 214.179688 179.652344 C 213.746094 180.117188 213.3125 180.582031 212.886719 181.054688 C 212.628906 181.3125 212.335938 181.539062 212.089844 181.816406 C 211.3125 182.621094 210.417969 183.386719 209.316406 183.679688 C 208.933594 183.742188 208.546875 183.753906 208.160156 183.734375 C 207.226562 183.628906 206.40625 183.121094 205.621094 182.636719 C 205.011719 182.152344 204.429688 181.621094 203.976562 180.988281 C 203.535156 181.335938 203.222656 181.804688 202.847656 182.214844 C 202.425781 182.730469 201.9375 183.179688 201.421875 183.59375 C 201.089844 183.734375 200.785156 183.964844 200.40625 183.960938 C 199.996094 183.964844 199.578125 183.980469 199.183594 183.851562 C 198.824219 183.796875 198.503906 183.613281 198.15625 183.527344 C 197.792969 183.367188 197.515625 183.054688 197.136719 182.929688 C 196.917969 182.691406 196.621094 182.546875 196.410156 182.300781 C 196.160156 182.085938 195.960938 181.820312 195.699219 181.625 C 195.46875 181.851562 195.214844 182.066406 195.070312 182.363281 C 194.296875 183.355469 193.738281 184.503906 193.144531 185.613281 C 192.90625 185.992188 192.769531 186.421875 192.574219 186.820312 C 192.492188 187.085938 192.351562 187.328125 192.214844 187.574219 C 192.097656 187.699219 192.003906 187.847656 191.933594 188.003906 C 191.613281 188.167969 191.269531 188.285156 190.910156 188.316406 C 190.667969 188.28125 190.421875 188.285156 190.179688 188.28125 C 190.046875 188.226562 189.910156 188.183594 189.820312 188.066406 C 189.769531 188.070312 189.675781 188.082031 189.625 188.089844 C 189.503906 187.851562 189.175781 187.859375 189.097656 187.585938 C 189.175781 187.449219 189.238281 187.304688 189.277344 187.148438 C 189.445312 186.894531 189.710938 186.710938 189.8125 186.414062 C 190.089844 185.527344 190.507812 184.703125 190.894531 183.863281 C 191.441406 182.957031 191.96875 182.03125 192.636719 181.210938 C 192.769531 181.054688 192.894531 180.890625 192.980469 180.703125"/></g></g></g><g clip-path="url(#aM)"><g clip-path="url(#aN)"><g clip-path="url(#aO)"><path fill="#FF885F" d="M 197.78125 198.878906 C 198.105469 198.636719 198.367188 198.253906 198.808594 198.238281 C 199.195312 198.164062 199.582031 198.085938 199.984375 198.09375 C 200.019531 198.113281 200.09375 198.144531 200.128906 198.160156 C 200.558594 198.207031 200.996094 198.261719 201.40625 198.425781 C 201.917969 198.710938 202.40625 199.054688 202.789062 199.507812 C 203.027344 199.78125 203.257812 200.054688 203.519531 200.300781 C 203.820312 200.078125 204.074219 199.800781 204.34375 199.539062 C 204.425781 199.425781 204.5625 199.382812 204.695312 199.355469 C 205.289062 198.679688 205.863281 197.949219 206.632812 197.472656 C 206.660156 197.441406 206.707031 197.378906 206.730469 197.347656 C 206.78125 197.320312 206.882812 197.265625 206.933594 197.238281 C 207.027344 197.234375 207.121094 197.230469 207.21875 197.222656 C 207.457031 197.265625 207.679688 197.15625 207.910156 197.121094 C 208.074219 197.109375 208.234375 197.132812 208.398438 197.144531 C 208.699219 197.171875 208.988281 197.285156 209.292969 197.285156 C 209.773438 197.394531 210.144531 197.734375 210.535156 198.011719 C 211 198.476562 211.253906 199.085938 211.625 199.617188 C 211.75 199.796875 211.851562 200.023438 212.0625 200.113281 C 212.253906 200.085938 212.382812 199.921875 212.566406 199.871094 C 212.84375 199.789062 213.027344 199.539062 213.292969 199.425781 C 213.488281 199.167969 213.757812 198.980469 213.988281 198.757812 C 214.25 198.632812 214.472656 198.441406 214.628906 198.191406 C 214.761719 198.144531 214.910156 198.117188 215.011719 198.007812 C 216.132812 196.804688 217.214844 195.539062 218.570312 194.59375 C 218.863281 194.378906 219.199219 194.238281 219.515625 194.054688 C 220.179688 193.902344 220.890625 193.765625 221.558594 193.992188 C 222.472656 194.125 223.34375 194.503906 224.066406 195.082031 C 224.191406 195.179688 224.335938 195.246094 224.484375 195.300781 C 224.652344 195.234375 224.828125 195.1875 225.003906 195.132812 C 225.210938 194.898438 225.511719 194.785156 225.738281 194.570312 C 226.003906 194.570312 226.152344 194.300781 226.34375 194.152344 C 226.484375 194.039062 226.613281 193.90625 226.808594 193.898438 C 227.4375 193.28125 228.117188 192.714844 228.871094 192.257812 C 229.035156 192.171875 229.144531 191.976562 229.34375 191.976562 C 229.617188 191.941406 229.894531 191.917969 230.171875 191.917969 C 230.496094 191.867188 230.820312 191.964844 231.144531 191.996094 C 231.449219 192.105469 231.765625 192.175781 232.070312 192.289062 C 232.273438 192.402344 232.46875 192.53125 232.679688 192.632812 C 233.085938 192.953125 233.417969 193.363281 233.816406 193.695312 C 234.269531 193.496094 234.753906 193.328125 235.085938 192.9375 C 235.164062 192.949219 235.253906 193.078125 235.328125 193 C 235.839844 192.496094 236.390625 192.035156 236.933594 191.5625 C 237.683594 190.839844 238.511719 190.207031 239.375 189.632812 C 239.417969 189.613281 239.503906 189.578125 239.546875 189.5625 C 239.65625 189.460938 239.757812 189.320312 239.917969 189.300781 C 240.511719 189.195312 241.121094 189.132812 241.722656 189.1875 C 242.539062 189.191406 243.316406 189.5 244.101562 189.699219 C 244.71875 189.8125 245.316406 189.496094 245.828125 189.1875 C 245.898438 189.140625 245.96875 189.09375 246.042969 189.046875 C 246.117188 188.980469 246.195312 188.917969 246.277344 188.855469 C 246.320312 188.878906 246.410156 188.917969 246.457031 188.941406 C 247.394531 188.199219 248.304688 187.421875 249.179688 186.605469 C 249.644531 186.222656 250.105469 185.839844 250.570312 185.457031 C 251.503906 184.792969 252.457031 184.070312 253.605469 183.847656 C 253.992188 183.792969 254.386719 183.78125 254.78125 183.792969 C 256.109375 183.90625 257.351562 184.4375 258.59375 184.898438 C 258.898438 185.019531 259.210938 185.164062 259.550781 185.140625 C 259.828125 185.117188 260.113281 185.078125 260.386719 185.007812 C 261.015625 184.707031 261.636719 184.386719 262.292969 184.152344 C 262.492188 183.945312 262.761719 183.839844 263.007812 183.695312 C 263.136719 183.582031 263.28125 183.492188 263.425781 183.390625 C 263.492188 183.386719 263.558594 183.382812 263.632812 183.378906 C 264.179688 183.015625 264.773438 182.730469 265.363281 182.429688 C 265.601562 182.320312 265.835938 182.183594 266.105469 182.164062 C 266.589844 181.910156 267.15625 181.8125 267.691406 181.691406 C 267.921875 181.628906 268.164062 181.671875 268.398438 181.671875 C 268.753906 181.613281 269.105469 181.71875 269.457031 181.738281 C 270.277344 181.777344 271.074219 182.050781 271.898438 182.003906 C 272.804688 182.121094 273.707031 181.902344 274.597656 181.765625 C 274.675781 181.742188 274.757812 181.722656 274.839844 181.695312 C 275.453125 181.566406 276.054688 181.378906 276.675781 181.261719 C 277.207031 181.09375 277.765625 181.027344 278.296875 180.855469 C 278.375 180.839844 278.457031 180.84375 278.539062 180.867188 C 278.597656 180.988281 278.609375 181.136719 278.691406 181.253906 C 278.582031 181.507812 278.6875 181.777344 278.6875 182.042969 C 278.648438 182.222656 278.503906 182.351562 278.398438 182.496094 C 278.417969 182.710938 278.15625 182.71875 278.03125 182.816406 C 277.859375 182.894531 277.683594 182.976562 277.589844 183.148438 C 277.480469 183.164062 277.375 183.179688 277.269531 183.191406 C 277.285156 183.222656 277.320312 183.28125 277.335938 183.3125 C 277.257812 183.320312 277.105469 183.339844 277.03125 183.347656 C 276.820312 183.542969 276.523438 183.550781 276.265625 183.648438 C 275.730469 183.8125 275.160156 183.839844 274.605469 183.890625 C 274.261719 183.917969 273.910156 183.851562 273.574219 183.9375 C 273.539062 183.921875 273.464844 183.890625 273.429688 183.875 C 272.832031 183.90625 272.253906 183.753906 271.667969 183.675781 C 271.164062 183.53125 270.636719 183.554688 270.121094 183.515625 C 269.761719 183.488281 269.414062 183.582031 269.066406 183.648438 C 268.742188 183.796875 268.371094 183.804688 268.050781 183.964844 C 267.378906 184.289062 266.707031 184.625 266.082031 185.035156 C 265.472656 185.355469 264.933594 185.796875 264.308594 186.085938 C 263.953125 186.246094 263.648438 186.511719 263.265625 186.609375 C 262.882812 186.699219 262.542969 186.941406 262.144531 186.976562 C 261.265625 187.171875 260.386719 186.875 259.535156 186.664062 C 258.765625 186.417969 258.015625 186.113281 257.265625 185.8125 C 256.953125 185.71875 256.652344 185.570312 256.320312 185.542969 C 255.578125 185.460938 254.835938 185.742188 254.242188 186.171875 C 253.898438 186.402344 253.539062 186.613281 253.257812 186.917969 C 253.160156 187.011719 253.039062 187.066406 252.925781 187.132812 C 252.636719 187.40625 252.367188 187.707031 252.015625 187.898438 C 251.839844 188.046875 251.738281 188.285156 251.515625 188.378906 C 251.324219 188.523438 251.148438 188.691406 251.011719 188.886719 C 250.671875 189.09375 250.332031 189.316406 250.097656 189.644531 C 249.519531 190.164062 248.886719 190.617188 248.242188 191.050781 C 247.953125 191.285156 247.566406 191.3125 247.234375 191.453125 C 246.917969 191.53125 246.59375 191.613281 246.265625 191.546875 C 245.519531 191.535156 244.792969 191.355469 244.09375 191.101562 C 243.605469 190.957031 243.109375 190.789062 242.59375 190.84375 C 241.933594 190.953125 241.382812 191.351562 240.871094 191.757812 C 240.074219 192.371094 239.375 193.101562 238.628906 193.777344 C 238.28125 194.066406 237.996094 194.417969 237.621094 194.675781 C 236.902344 195.242188 236.054688 195.8125 235.09375 195.695312 C 234.945312 195.65625 234.796875 195.640625 234.644531 195.644531 C 234.574219 195.617188 234.507812 195.589844 234.441406 195.5625 C 233.527344 195.445312 232.707031 194.933594 232.023438 194.324219 C 231.761719 194.140625 231.578125 193.859375 231.289062 193.722656 C 230.949219 193.949219 230.601562 194.167969 230.300781 194.441406 C 229.691406 195.050781 229.023438 195.59375 228.378906 196.160156 C 228.277344 196.261719 228.171875 196.363281 228.046875 196.433594 C 227.808594 196.644531 227.535156 196.808594 227.269531 196.988281 C 226.964844 197.070312 226.695312 197.261719 226.378906 197.320312 C 225.585938 197.320312 224.796875 197.128906 224.066406 196.820312 C 223.765625 196.59375 223.40625 196.476562 223.113281 196.25 C 222.835938 196.035156 222.53125 195.867188 222.261719 195.640625 C 222.144531 195.535156 221.996094 195.476562 221.84375 195.457031 C 221.71875 195.589844 221.539062 195.632812 221.371094 195.683594 C 220.453125 196.246094 219.734375 197.066406 218.980469 197.828125 C 218.546875 198.292969 218.113281 198.753906 217.6875 199.226562 C 217.429688 199.488281 217.136719 199.710938 216.894531 199.988281 C 216.117188 200.796875 215.21875 201.558594 214.117188 201.855469 C 213.734375 201.917969 213.347656 201.929688 212.960938 201.910156 C 212.027344 201.800781 211.207031 201.292969 210.421875 200.808594 C 209.816406 200.328125 209.234375 199.796875 208.777344 199.164062 C 208.335938 199.511719 208.027344 199.980469 207.648438 200.390625 C 207.226562 200.90625 206.742188 201.355469 206.222656 201.769531 C 205.890625 201.90625 205.585938 202.140625 205.207031 202.132812 C 204.796875 202.140625 204.378906 202.15625 203.984375 202.027344 C 203.625 201.972656 203.308594 201.789062 202.957031 201.703125 C 202.59375 201.542969 202.320312 201.230469 201.9375 201.105469 C 201.722656 200.867188 201.421875 200.722656 201.210938 200.476562 C 200.960938 200.261719 200.761719 199.996094 200.503906 199.800781 C 200.273438 200.027344 200.019531 200.238281 199.871094 200.535156 C 199.097656 201.53125 198.539062 202.679688 197.945312 203.789062 C 197.707031 204.164062 197.574219 204.59375 197.375 204.992188 C 197.292969 205.261719 197.152344 205.503906 197.019531 205.746094 C 196.898438 205.875 196.808594 206.019531 196.734375 206.175781 C 196.417969 206.34375 196.070312 206.457031 195.714844 206.492188 C 195.46875 206.457031 195.222656 206.460938 194.980469 206.457031 C 194.847656 206.402344 194.710938 206.355469 194.621094 206.238281 C 194.574219 206.246094 194.476562 206.257812 194.425781 206.265625 C 194.304688 206.027344 193.976562 206.035156 193.898438 205.761719 C 193.976562 205.625 194.042969 205.480469 194.082031 205.324219 C 194.246094 205.070312 194.515625 204.886719 194.617188 204.589844 C 194.890625 203.703125 195.3125 202.875 195.695312 202.039062 C 196.246094 201.132812 196.769531 200.207031 197.4375 199.386719 C 197.570312 199.230469 197.695312 199.066406 197.78125 198.878906"/></g></g></g><g clip-path="url(#aP)"><g clip-path="url(#aQ)"><g clip-path="url(#aR)"><path fill="#FF885F" d="M 202.988281 218.589844 C 203.308594 218.34375 203.574219 217.964844 204.015625 217.945312 C 204.402344 217.875 204.789062 217.792969 205.191406 217.804688 C 205.226562 217.820312 205.300781 217.851562 205.335938 217.871094 C 205.765625 217.917969 206.203125 217.972656 206.613281 218.136719 C 207.125 218.417969 207.613281 218.761719 207.996094 219.214844 C 208.234375 219.488281 208.464844 219.761719 208.726562 220.011719 C 209.027344 219.785156 209.28125 219.507812 209.550781 219.246094 C 209.632812 219.132812 209.769531 219.089844 209.902344 219.0625 C 210.496094 218.386719 211.070312 217.660156 211.839844 217.179688 C 211.867188 217.148438 211.914062 217.085938 211.9375 217.054688 C 211.988281 217.027344 212.089844 216.976562 212.140625 216.949219 C 212.234375 216.941406 212.328125 216.9375 212.425781 216.929688 C 212.664062 216.976562 212.886719 216.863281 213.117188 216.828125 C 213.28125 216.816406 213.441406 216.84375 213.605469 216.855469 C 213.90625 216.878906 214.195312 216.992188 214.5 216.992188 C 214.980469 217.101562 215.351562 217.441406 215.742188 217.722656 C 216.207031 218.183594 216.460938 218.792969 216.832031 219.328125 C 216.957031 219.507812 217.054688 219.730469 217.269531 219.820312 C 217.460938 219.796875 217.589844 219.632812 217.773438 219.578125 C 218.046875 219.496094 218.234375 219.246094 218.5 219.132812 C 218.695312 218.875 218.960938 218.691406 219.195312 218.464844 C 219.457031 218.339844 219.679688 218.148438 219.835938 217.898438 C 219.96875 217.855469 220.117188 217.824219 220.21875 217.71875 C 221.339844 216.511719 222.421875 215.246094 223.777344 214.300781 C 224.070312 214.089844 224.40625 213.945312 224.722656 213.765625 C 225.386719 213.609375 226.097656 213.472656 226.765625 213.703125 C 227.679688 213.832031 228.550781 214.214844 229.273438 214.789062 C 229.398438 214.886719 229.542969 214.953125 229.691406 215.007812 C 229.859375 214.941406 230.035156 214.894531 230.210938 214.839844 C 230.417969 214.605469 230.71875 214.492188 230.945312 214.277344 C 231.210938 214.28125 231.359375 214.007812 231.550781 213.859375 C 231.691406 213.75 231.820312 213.617188 232.011719 213.605469 C 232.644531 212.992188 233.324219 212.425781 234.078125 211.96875 C 234.242188 211.882812 234.351562 211.6875 234.550781 211.683594 C 234.824219 211.648438 235.101562 211.628906 235.378906 211.625 C 235.703125 211.578125 236.027344 211.671875 236.351562 211.703125 C 236.65625 211.816406 236.972656 211.882812 237.277344 211.996094 C 237.480469 212.113281 237.675781 212.238281 237.886719 212.339844 C 238.292969 212.664062 238.625 213.070312 239.023438 213.402344 C 239.476562 213.203125 239.960938 213.035156 240.292969 212.644531 C 240.371094 212.660156 240.460938 212.789062 240.53125 212.707031 C 241.046875 212.203125 241.597656 211.742188 242.140625 211.269531 C 242.890625 210.550781 243.71875 209.914062 244.582031 209.339844 C 244.625 209.324219 244.710938 209.289062 244.753906 209.269531 C 244.863281 209.167969 244.964844 209.027344 245.125 209.007812 C 245.71875 208.902344 246.328125 208.84375 246.929688 208.894531 C 247.746094 208.898438 248.523438 209.207031 249.308594 209.40625 C 249.925781 209.519531 250.523438 209.203125 251.035156 208.894531 C 251.105469 208.847656 251.175781 208.800781 251.25 208.753906 C 251.324219 208.691406 251.402344 208.628906 251.480469 208.5625 C 251.527344 208.585938 251.617188 208.628906 251.664062 208.648438 C 252.601562 207.90625 253.511719 207.132812 254.386719 206.3125 C 254.851562 205.933594 255.3125 205.550781 255.777344 205.164062 C 256.710938 204.5 257.664062 203.777344 258.8125 203.554688 C 259.199219 203.5 259.59375 203.488281 259.988281 203.5 C 261.316406 203.617188 262.558594 204.144531 263.800781 204.605469 C 264.105469 204.726562 264.417969 204.871094 264.757812 204.847656 C 265.035156 204.828125 265.320312 204.785156 265.59375 204.714844 C 266.222656 204.414062 266.84375 204.097656 267.5 203.859375 C 267.699219 203.652344 267.96875 203.546875 268.214844 203.402344 C 268.34375 203.289062 268.488281 203.199219 268.632812 203.101562 C 268.695312 203.097656 268.765625 203.09375 268.839844 203.089844 C 269.386719 202.722656 269.980469 202.4375 270.570312 202.136719 C 270.808594 202.027344 271.042969 201.890625 271.3125 201.871094 C 271.796875 201.617188 272.363281 201.519531 272.898438 201.402344 C 273.128906 201.335938 273.371094 201.378906 273.605469 201.378906 C 273.960938 201.324219 274.3125 201.425781 274.664062 201.445312 C 275.484375 201.484375 276.28125 201.757812 277.105469 201.710938 C 278.011719 201.828125 278.914062 201.609375 279.804688 201.472656 C 279.882812 201.453125 279.964844 201.429688 280.046875 201.40625 C 280.660156 201.273438 281.261719 201.085938 281.882812 200.96875 C 282.414062 200.804688 282.972656 200.738281 283.503906 200.5625 C 283.582031 200.546875 283.664062 200.550781 283.746094 200.574219 C 283.804688 200.699219 283.816406 200.84375 283.898438 200.960938 C 283.789062 201.21875 283.894531 201.484375 283.894531 201.75 C 283.855469 201.933594 283.710938 202.0625 283.605469 202.203125 C 283.625 202.417969 283.363281 202.425781 283.238281 202.527344 C 283.066406 202.601562 282.890625 202.6875 282.796875 202.855469 C 282.6875 202.875 282.582031 202.886719 282.476562 202.898438 C 282.492188 202.929688 282.527344 202.988281 282.542969 203.019531 C 282.464844 203.027344 282.3125 203.046875 282.238281 203.054688 C 282.027344 203.25 281.726562 203.257812 281.472656 203.355469 C 280.9375 203.519531 280.367188 203.546875 279.8125 203.601562 C 279.46875 203.625 279.117188 203.558594 278.78125 203.648438 C 278.742188 203.632812 278.671875 203.597656 278.636719 203.582031 C 278.039062 203.613281 277.460938 203.460938 276.875 203.382812 C 276.371094 203.238281 275.84375 203.261719 275.328125 203.226562 C 274.96875 203.199219 274.621094 203.289062 274.273438 203.355469 C 273.949219 203.503906 273.578125 203.511719 273.257812 203.671875 C 272.585938 204 271.914062 204.332031 271.289062 204.746094 C 270.679688 205.0625 270.140625 205.503906 269.515625 205.796875 C 269.160156 205.957031 268.855469 206.222656 268.472656 206.316406 C 268.085938 206.410156 267.75 206.648438 267.351562 206.683594 C 266.472656 206.878906 265.59375 206.582031 264.742188 206.375 C 263.972656 206.125 263.222656 205.824219 262.472656 205.519531 C 262.160156 205.425781 261.855469 205.277344 261.527344 205.253906 C 260.785156 205.167969 260.042969 205.449219 259.449219 205.882812 C 259.105469 206.109375 258.746094 206.320312 258.464844 206.625 C 258.367188 206.71875 258.246094 206.773438 258.132812 206.839844 C 257.84375 207.117188 257.574219 207.414062 257.222656 207.609375 C 257.042969 207.757812 256.945312 207.992188 256.722656 208.085938 C 256.53125 208.234375 256.355469 208.398438 256.21875 208.59375 C 255.878906 208.800781 255.539062 209.023438 255.300781 209.351562 C 254.726562 209.875 254.09375 210.324219 253.449219 210.757812 C 253.160156 210.992188 252.773438 211.019531 252.441406 211.160156 C 252.125 211.238281 251.796875 211.320312 251.472656 211.253906 C 250.726562 211.246094 250 211.0625 249.300781 210.8125 C 248.8125 210.667969 248.316406 210.496094 247.800781 210.550781 C 247.140625 210.660156 246.589844 211.058594 246.078125 211.464844 C 245.28125 212.078125 244.582031 212.808594 243.835938 213.484375 C 243.488281 213.773438 243.203125 214.128906 242.828125 214.382812 C 242.109375 214.949219 241.261719 215.519531 240.300781 215.402344 C 240.152344 215.363281 240.003906 215.347656 239.851562 215.351562 C 239.78125 215.324219 239.714844 215.296875 239.648438 215.273438 C 238.734375 215.152344 237.914062 214.640625 237.230469 214.035156 C 236.96875 213.851562 236.785156 213.566406 236.496094 213.429688 C 236.15625 213.65625 235.808594 213.875 235.503906 214.148438 C 234.898438 214.757812 234.230469 215.300781 233.585938 215.871094 C 233.484375 215.972656 233.378906 216.070312 233.253906 216.140625 C 233.015625 216.355469 232.742188 216.519531 232.476562 216.695312 C 232.171875 216.777344 231.902344 216.96875 231.585938 217.03125 C 230.792969 217.03125 230.003906 216.835938 229.273438 216.527344 C 228.972656 216.304688 228.613281 216.183594 228.320312 215.957031 C 228.042969 215.742188 227.738281 215.574219 227.46875 215.347656 C 227.351562 215.242188 227.203125 215.1875 227.050781 215.164062 C 226.921875 215.296875 226.746094 215.339844 226.578125 215.390625 C 225.660156 215.957031 224.941406 216.773438 224.1875 217.535156 C 223.753906 218 223.320312 218.464844 222.894531 218.9375 C 222.636719 219.195312 222.34375 219.421875 222.101562 219.699219 C 221.324219 220.503906 220.425781 221.269531 219.324219 221.5625 C 218.941406 221.625 218.554688 221.636719 218.167969 221.617188 C 217.234375 221.511719 216.414062 221.003906 215.628906 220.519531 C 215.023438 220.035156 214.441406 219.503906 213.984375 218.871094 C 213.542969 219.21875 213.234375 219.6875 212.855469 220.097656 C 212.433594 220.613281 211.949219 221.0625 211.429688 221.476562 C 211.097656 221.617188 210.792969 221.847656 210.414062 221.84375 C 210.003906 221.847656 209.585938 221.863281 209.191406 221.734375 C 208.832031 221.679688 208.511719 221.496094 208.164062 221.410156 C 207.800781 221.25 207.527344 220.9375 207.144531 220.8125 C 206.925781 220.574219 206.628906 220.429688 206.417969 220.183594 C 206.167969 219.96875 205.96875 219.703125 205.710938 219.507812 C 205.480469 219.734375 205.226562 219.949219 205.078125 220.246094 C 204.304688 221.238281 203.746094 222.386719 203.152344 223.496094 C 202.914062 223.875 202.78125 224.304688 202.582031 224.703125 C 202.5 224.96875 202.359375 225.210938 202.222656 225.457031 C 202.105469 225.582031 202.015625 225.730469 201.941406 225.886719 C 201.625 226.050781 201.277344 226.167969 200.921875 226.199219 C 200.675781 226.164062 200.429688 226.167969 200.1875 226.164062 C 200.054688 226.109375 199.917969 226.066406 199.828125 225.949219 C 199.78125 225.953125 199.683594 225.964844 199.632812 225.972656 C 199.511719 225.734375 199.183594 225.742188 199.105469 225.46875 C 199.183594 225.332031 199.25 225.1875 199.289062 225.03125 C 199.453125 224.777344 199.722656 224.59375 199.824219 224.296875 C 200.097656 223.410156 200.515625 222.585938 200.902344 221.746094 C 201.453125 220.839844 201.976562 219.914062 202.644531 219.09375 C 202.777344 218.9375 202.902344 218.773438 202.988281 218.589844"/></g></g></g></svg>