<svg xmlns="http://www.w3.org/2000/svg" width="375" viewBox="0 0 375 375" height="375" version="1.0"><defs><clipPath id="a"><path d="M 80.394531 232 L 235 232 L 235 280 L 80.394531 280 Z M 80.394531 232"/></clipPath><clipPath id="b"><path d="M 219 90 L 285.894531 90 L 285.894531 280.417969 L 219 280.417969 Z M 219 90"/></clipPath></defs><path fill="#08AFB7" d="M 187.359375 363.78125 C 140.257812 363.78125 95.90625 345.445312 62.621094 312.09375 C 29.269531 278.8125 10.9375 234.460938 10.9375 187.359375 C 10.9375 140.257812 29.269531 95.90625 62.621094 62.621094 C 95.90625 29.269531 140.257812 10.9375 187.359375 10.9375 C 234.460938 10.9375 278.8125 29.269531 312.09375 62.621094 C 345.445312 95.976562 363.78125 140.257812 363.78125 187.359375 C 363.78125 234.460938 345.445312 278.8125 312.09375 312.09375 C 278.8125 345.445312 234.460938 363.78125 187.359375 363.78125 Z M 187.359375 21.515625 C 143.078125 21.515625 101.40625 38.789062 70.097656 70.097656 C 38.789062 101.40625 21.515625 143.078125 21.515625 187.359375 C 21.515625 231.640625 38.789062 273.3125 70.097656 304.621094 C 101.40625 335.929688 143.078125 353.203125 187.359375 353.203125 C 231.640625 353.203125 273.3125 335.929688 304.621094 304.621094 C 335.929688 273.3125 353.203125 231.640625 353.203125 187.359375 C 353.203125 143.078125 335.929688 101.40625 304.621094 70.097656 C 273.3125 38.789062 231.640625 21.515625 187.359375 21.515625 Z M 187.359375 21.515625"/><path fill="#F7CEAD" d="M 187.375 344.980469 C 145.296875 344.980469 105.671875 328.601562 75.941406 298.808594 C 46.144531 269.074219 29.765625 229.453125 29.765625 187.375 C 29.765625 145.296875 46.144531 105.671875 75.941406 75.941406 C 105.671875 46.144531 145.296875 29.765625 187.375 29.765625 C 229.453125 29.765625 269.074219 46.144531 298.808594 75.941406 C 328.601562 105.734375 344.980469 145.296875 344.980469 187.375 C 344.980469 229.453125 328.601562 269.074219 298.808594 298.808594 C 269.074219 328.601562 229.453125 344.980469 187.375 344.980469 Z M 187.375 39.214844 C 147.816406 39.214844 110.585938 54.648438 82.617188 82.617188 C 54.648438 110.585938 39.214844 147.816406 39.214844 187.375 C 39.214844 226.933594 54.648438 264.160156 82.617188 292.128906 C 110.585938 320.097656 147.816406 335.53125 187.375 335.53125 C 226.933594 335.53125 264.160156 320.097656 292.128906 292.128906 C 320.097656 264.160156 335.53125 226.933594 335.53125 187.375 C 335.53125 147.816406 320.097656 110.585938 292.128906 82.617188 C 264.160156 54.648438 226.933594 39.214844 187.375 39.214844 Z M 187.375 39.214844"/><path fill="#FF885F" d="M 223.054688 168.878906 L 223.054688 231.375 C 223.054688 232.53125 222.117188 233.464844 220.957031 233.464844 L 199.914062 233.464844 C 198.757812 233.464844 197.820312 232.53125 197.820312 231.375 L 197.820312 124.570312 C 197.820312 123.414062 198.757812 122.480469 199.914062 122.480469 L 220.957031 122.480469 C 222.117188 122.480469 223.054688 123.414062 223.054688 124.570312 L 223.054688 153.464844"/><path fill="#F7CEAD" d="M 220.957031 235.464844 L 199.914062 235.464844 C 197.65625 235.464844 195.8125 233.628906 195.8125 231.375 L 195.8125 124.570312 C 195.8125 122.3125 197.652344 120.476562 199.914062 120.476562 L 220.957031 120.476562 C 223.21875 120.476562 225.058594 122.3125 225.058594 124.570312 L 225.058594 153.464844 C 225.058594 154.570312 224.164062 155.46875 223.054688 155.46875 C 221.945312 155.46875 221.046875 154.570312 221.046875 153.464844 L 221.046875 124.570312 C 221.046875 124.519531 221.007812 124.480469 220.957031 124.480469 L 199.914062 124.480469 C 199.867188 124.480469 199.828125 124.523438 199.828125 124.570312 L 199.828125 231.375 C 199.828125 231.421875 199.867188 231.460938 199.914062 231.460938 L 220.957031 231.460938 C 221.007812 231.460938 221.046875 231.421875 221.046875 231.375 L 221.046875 168.878906 C 221.046875 167.773438 221.945312 166.878906 223.054688 166.878906 C 224.164062 166.878906 225.058594 167.773438 225.058594 168.878906 L 225.058594 231.375 C 225.058594 233.628906 223.21875 235.464844 220.957031 235.464844 Z M 220.957031 235.464844"/><path fill="#F7CEAD" d="M 223.054688 224.238281 L 197.820312 224.238281 C 196.710938 224.238281 195.8125 223.339844 195.8125 222.234375 C 195.8125 221.128906 196.710938 220.234375 197.820312 220.234375 L 223.054688 220.234375 C 224.164062 220.234375 225.058594 221.128906 225.058594 222.234375 C 225.058594 223.339844 224.164062 224.238281 223.054688 224.238281 Z M 223.054688 224.238281"/><path fill="#F7CEAD" d="M 223.054688 135.449219 L 197.820312 135.449219 C 196.710938 135.449219 195.8125 134.550781 195.8125 133.445312 C 195.8125 132.339844 196.710938 131.445312 197.820312 131.445312 L 223.054688 131.445312 C 224.164062 131.445312 225.058594 132.339844 225.058594 133.445312 C 225.058594 134.550781 224.164062 135.449219 223.054688 135.449219 Z M 223.054688 135.449219"/><path fill="#FF885F" d="M 189.878906 145.859375 L 189.878906 231.375 C 189.878906 232.53125 188.941406 233.464844 187.785156 233.464844 L 166.742188 233.464844 C 165.585938 233.464844 164.648438 232.53125 164.648438 231.375 L 164.648438 124.570312 C 164.648438 123.414062 165.585938 122.480469 166.742188 122.480469 L 187.785156 122.480469 C 188.941406 122.480469 189.878906 123.414062 189.878906 124.570312 L 189.878906 132.511719"/><path fill="#F7CEAD" d="M 187.785156 235.464844 L 166.742188 235.464844 C 164.480469 235.464844 162.640625 233.628906 162.640625 231.375 L 162.640625 124.570312 C 162.640625 122.3125 164.480469 120.476562 166.742188 120.476562 L 187.785156 120.476562 C 190.046875 120.476562 191.886719 122.3125 191.886719 124.570312 L 191.886719 132.511719 C 191.886719 133.617188 190.988281 134.511719 189.878906 134.511719 C 188.773438 134.511719 187.875 133.617188 187.875 132.511719 L 187.875 124.570312 C 187.875 124.519531 187.832031 124.480469 187.785156 124.480469 L 166.742188 124.480469 C 166.691406 124.480469 166.652344 124.523438 166.652344 124.570312 L 166.652344 231.375 C 166.652344 231.421875 166.691406 231.460938 166.742188 231.460938 L 187.785156 231.460938 C 187.832031 231.460938 187.875 231.421875 187.875 231.375 L 187.875 145.859375 C 187.875 144.753906 188.773438 143.855469 189.878906 143.855469 C 190.988281 143.855469 191.886719 144.753906 191.886719 145.859375 L 191.886719 231.375 C 191.886719 233.628906 190.046875 235.464844 187.785156 235.464844 Z M 187.785156 235.464844"/><path fill="#F7CEAD" d="M 189.878906 224.238281 L 164.648438 224.238281 C 163.539062 224.238281 162.640625 223.339844 162.640625 222.234375 C 162.640625 221.128906 163.539062 220.234375 164.648438 220.234375 L 189.878906 220.234375 C 190.988281 220.234375 191.886719 221.128906 191.886719 222.234375 C 191.886719 223.339844 190.988281 224.238281 189.878906 224.238281 Z M 189.878906 224.238281"/><path fill="#FF885F" d="M 230.269531 270.625 L 105.179688 270.625 C 97.367188 270.625 91.320312 264.003906 91.320312 255.832031 C 91.320312 247.664062 97.601562 241.039062 105.179688 241.039062 L 230.269531 241.039062 C 230.269531 241.039062 211.78125 254.769531 230.269531 270.625 Z M 230.269531 270.625"/><path fill="#F7CEAD" d="M 230.285156 272.628906 C 230.277344 272.628906 230.273438 272.628906 230.269531 272.628906 L 105.179688 272.628906 C 96.28125 272.628906 89.316406 265.25 89.316406 255.832031 C 89.316406 246.570312 96.429688 239.035156 105.179688 239.035156 L 230.269531 239.035156 C 231.132812 239.035156 231.902344 239.589844 232.171875 240.410156 C 232.445312 241.226562 232.160156 242.128906 231.46875 242.644531 C 231.398438 242.695312 224.3125 248.085938 224.066406 255.507812 C 223.914062 260.082031 226.394531 264.617188 231.433594 268.984375 C 231.953125 269.347656 232.292969 269.945312 232.292969 270.625 C 232.292969 271.734375 231.394531 272.628906 230.285156 272.628906 Z M 105.179688 243.042969 C 98.644531 243.042969 93.328125 248.78125 93.328125 255.832031 C 93.328125 263.007812 98.535156 268.625 105.179688 268.625 L 225.378906 268.625 C 221.683594 264.398438 219.894531 259.949219 220.054688 255.34375 C 220.242188 250.113281 222.925781 245.839844 225.320312 243.042969 Z M 105.179688 243.042969"/><g clip-path="url(#a)"><path fill="#F7CEAD" d="M 204.34375 279.0625 L 102.023438 279.0625 C 90 279.0625 80.578125 268.859375 80.578125 255.832031 C 80.578125 243.027344 90.199219 232.605469 102.023438 232.605469 L 232.300781 232.605469 C 233.410156 232.605469 234.304688 233.5 234.304688 234.605469 C 234.304688 235.710938 233.410156 236.609375 232.300781 236.609375 L 102.023438 236.609375 C 92.410156 236.609375 84.589844 245.234375 84.589844 255.832031 C 84.589844 266.613281 92.25 275.058594 102.023438 275.058594 L 204.34375 275.058594 C 205.453125 275.058594 206.351562 275.953125 206.351562 277.058594 C 206.351562 278.167969 205.453125 279.0625 204.34375 279.0625 Z M 204.34375 279.0625"/></g><path fill="#F7CEAD" d="M 230.269531 279.0625 L 213.707031 279.0625 C 212.601562 279.0625 211.703125 278.167969 211.703125 277.058594 C 211.703125 275.953125 212.601562 275.058594 213.707031 275.058594 L 230.269531 275.058594 C 231.378906 275.058594 232.273438 275.953125 232.273438 277.058594 C 232.273438 278.167969 231.378906 279.0625 230.269531 279.0625 Z M 230.269531 279.0625"/><path fill="#FF885F" d="M 189.878906 254.304688 L 182.160156 254.304688 L 182.160156 264.539062 L 189.878906 260.300781 L 197.601562 264.539062 L 197.601562 254.304688 Z M 189.878906 254.304688"/><path fill="#F7CEAD" d="M 182.160156 266.539062 C 181.808594 266.539062 181.457031 266.445312 181.140625 266.261719 C 180.53125 265.898438 180.15625 265.246094 180.15625 264.539062 L 180.15625 254.304688 C 180.15625 253.199219 181.054688 252.304688 182.160156 252.304688 L 197.601562 252.304688 C 198.707031 252.304688 199.605469 253.199219 199.605469 254.304688 L 199.605469 264.539062 C 199.605469 265.246094 199.230469 265.898438 198.621094 266.261719 C 198.011719 266.621094 197.253906 266.632812 196.632812 266.289062 L 189.878906 262.585938 L 183.128906 266.289062 C 182.828125 266.457031 182.492188 266.539062 182.160156 266.539062 Z M 189.878906 258.300781 C 190.214844 258.300781 190.546875 258.382812 190.847656 258.546875 L 195.59375 261.152344 L 195.59375 256.308594 L 184.167969 256.308594 L 184.167969 261.152344 L 188.914062 258.546875 C 189.214844 258.382812 189.546875 258.300781 189.878906 258.300781 Z M 189.878906 258.300781"/><path fill="#FF885F" d="M 268.128906 136.441406 L 263.363281 95.097656 C 263.140625 93.195312 261.421875 91.839844 259.523438 92.054688 L 224.953125 96.023438 C 223.054688 96.242188 221.6875 97.953125 221.90625 99.855469 L 242.144531 275.328125 C 242.363281 277.222656 244.085938 278.578125 245.984375 278.363281 L 280.554688 274.394531 C 282.453125 274.175781 283.820312 272.464844 283.601562 270.570312 L 270.953125 160.910156"/><g clip-path="url(#b)"><path fill="#F7CEAD" d="M 245.574219 280.386719 C 244.347656 280.386719 243.164062 279.980469 242.1875 279.207031 C 241.042969 278.304688 240.316406 277.007812 240.152344 275.558594 L 219.910156 100.085938 C 219.566406 97.09375 221.722656 94.378906 224.722656 94.035156 L 259.292969 90.066406 C 260.742188 89.894531 262.171875 90.304688 263.316406 91.210938 C 264.464844 92.117188 265.1875 93.417969 265.355469 94.867188 L 270.121094 136.214844 C 270.25 137.3125 269.460938 138.304688 268.359375 138.433594 C 267.257812 138.5625 266.261719 137.769531 266.136719 136.671875 L 261.367188 95.324219 C 261.324219 94.9375 261.128906 94.589844 260.824219 94.347656 C 260.519531 94.109375 260.136719 94 259.75 94.042969 L 225.179688 98.011719 C 224.382812 98.105469 223.808594 98.828125 223.898438 99.628906 L 244.136719 275.101562 C 244.183594 275.484375 244.375 275.828125 244.679688 276.070312 C 244.984375 276.308594 245.367188 276.417969 245.753906 276.375 L 280.324219 272.40625 C 280.710938 272.359375 281.058594 272.167969 281.300781 271.863281 C 281.542969 271.558594 281.652344 271.179688 281.605469 270.796875 L 268.960938 161.140625 C 268.832031 160.042969 269.621094 159.046875 270.722656 158.921875 C 271.820312 158.789062 272.820312 159.582031 272.945312 160.679688 L 285.59375 270.339844 C 285.761719 271.789062 285.351562 273.214844 284.441406 274.355469 C 283.53125 275.496094 282.234375 276.214844 280.78125 276.382812 L 246.210938 280.351562 C 246 280.375 245.785156 280.386719 245.574219 280.386719 Z M 245.574219 280.386719"/></g><path fill="#F7CEAD" d="M 225.230469 130.695312 C 224.222656 130.695312 223.355469 129.945312 223.238281 128.921875 L 221.136719 110.71875 C 221.078125 110.191406 221.230469 109.660156 221.558594 109.246094 C 221.890625 108.828125 222.375 108.5625 222.902344 108.5 L 264.359375 103.738281 C 264.882812 103.679688 265.417969 103.828125 265.835938 104.160156 C 266.25 104.488281 266.519531 104.972656 266.582031 105.5 L 268.679688 123.703125 C 268.808594 124.800781 268.015625 125.792969 266.917969 125.921875 L 225.460938 130.683594 C 225.382812 130.691406 225.304688 130.695312 225.230469 130.695312 Z M 225.355469 112.25 L 226.996094 126.476562 L 264.464844 122.175781 L 262.824219 107.945312 Z M 225.355469 112.25"/><path fill="#F7CEAD" d="M 240.660156 264.5 C 239.660156 264.5 238.796875 263.757812 238.671875 262.742188 L 237.230469 251.121094 C 237.164062 250.589844 237.316406 250.054688 237.644531 249.636719 C 237.976562 249.21875 238.460938 248.945312 238.992188 248.886719 L 280.449219 244.125 C 281.539062 243.996094 282.535156 244.777344 282.671875 245.867188 L 284.113281 257.492188 C 284.175781 258.019531 284.027344 258.554688 283.695312 258.976562 C 283.367188 259.394531 282.882812 259.664062 282.351562 259.726562 L 240.894531 264.488281 C 240.816406 264.496094 240.738281 264.5 240.660156 264.5 Z M 241.460938 252.632812 L 242.410156 260.28125 L 279.882812 255.980469 L 278.933594 248.328125 Z M 241.460938 252.632812"/><path fill="#FF885F" d="M 154.59375 163.550781 L 141.664062 231.199219 C 141.445312 232.355469 140.328125 233.113281 139.171875 232.890625 L 118.125 228.886719 C 116.96875 228.667969 116.210938 227.550781 116.429688 226.398438 L 136.84375 119.582031 C 137.0625 118.429688 138.179688 117.671875 139.339844 117.890625 L 160.382812 121.894531 C 161.539062 122.117188 162.300781 123.230469 162.078125 124.382812 L 157.046875 150.722656"/><path fill="#F7CEAD" d="M 139.570312 234.929688 C 139.3125 234.929688 139.054688 234.90625 138.792969 234.859375 L 117.75 230.855469 C 116.664062 230.648438 115.722656 230.03125 115.101562 229.117188 C 114.480469 228.207031 114.25 227.105469 114.457031 226.023438 L 134.871094 119.207031 C 135.078125 118.125 135.695312 117.1875 136.613281 116.566406 C 137.527344 115.945312 138.628906 115.71875 139.714844 115.925781 L 160.757812 119.929688 C 163 120.355469 164.476562 122.523438 164.050781 124.757812 L 159.015625 151.097656 C 158.808594 152.183594 157.761719 152.898438 156.671875 152.6875 C 155.582031 152.480469 154.867188 151.433594 155.074219 150.347656 L 160.109375 124.007812 C 160.121094 123.941406 160.078125 123.875 160.007812 123.859375 L 138.964844 119.855469 C 138.902344 119.84375 138.824219 119.898438 138.816406 119.957031 L 118.402344 226.773438 C 118.386719 226.839844 118.433594 226.90625 118.503906 226.921875 L 139.546875 230.921875 C 139.617188 230.941406 139.683594 230.894531 139.695312 230.824219 L 152.621094 163.175781 C 152.832031 162.089844 153.882812 161.375 154.96875 161.582031 C 156.058594 161.792969 156.773438 162.839844 156.5625 163.925781 L 143.636719 231.574219 C 143.257812 233.550781 141.515625 234.929688 139.570312 234.929688 Z M 139.570312 234.929688"/><path fill="#F7CEAD" d="M 142.90625 226.726562 C 142.78125 226.726562 142.652344 226.714844 142.527344 226.691406 L 117.292969 221.890625 C 116.769531 221.789062 116.304688 221.488281 116.007812 221.046875 C 115.707031 220.609375 115.597656 220.070312 115.695312 219.546875 L 117.8125 208.46875 C 118.023438 207.382812 119.070312 206.667969 120.160156 206.875 L 145.398438 211.675781 C 145.917969 211.777344 146.382812 212.078125 146.679688 212.519531 C 146.980469 212.957031 147.09375 213.5 146.992188 214.019531 L 144.875 225.101562 C 144.691406 226.058594 143.847656 226.726562 142.90625 226.726562 Z M 120.011719 218.332031 L 141.308594 222.382812 L 142.675781 215.234375 L 121.378906 211.183594 Z M 120.011719 218.332031"/><path fill="#F7CEAD" d="M 158.472656 145.277344 C 158.347656 145.277344 158.21875 145.265625 158.09375 145.242188 L 132.855469 140.4375 C 131.769531 140.230469 131.054688 139.183594 131.261719 138.097656 L 133.378906 127.019531 C 133.480469 126.496094 133.78125 126.035156 134.222656 125.738281 C 134.664062 125.4375 135.203125 125.328125 135.726562 125.425781 L 160.960938 130.226562 C 161.484375 130.324219 161.945312 130.628906 162.246094 131.066406 C 162.542969 131.507812 162.65625 132.046875 162.558594 132.570312 L 160.4375 143.648438 C 160.257812 144.609375 159.414062 145.277344 158.472656 145.277344 Z M 135.578125 136.882812 L 156.875 140.933594 L 158.238281 133.785156 L 136.945312 129.734375 Z M 135.578125 136.882812"/></svg>