<svg xmlns="http://www.w3.org/2000/svg" width="375" viewBox="0 0 375 375" height="375" version="1.0"><defs><clipPath id="a"><path d="M 83 100 L 277 100 L 277 305 L 83 305 Z M 83 100"/></clipPath><clipPath id="b"><path d="M 73.609375 164.339844 L 202.375 96.59375 L 279.898438 243.945312 L 151.132812 311.691406 Z M 73.609375 164.339844"/></clipPath><clipPath id="c"><path d="M 73.609375 164.339844 L 202.375 96.59375 L 279.898438 243.945312 L 151.132812 311.691406 Z M 73.609375 164.339844"/></clipPath><clipPath id="d"><path d="M 83 95 L 277 95 L 277 300 L 83 300 Z M 83 95"/></clipPath><clipPath id="e"><path d="M 73.609375 159.101562 L 202.375 91.351562 L 279.898438 238.703125 L 151.132812 306.449219 Z M 73.609375 159.101562"/></clipPath><clipPath id="f"><path d="M 73.609375 159.101562 L 202.375 91.351562 L 279.898438 238.703125 L 151.132812 306.449219 Z M 73.609375 159.101562"/></clipPath><clipPath id="g"><path d="M 185 183 L 222 183 L 222 232 L 185 232 Z M 185 183"/></clipPath><clipPath id="h"><path d="M 278.546875 76.945312 L 314.269531 204.019531 L 187.917969 239.539062 L 152.195312 112.464844 Z M 278.546875 76.945312"/></clipPath><clipPath id="i"><path d="M 314.316406 204.175781 L 278.59375 77.101562 L 152.238281 112.621094 L 187.960938 239.695312 Z M 314.316406 204.175781"/></clipPath><clipPath id="j"><path d="M 199 84 L 276 84 L 276 193 L 199 193 Z M 199 84"/></clipPath><clipPath id="k"><path d="M 278.546875 76.945312 L 314.269531 204.019531 L 187.917969 239.539062 L 152.195312 112.464844 Z M 278.546875 76.945312"/></clipPath><clipPath id="l"><path d="M 314.316406 204.175781 L 278.59375 77.101562 L 152.238281 112.621094 L 187.960938 239.695312 Z M 314.316406 204.175781"/></clipPath><clipPath id="m"><path d="M 182 183 L 219 183 L 219 232 L 182 232 Z M 182 183"/></clipPath><clipPath id="n"><path d="M 275.546875 76.945312 L 311.269531 204.019531 L 184.917969 239.539062 L 149.195312 112.464844 Z M 275.546875 76.945312"/></clipPath><clipPath id="o"><path d="M 311.316406 204.175781 L 275.59375 77.101562 L 149.238281 112.621094 L 184.960938 239.695312 Z M 311.316406 204.175781"/></clipPath><clipPath id="p"><path d="M 196 84 L 273 84 L 273 193 L 196 193 Z M 196 84"/></clipPath><clipPath id="q"><path d="M 275.546875 76.945312 L 311.269531 204.019531 L 184.917969 239.539062 L 149.195312 112.464844 Z M 275.546875 76.945312"/></clipPath><clipPath id="r"><path d="M 311.316406 204.175781 L 275.59375 77.101562 L 149.238281 112.621094 L 184.960938 239.695312 Z M 311.316406 204.175781"/></clipPath></defs><path fill="#F7CEAD" d="M 187.375 344.980469 C 145.296875 344.980469 105.671875 328.601562 75.941406 298.808594 C 46.144531 269.074219 29.765625 229.453125 29.765625 187.375 C 29.765625 145.296875 46.144531 105.671875 75.941406 75.941406 C 105.671875 46.144531 145.296875 29.765625 187.375 29.765625 C 229.453125 29.765625 269.074219 46.144531 298.808594 75.941406 C 328.601562 105.734375 344.980469 145.296875 344.980469 187.375 C 344.980469 229.453125 328.601562 269.074219 298.808594 298.808594 C 269.074219 328.601562 229.453125 344.980469 187.375 344.980469 Z M 187.375 39.214844 C 147.816406 39.214844 110.585938 54.648438 82.617188 82.617188 C 54.648438 110.585938 39.214844 147.816406 39.214844 187.375 C 39.214844 226.933594 54.648438 264.160156 82.617188 292.128906 C 110.585938 320.097656 147.816406 335.53125 187.375 335.53125 C 226.933594 335.53125 264.160156 320.097656 292.128906 292.128906 C 320.097656 264.160156 335.53125 226.933594 335.53125 187.375 C 335.53125 147.816406 320.097656 110.585938 292.128906 82.617188 C 264.160156 54.648438 226.933594 39.214844 187.375 39.214844 Z M 187.375 39.214844"/><path fill="#08AFB7" d="M 187.359375 363.78125 C 140.257812 363.78125 95.90625 345.445312 62.621094 312.09375 C 29.269531 278.8125 10.9375 234.460938 10.9375 187.359375 C 10.9375 140.257812 29.269531 95.90625 62.621094 62.621094 C 95.90625 29.269531 140.257812 10.9375 187.359375 10.9375 C 234.460938 10.9375 278.8125 29.269531 312.09375 62.621094 C 345.445312 95.976562 363.78125 140.257812 363.78125 187.359375 C 363.78125 234.460938 345.445312 278.8125 312.09375 312.09375 C 278.8125 345.445312 234.460938 363.78125 187.359375 363.78125 Z M 187.359375 21.515625 C 143.078125 21.515625 101.40625 38.789062 70.097656 70.097656 C 38.789062 101.40625 21.515625 143.078125 21.515625 187.359375 C 21.515625 231.640625 38.789062 273.3125 70.097656 304.621094 C 101.40625 335.929688 143.078125 353.203125 187.359375 353.203125 C 231.640625 353.203125 273.3125 335.929688 304.621094 304.621094 C 335.929688 273.3125 353.203125 231.640625 353.203125 187.359375 C 353.203125 143.078125 335.929688 101.40625 304.621094 70.097656 C 273.3125 38.789062 231.640625 21.515625 187.359375 21.515625 Z M 187.359375 21.515625"/><g clip-path="url(#a)"><g clip-path="url(#b)"><g clip-path="url(#c)"><path fill="#FF885F" d="M 193.234375 101.539062 L 88.992188 156.382812 C 83.921875 159.050781 81.96875 165.34375 84.636719 170.417969 L 92.699219 185.742188 L 89.632812 187.355469 C 87.941406 188.246094 87.289062 190.34375 88.179688 192.035156 C 89.070312 193.726562 91.164062 194.375 92.859375 193.484375 L 117.382812 180.582031 C 119.078125 179.691406 119.730469 177.597656 118.839844 175.90625 C 117.949219 174.210938 115.851562 173.5625 114.160156 174.453125 L 105.527344 178.992188 C 104.921875 174.765625 106.941406 170.421875 110.933594 168.320312 C 116.003906 165.652344 122.300781 167.609375 124.96875 172.679688 C 127.636719 177.75 125.683594 184.042969 120.609375 186.714844 L 99.148438 198.003906 L 108.828125 216.398438 L 105.761719 218.011719 C 104.070312 218.902344 103.417969 220.996094 104.308594 222.6875 C 105.199219 224.378906 107.292969 225.03125 108.984375 224.140625 L 133.511719 211.238281 C 135.203125 210.347656 135.855469 208.25 134.964844 206.558594 C 134.074219 204.863281 131.980469 204.21875 130.289062 205.109375 L 121.65625 209.648438 C 121.050781 205.417969 123.070312 201.074219 127.0625 198.976562 C 132.132812 196.308594 138.429688 198.261719 141.097656 203.332031 C 143.765625 208.402344 141.808594 214.699219 136.738281 217.367188 L 115.277344 228.65625 L 124.953125 247.050781 L 121.886719 248.664062 C 120.195312 249.554688 119.546875 251.648438 120.4375 253.339844 C 121.324219 255.03125 123.421875 255.683594 125.113281 254.792969 L 149.640625 241.890625 C 151.332031 241 151.984375 238.902344 151.09375 237.210938 C 150.203125 235.519531 148.105469 234.871094 146.414062 235.761719 L 137.78125 240.300781 C 137.175781 236.070312 139.199219 231.730469 143.1875 229.628906 C 148.261719 226.960938 154.558594 228.917969 157.222656 233.984375 C 159.894531 239.054688 157.9375 245.351562 152.863281 248.019531 L 131.40625 259.3125 L 141.082031 277.703125 L 138.015625 279.316406 C 136.324219 280.207031 135.671875 282.300781 136.5625 283.996094 C 137.453125 285.6875 139.546875 286.335938 141.242188 285.445312 L 165.765625 272.542969 C 167.460938 271.652344 168.109375 269.558594 167.222656 267.867188 C 166.332031 266.171875 164.234375 265.523438 162.542969 266.414062 L 153.910156 270.953125 C 153.304688 266.726562 155.324219 262.382812 159.316406 260.28125 C 164.386719 257.613281 170.683594 259.570312 173.351562 264.640625 C 176.019531 269.707031 174.0625 276.003906 168.992188 278.671875 L 147.53125 289.964844 L 152.371094 299.160156 C 155.039062 304.230469 161.335938 306.1875 166.40625 303.519531 L 270.644531 248.675781 C 275.71875 246.007812 277.671875 239.710938 275.003906 234.640625 L 207.269531 105.898438 C 204.601562 100.824219 198.304688 98.871094 193.234375 101.539062 Z M 193.234375 101.539062"/></g></g></g><g clip-path="url(#d)"><g clip-path="url(#e)"><g clip-path="url(#f)"><path fill="#F7CEAD" d="M 193.234375 96.296875 L 88.992188 151.140625 C 83.921875 153.808594 81.96875 160.105469 84.636719 165.175781 L 92.699219 180.503906 L 89.632812 182.117188 C 87.941406 183.007812 87.289062 185.101562 88.179688 186.792969 C 89.070312 188.488281 91.164062 189.136719 92.859375 188.246094 L 117.382812 175.34375 C 119.078125 174.453125 119.730469 172.355469 118.839844 170.664062 C 117.949219 168.972656 115.851562 168.320312 114.160156 169.210938 L 105.527344 173.753906 C 104.921875 169.527344 106.941406 165.179688 110.933594 163.082031 C 116.003906 160.414062 122.300781 162.367188 124.96875 167.4375 C 127.636719 172.507812 125.683594 178.804688 120.609375 181.472656 L 99.148438 192.761719 L 108.828125 211.15625 L 105.761719 212.769531 C 104.070312 213.660156 103.417969 215.753906 104.308594 217.445312 C 105.199219 219.140625 107.292969 219.792969 108.984375 218.902344 L 133.511719 205.996094 C 135.203125 205.105469 135.855469 203.007812 134.964844 201.316406 C 134.074219 199.625 131.980469 198.976562 130.289062 199.867188 L 121.65625 204.410156 C 121.050781 200.179688 123.070312 195.835938 127.0625 193.734375 C 132.132812 191.066406 138.429688 193.023438 141.097656 198.089844 C 143.765625 203.160156 141.808594 209.457031 136.738281 212.128906 L 115.277344 223.417969 L 124.953125 241.8125 L 121.886719 243.425781 C 120.195312 244.316406 119.546875 246.410156 120.4375 248.101562 C 121.324219 249.792969 123.421875 250.445312 125.113281 249.554688 L 149.640625 236.648438 C 151.332031 235.757812 151.984375 233.664062 151.09375 231.96875 C 150.203125 230.28125 148.105469 229.628906 146.414062 230.519531 L 137.78125 235.0625 C 137.175781 230.832031 139.199219 226.488281 143.1875 224.386719 C 148.261719 221.71875 154.558594 223.675781 157.222656 228.746094 C 159.894531 233.816406 157.9375 240.113281 152.863281 242.78125 L 131.40625 254.070312 L 141.082031 272.460938 L 138.015625 274.074219 C 136.324219 274.964844 135.671875 277.0625 136.5625 278.757812 C 137.453125 280.445312 139.546875 281.097656 141.242188 280.207031 L 165.765625 267.304688 C 167.460938 266.414062 168.109375 264.316406 167.222656 262.625 C 166.332031 260.933594 164.234375 260.28125 162.542969 261.171875 L 153.910156 265.714844 C 153.304688 261.488281 155.324219 257.140625 159.316406 255.042969 C 164.386719 252.375 170.683594 254.328125 173.351562 259.398438 C 176.019531 264.46875 174.0625 270.765625 168.992188 273.433594 L 147.53125 284.722656 L 152.371094 293.921875 C 155.039062 298.992188 161.335938 300.945312 166.40625 298.277344 L 270.644531 243.4375 C 275.71875 240.769531 277.671875 234.46875 275.003906 229.398438 L 207.269531 100.65625 C 204.601562 95.585938 198.304688 93.628906 193.234375 96.296875 Z M 193.234375 96.296875"/></g></g></g><g clip-path="url(#g)"><g clip-path="url(#h)"><g clip-path="url(#i)"><path fill="#08AFB7" d="M 218.496094 203.605469 C 218.351562 203.859375 218.167969 204.09375 217.957031 204.289062 L 189.972656 230.527344 C 189.054688 231.386719 187.691406 231.554688 186.589844 230.945312 C 185.914062 230.5625 185.433594 229.933594 185.230469 229.21875 C 185.109375 228.785156 185.082031 228.316406 185.183594 227.847656 L 193.097656 190.398438 C 193.152344 190.117188 193.261719 189.839844 193.402344 189.582031 L 196.703125 183.726562 L 221.789062 197.75 Z M 218.496094 203.605469"/></g></g></g><g clip-path="url(#j)"><g clip-path="url(#k)"><g clip-path="url(#l)"><path fill="#08AFB7" d="M 268.355469 85.84375 C 275.0625 89.585938 276.898438 99.976562 272.316406 108.09375 L 266.953125 117.617188 L 274.480469 121.824219 C 275.148438 122.195312 275.636719 122.8125 275.84375 123.546875 C 276.046875 124.28125 275.957031 125.0625 275.578125 125.722656 L 251.585938 168.304688 C 250.808594 169.6875 249.050781 170.179688 247.667969 169.40625 C 246.972656 169.019531 246.5 168.390625 246.300781 167.683594 C 246.101562 166.976562 246.179688 166.191406 246.570312 165.503906 L 269.148438 125.4375 L 264.121094 122.628906 L 224.609375 192.757812 L 199.523438 178.734375 L 239.027344 108.605469 C 237.640625 107.828125 237.292969 106.59375 238.070312 105.207031 C 238.847656 103.816406 241.046875 104.921875 242.128906 104.617188 L 242.140625 104.613281 L 247.367188 94.585938 C 252.101562 86.171875 261.421875 81.976562 268.355469 85.84375 Z M 268.355469 85.84375"/></g></g></g><g clip-path="url(#m)"><g clip-path="url(#n)"><g clip-path="url(#o)"><path fill="#FF885F" d="M 215.496094 203.605469 C 215.351562 203.859375 215.167969 204.09375 214.957031 204.289062 L 186.972656 230.527344 C 186.054688 231.386719 184.691406 231.554688 183.589844 230.945312 C 182.914062 230.5625 182.433594 229.933594 182.230469 229.21875 C 182.109375 228.785156 182.082031 228.316406 182.183594 227.847656 L 190.097656 190.398438 C 190.152344 190.117188 190.261719 189.839844 190.402344 189.582031 L 193.703125 183.726562 L 218.789062 197.75 Z M 215.496094 203.605469"/></g></g></g><g clip-path="url(#p)"><g clip-path="url(#q)"><g clip-path="url(#r)"><path fill="#FF885F" d="M 265.355469 85.84375 C 272.0625 89.585938 273.898438 99.976562 269.316406 108.09375 L 263.953125 117.617188 L 271.480469 121.824219 C 272.148438 122.195312 272.636719 122.8125 272.84375 123.546875 C 273.046875 124.28125 272.957031 125.0625 272.578125 125.722656 L 248.585938 168.304688 C 247.808594 169.6875 246.050781 170.179688 244.667969 169.40625 C 243.972656 169.019531 243.5 168.390625 243.300781 167.683594 C 243.101562 166.976562 243.179688 166.191406 243.570312 165.503906 L 266.148438 125.4375 L 261.121094 122.628906 L 221.609375 192.757812 L 196.523438 178.734375 L 236.027344 108.605469 C 234.640625 107.828125 234.292969 106.59375 235.070312 105.207031 C 235.847656 103.816406 238.046875 104.921875 239.128906 104.617188 L 239.140625 104.613281 L 244.367188 94.585938 C 249.101562 86.171875 258.421875 81.976562 265.355469 85.84375 Z M 265.355469 85.84375"/></g></g></g></svg>