<svg xmlns="http://www.w3.org/2000/svg" width="375" viewBox="0 0 375 375" height="375" version="1.0"><defs><clipPath id="a"><path d="M 64.609375 65.015625 L 310.519531 65.015625 L 310.519531 310.265625 L 64.609375 310.265625 Z M 64.609375 65.015625"/></clipPath><clipPath id="b"><path d="M 101.429688 100.003906 L 273.929688 100.003906 L 273.929688 272.503906 L 101.429688 272.503906 Z M 101.429688 100.003906"/></clipPath><clipPath id="c"><path d="M 125.660156 138.027344 L 249.410156 138.027344 L 249.410156 237 L 125.660156 237 Z M 125.660156 138.027344"/></clipPath></defs><path fill="#08AFB7" d="M 187.359375 363.78125 C 140.257812 363.78125 95.90625 345.445312 62.621094 312.09375 C 29.269531 278.8125 10.9375 234.460938 10.9375 187.359375 C 10.9375 140.257812 29.269531 95.90625 62.621094 62.621094 C 95.90625 29.269531 140.257812 10.9375 187.359375 10.9375 C 234.460938 10.9375 278.8125 29.269531 312.09375 62.621094 C 345.445312 95.976562 363.78125 140.257812 363.78125 187.359375 C 363.78125 234.460938 345.445312 278.8125 312.09375 312.09375 C 278.8125 345.445312 234.460938 363.78125 187.359375 363.78125 Z M 187.359375 21.515625 C 143.078125 21.515625 101.40625 38.789062 70.097656 70.097656 C 38.789062 101.40625 21.515625 143.078125 21.515625 187.359375 C 21.515625 231.640625 38.789062 273.3125 70.097656 304.621094 C 101.40625 335.929688 143.078125 353.203125 187.359375 353.203125 C 231.640625 353.203125 273.3125 335.929688 304.621094 304.621094 C 335.929688 273.3125 353.203125 231.640625 353.203125 187.359375 C 353.203125 143.078125 335.929688 101.40625 304.621094 70.097656 C 273.3125 38.789062 231.640625 21.515625 187.359375 21.515625 Z M 187.359375 21.515625"/><path fill="#F7CEAD" d="M 187.375 344.980469 C 145.296875 344.980469 105.671875 328.601562 75.941406 298.808594 C 46.144531 269.074219 29.765625 229.453125 29.765625 187.375 C 29.765625 145.296875 46.144531 105.671875 75.941406 75.941406 C 105.671875 46.144531 145.296875 29.765625 187.375 29.765625 C 229.453125 29.765625 269.074219 46.144531 298.808594 75.941406 C 328.601562 105.734375 344.980469 145.296875 344.980469 187.375 C 344.980469 229.453125 328.601562 269.074219 298.808594 298.808594 C 269.074219 328.601562 229.453125 344.980469 187.375 344.980469 Z M 187.375 39.214844 C 147.816406 39.214844 110.585938 54.648438 82.617188 82.617188 C 54.648438 110.585938 39.214844 147.816406 39.214844 187.375 C 39.214844 226.933594 54.648438 264.160156 82.617188 292.128906 C 110.585938 320.097656 147.816406 335.53125 187.375 335.53125 C 226.933594 335.53125 264.160156 320.097656 292.128906 292.128906 C 320.097656 264.160156 335.53125 226.933594 335.53125 187.375 C 335.53125 147.816406 320.097656 110.585938 292.128906 82.617188 C 264.160156 54.648438 226.933594 39.214844 187.375 39.214844 Z M 187.375 39.214844"/><g clip-path="url(#a)"><path fill="#FF885F" d="M 187.566406 80.617188 L 207.875 65.015625 L 222.019531 86.371094 L 246.285156 78.214844 L 252.734375 103.007812 L 278.339844 103.179688 L 276.390625 128.722656 L 300.550781 137.203125 L 290.421875 160.734375 L 310.519531 176.605469 L 293.308594 195.566406 L 307.167969 217.109375 L 284.734375 229.453125 L 290.855469 254.328125 L 265.628906 258.714844 L 263.34375 284.230469 L 238.066406 280.183594 L 227.625 303.578125 L 205.027344 291.53125 L 187.566406 310.265625 L 170.101562 291.53125 L 147.503906 303.578125 L 137.066406 280.183594 L 111.785156 284.230469 L 109.503906 258.714844 L 84.277344 254.328125 L 90.394531 229.453125 L 67.960938 217.109375 L 81.824219 195.566406 L 64.609375 176.605469 L 84.707031 160.734375 L 74.578125 137.203125 L 98.738281 128.722656 L 96.792969 103.179688 L 122.394531 103.007812 L 128.84375 78.214844 L 153.113281 86.371094 L 167.257812 65.015625 L 187.566406 80.617188"/></g><g clip-path="url(#b)"><path fill="#F7CEAD" d="M 273.929688 186.253906 C 273.929688 187.664062 273.894531 189.078125 273.824219 190.484375 C 273.757812 191.894531 273.652344 193.304688 273.515625 194.707031 C 273.375 196.113281 273.203125 197.511719 272.996094 198.910156 C 272.789062 200.304688 272.546875 201.695312 272.273438 203.082031 C 271.996094 204.464844 271.6875 205.84375 271.34375 207.210938 C 271 208.582031 270.625 209.941406 270.214844 211.292969 C 269.804688 212.640625 269.363281 213.980469 268.886719 215.3125 C 268.410156 216.640625 267.902344 217.957031 267.363281 219.261719 C 266.824219 220.566406 266.25 221.855469 265.648438 223.128906 C 265.042969 224.40625 264.410156 225.667969 263.746094 226.914062 C 263.078125 228.15625 262.382812 229.386719 261.660156 230.59375 C 260.933594 231.804688 260.175781 233 259.394531 234.171875 C 258.609375 235.347656 257.796875 236.5 256.957031 237.632812 C 256.113281 238.765625 255.246094 239.878906 254.351562 240.96875 C 253.457031 242.0625 252.535156 243.128906 251.585938 244.175781 C 250.636719 245.222656 249.664062 246.242188 248.667969 247.242188 C 247.667969 248.242188 246.648438 249.214844 245.601562 250.160156 C 244.554688 251.109375 243.488281 252.03125 242.394531 252.925781 C 241.304688 253.820312 240.191406 254.691406 239.058594 255.53125 C 237.925781 256.371094 236.769531 257.183594 235.597656 257.96875 C 234.421875 258.753906 233.230469 259.507812 232.019531 260.234375 C 230.808594 260.957031 229.582031 261.65625 228.335938 262.320312 C 227.09375 262.984375 225.832031 263.621094 224.554688 264.222656 C 223.28125 264.828125 221.988281 265.398438 220.6875 265.9375 C 219.382812 266.480469 218.066406 266.988281 216.734375 267.460938 C 215.40625 267.9375 214.066406 268.378906 212.714844 268.789062 C 211.367188 269.199219 210.003906 269.578125 208.636719 269.917969 C 207.265625 270.261719 205.890625 270.570312 204.503906 270.847656 C 203.121094 271.121094 201.730469 271.363281 200.335938 271.570312 C 198.9375 271.777344 197.539062 271.949219 196.132812 272.089844 C 194.726562 272.226562 193.320312 272.332031 191.910156 272.398438 C 190.5 272.46875 189.089844 272.503906 187.679688 272.503906 C 186.269531 272.503906 184.855469 272.46875 183.445312 272.398438 C 182.039062 272.332031 180.628906 272.226562 179.226562 272.089844 C 177.820312 271.949219 176.421875 271.777344 175.023438 271.570312 C 173.628906 271.363281 172.238281 271.121094 170.851562 270.847656 C 169.46875 270.570312 168.089844 270.261719 166.722656 269.917969 C 165.351562 269.578125 163.992188 269.199219 162.640625 268.789062 C 161.292969 268.378906 159.953125 267.9375 158.621094 267.460938 C 157.292969 266.988281 155.976562 266.480469 154.671875 265.9375 C 153.367188 265.398438 152.078125 264.828125 150.800781 264.222656 C 149.527344 263.621094 148.265625 262.984375 147.019531 262.320312 C 145.777344 261.65625 144.546875 260.957031 143.335938 260.234375 C 142.128906 259.507812 140.933594 258.753906 139.761719 257.96875 C 138.585938 257.183594 137.433594 256.371094 136.300781 255.53125 C 135.167969 254.691406 134.054688 253.820312 132.960938 252.925781 C 131.871094 252.03125 130.804688 251.109375 129.757812 250.160156 C 128.710938 249.214844 127.6875 248.242188 126.691406 247.242188 C 125.691406 246.242188 124.71875 245.222656 123.773438 244.175781 C 122.824219 243.128906 121.902344 242.0625 121.007812 240.96875 C 120.113281 239.878906 119.242188 238.765625 118.402344 237.632812 C 117.5625 236.5 116.75 235.347656 115.964844 234.171875 C 115.179688 233 114.425781 231.804688 113.699219 230.59375 C 112.972656 229.386719 112.277344 228.15625 111.613281 226.914062 C 110.949219 225.667969 110.3125 224.40625 109.710938 223.128906 C 109.105469 221.855469 108.535156 220.566406 107.996094 219.261719 C 107.453125 217.957031 106.945312 216.640625 106.472656 215.3125 C 105.996094 213.980469 105.554688 212.640625 105.144531 211.292969 C 104.734375 209.941406 104.355469 208.582031 104.015625 207.210938 C 103.671875 205.84375 103.363281 204.464844 103.085938 203.082031 C 102.8125 201.695312 102.570312 200.304688 102.363281 198.910156 C 102.15625 197.511719 101.984375 196.113281 101.84375 194.707031 C 101.707031 193.304688 101.601562 191.894531 101.53125 190.484375 C 101.464844 189.078125 101.429688 187.664062 101.429688 186.253906 C 101.429688 184.84375 101.464844 183.433594 101.53125 182.023438 C 101.601562 180.613281 101.707031 179.203125 101.84375 177.800781 C 101.984375 176.394531 102.15625 174.996094 102.363281 173.597656 C 102.570312 172.203125 102.8125 170.8125 103.085938 169.425781 C 103.363281 168.042969 103.671875 166.667969 104.015625 165.296875 C 104.355469 163.929688 104.734375 162.566406 105.144531 161.21875 C 105.554688 159.867188 105.996094 158.527344 106.472656 157.199219 C 106.945312 155.867188 107.453125 154.550781 107.996094 153.246094 C 108.535156 151.945312 109.105469 150.652344 109.710938 149.378906 C 110.3125 148.101562 110.949219 146.839844 111.613281 145.597656 C 112.277344 144.351562 112.972656 143.125 113.699219 141.914062 C 114.425781 140.703125 115.179688 139.511719 115.964844 138.335938 C 116.75 137.164062 117.5625 136.007812 118.402344 134.875 C 119.242188 133.742188 120.113281 132.628906 121.007812 131.539062 C 121.902344 130.445312 122.824219 129.378906 123.773438 128.332031 C 124.71875 127.285156 125.691406 126.265625 126.691406 125.265625 C 127.6875 124.269531 128.710938 123.296875 129.757812 122.347656 C 130.804688 121.398438 131.871094 120.476562 132.960938 119.582031 C 134.054688 118.6875 135.167969 117.820312 136.300781 116.976562 C 137.433594 116.136719 138.585938 115.324219 139.761719 114.539062 C 140.933594 113.753906 142.128906 113 143.335938 112.273438 C 144.546875 111.550781 145.777344 110.855469 147.019531 110.1875 C 148.265625 109.523438 149.527344 108.886719 150.800781 108.285156 C 152.078125 107.679688 153.367188 107.109375 154.671875 106.570312 C 155.976562 106.03125 157.292969 105.523438 158.621094 105.046875 C 159.953125 104.570312 161.292969 104.128906 162.640625 103.71875 C 163.992188 103.308594 165.351562 102.933594 166.722656 102.589844 C 168.089844 102.246094 169.46875 101.9375 170.851562 101.660156 C 172.238281 101.386719 173.628906 101.144531 175.023438 100.9375 C 176.421875 100.730469 177.820312 100.558594 179.226562 100.417969 C 180.628906 100.28125 182.039062 100.175781 183.445312 100.109375 C 184.855469 100.039062 186.269531 100.003906 187.679688 100.003906 C 189.089844 100.003906 190.5 100.039062 191.910156 100.109375 C 193.320312 100.175781 194.726562 100.28125 196.132812 100.417969 C 197.539062 100.558594 198.9375 100.730469 200.335938 100.9375 C 201.730469 101.144531 203.121094 101.386719 204.503906 101.660156 C 205.890625 101.9375 207.265625 102.246094 208.636719 102.589844 C 210.003906 102.933594 211.367188 103.308594 212.714844 103.71875 C 214.066406 104.128906 215.40625 104.570312 216.734375 105.046875 C 218.066406 105.523438 219.382812 106.03125 220.6875 106.570312 C 221.988281 107.109375 223.28125 107.679688 224.554688 108.285156 C 225.832031 108.886719 227.09375 109.523438 228.335938 110.1875 C 229.582031 110.855469 230.808594 111.550781 232.019531 112.273438 C 233.230469 113 234.421875 113.753906 235.597656 114.539062 C 236.769531 115.324219 237.925781 116.136719 239.058594 116.976562 C 240.191406 117.820312 241.304688 118.6875 242.394531 119.582031 C 243.488281 120.476562 244.554688 121.398438 245.601562 122.347656 C 246.648438 123.296875 247.667969 124.269531 248.667969 125.265625 C 249.664062 126.265625 250.636719 127.285156 251.585938 128.332031 C 252.535156 129.378906 253.457031 130.445312 254.351562 131.539062 C 255.246094 132.628906 256.113281 133.742188 256.957031 134.875 C 257.796875 136.007812 258.609375 137.164062 259.394531 138.335938 C 260.175781 139.511719 260.933594 140.703125 261.660156 141.914062 C 262.382812 143.125 263.078125 144.351562 263.746094 145.597656 C 264.410156 146.839844 265.042969 148.101562 265.648438 149.378906 C 266.25 150.652344 266.824219 151.945312 267.363281 153.246094 C 267.902344 154.550781 268.410156 155.867188 268.886719 157.199219 C 269.363281 158.527344 269.804688 159.867188 270.214844 161.21875 C 270.625 162.566406 271 163.929688 271.34375 165.296875 C 271.6875 166.667969 271.996094 168.042969 272.273438 169.425781 C 272.546875 170.8125 272.789062 172.203125 272.996094 173.597656 C 273.203125 174.996094 273.375 176.394531 273.515625 177.800781 C 273.652344 179.203125 273.757812 180.613281 273.824219 182.023438 C 273.894531 183.433594 273.929688 184.84375 273.929688 186.253906 Z M 273.929688 186.253906"/></g><g clip-path="url(#c)"><path fill="#08AFB7" d="M 168.191406 236.613281 L 125.660156 194.078125 L 142.609375 177.125 L 168.191406 202.710938 L 232.460938 138.441406 L 249.410156 155.386719 Z M 168.191406 236.613281"/></g></svg>