<svg xmlns="http://www.w3.org/2000/svg" xmlns:xlink="http://www.w3.org/1999/xlink" width="375" viewBox="0 0 375 375" height="375" version="1.0"><defs><clipPath id="d"><path d="M 22 0.714844 L 48 0.714844 L 48 159 L 22 159 Z M 22 0.714844"/></clipPath><clipPath id="e"><path d="M 4 162 L 19 162 L 19 246.714844 L 4 246.714844 Z M 4 162"/></clipPath><clipPath id="f"><path d="M 227 0.714844 L 253 0.714844 L 253 159 L 227 159 Z M 227 0.714844"/></clipPath><clipPath id="g"><path d="M 202 0.714844 L 242 0.714844 L 242 164 L 202 164 Z M 202 0.714844"/></clipPath><clipPath id="h"><path d="M 33 0.714844 L 73 0.714844 L 73 164 L 33 164 Z M 33 0.714844"/></clipPath><clipPath id="i"><path d="M 256 162 L 271 162 L 271 246.714844 L 256 246.714844 Z M 256 162"/></clipPath><clipPath id="j"><path d="M 50 0.714844 L 123 0.714844 L 123 172 L 50 172 Z M 50 0.714844"/></clipPath><clipPath id="k"><path d="M 152 0.714844 L 225 0.714844 L 225 172 L 152 172 Z M 152 0.714844"/></clipPath><clipPath id="c"><path d="M0 0H274V248H0z"/></clipPath><clipPath id="l"><path d="M 74.777344 106.417969 L 98.777344 106.417969 L 98.777344 140.917969 L 74.777344 140.917969 Z M 74.777344 106.417969"/></clipPath><clipPath id="o"><path d="M 0.929688 1.203125 L 268.441406 1.203125 L 268.441406 268.203125 L 0.929688 268.203125 Z M 0.929688 1.203125"/></clipPath><clipPath id="n"><path d="M0 0H269V269H0z"/></clipPath><clipPath id="p"><path d="M 116.976562 132.71875 L 140.976562 132.71875 L 140.976562 167.21875 L 116.976562 167.21875 Z M 116.976562 132.71875"/></clipPath><clipPath id="q"><path d="M 240.132812 115.433594 L 264.132812 115.433594 L 264.132812 149.933594 L 240.132812 149.933594 Z M 240.132812 115.433594"/></clipPath><clipPath id="r"><path d="M 86.875 167.28125 L 110.875 167.28125 L 110.875 201.78125 L 86.875 201.78125 Z M 86.875 167.28125"/></clipPath><clipPath id="s"><path d="M 298.203125 188.574219 L 322.203125 188.574219 L 322.203125 223.074219 L 298.203125 223.074219 Z M 298.203125 188.574219"/></clipPath><clipPath id="t"><path d="M 252.230469 59.578125 L 276.230469 59.578125 L 276.230469 94.078125 L 252.230469 94.078125 Z M 252.230469 59.578125"/></clipPath><clipPath id="u"><path d="M 286.105469 132.71875 L 310.105469 132.71875 L 310.105469 167.21875 L 286.105469 167.21875 Z M 286.105469 132.71875"/></clipPath><clipPath id="v"><path d="M 150.792969 59.578125 L 174.792969 59.578125 L 174.792969 94.078125 L 150.792969 94.078125 Z M 150.792969 59.578125"/></clipPath><clipPath id="w"><path d="M 154 181 L 183 181 L 183 210 L 154 210 Z M 154 181"/></clipPath><clipPath id="x"><path d="M 138.972656 192.765625 L 205.351562 164.878906 L 255.023438 283.117188 L 188.644531 311.003906 Z M 138.972656 192.765625"/></clipPath><clipPath id="y"><path d="M 205.664062 164.746094 L 139.285156 192.632812 L 188.957031 310.875 L 255.339844 282.988281 Z M 205.664062 164.746094"/></clipPath><clipPath id="z"><path d="M 169 202 L 228 202 L 228 304 L 169 304 Z M 169 202"/></clipPath><clipPath id="A"><path d="M 138.972656 192.765625 L 205.351562 164.878906 L 255.023438 283.117188 L 188.644531 311.003906 Z M 138.972656 192.765625"/></clipPath><clipPath id="B"><path d="M 205.664062 164.746094 L 139.285156 192.632812 L 188.957031 310.875 L 255.339844 282.988281 Z M 205.664062 164.746094"/></clipPath><clipPath id="C"><path d="M 164 197 L 233 197 L 233 309 L 164 309 Z M 164 197"/></clipPath><clipPath id="D"><path d="M 138.972656 192.765625 L 205.351562 164.878906 L 255.023438 283.117188 L 188.644531 311.003906 Z M 138.972656 192.765625"/></clipPath><clipPath id="E"><path d="M 205.664062 164.746094 L 139.285156 192.632812 L 188.957031 310.875 L 255.339844 282.988281 Z M 205.664062 164.746094"/></clipPath><clipPath id="F"><path d="M 217.269531 192.367188 L 150.570312 220.386719 L 188.664062 311.070312 L 255.363281 283.050781 Z M 217.269531 192.367188"/></clipPath><clipPath id="G"><path d="M 217.269531 192.367188 L 150.886719 220.253906 L 188.933594 310.824219 L 255.316406 282.9375 Z M 217.269531 192.367188"/></clipPath><clipPath id="H"><path d="M 203 193 L 223 193 L 223 216 L 203 216 Z M 203 193"/></clipPath><clipPath id="I"><path d="M 138.972656 192.765625 L 205.351562 164.878906 L 255.023438 283.117188 L 188.644531 311.003906 Z M 138.972656 192.765625"/></clipPath><clipPath id="J"><path d="M 205.664062 164.746094 L 139.285156 192.632812 L 188.957031 310.875 L 255.339844 282.988281 Z M 205.664062 164.746094"/></clipPath><clipPath id="K"><path d="M 197 187 L 210 187 L 210 200 L 197 200 Z M 197 187"/></clipPath><clipPath id="L"><path d="M 138.972656 192.765625 L 205.351562 164.878906 L 255.023438 283.117188 L 188.644531 311.003906 Z M 138.972656 192.765625"/></clipPath><clipPath id="M"><path d="M 205.664062 164.746094 L 139.285156 192.632812 L 188.957031 310.875 L 255.339844 282.988281 Z M 205.664062 164.746094"/></clipPath><clipPath id="N"><path d="M 151 181 L 180 181 L 180 210 L 151 210 Z M 151 181"/></clipPath><clipPath id="O"><path d="M 135.824219 192.765625 L 202.203125 164.878906 L 251.875 283.117188 L 185.496094 311.003906 Z M 135.824219 192.765625"/></clipPath><clipPath id="P"><path d="M 202.515625 164.746094 L 136.136719 192.632812 L 185.808594 310.875 L 252.191406 282.988281 Z M 202.515625 164.746094"/></clipPath><clipPath id="Q"><path d="M 166 202 L 224 202 L 224 304 L 166 304 Z M 166 202"/></clipPath><clipPath id="R"><path d="M 135.824219 192.765625 L 202.203125 164.878906 L 251.875 283.117188 L 185.496094 311.003906 Z M 135.824219 192.765625"/></clipPath><clipPath id="S"><path d="M 202.515625 164.746094 L 136.136719 192.632812 L 185.808594 310.875 L 252.191406 282.988281 Z M 202.515625 164.746094"/></clipPath><clipPath id="T"><path d="M 161 197 L 230 197 L 230 309 L 161 309 Z M 161 197"/></clipPath><clipPath id="U"><path d="M 135.824219 192.765625 L 202.203125 164.878906 L 251.875 283.117188 L 185.496094 311.003906 Z M 135.824219 192.765625"/></clipPath><clipPath id="V"><path d="M 202.515625 164.746094 L 136.136719 192.632812 L 185.808594 310.875 L 252.191406 282.988281 Z M 202.515625 164.746094"/></clipPath><clipPath id="W"><path d="M 214.121094 192.367188 L 147.421875 220.386719 L 185.515625 311.070312 L 252.21875 283.050781 Z M 214.121094 192.367188"/></clipPath><clipPath id="X"><path d="M 214.121094 192.367188 L 147.738281 220.253906 L 185.785156 310.824219 L 252.167969 282.9375 Z M 214.121094 192.367188"/></clipPath><clipPath id="Y"><path d="M 200 193 L 220 193 L 220 216 L 200 216 Z M 200 193"/></clipPath><clipPath id="Z"><path d="M 135.824219 192.765625 L 202.203125 164.878906 L 251.875 283.117188 L 185.496094 311.003906 Z M 135.824219 192.765625"/></clipPath><clipPath id="aa"><path d="M 202.515625 164.746094 L 136.136719 192.632812 L 185.808594 310.875 L 252.191406 282.988281 Z M 202.515625 164.746094"/></clipPath><clipPath id="ab"><path d="M 194 187 L 206 187 L 206 200 L 194 200 Z M 194 187"/></clipPath><clipPath id="ac"><path d="M 135.824219 192.765625 L 202.203125 164.878906 L 251.875 283.117188 L 185.496094 311.003906 Z M 135.824219 192.765625"/></clipPath><clipPath id="ad"><path d="M 202.515625 164.746094 L 136.136719 192.632812 L 185.808594 310.875 L 252.191406 282.988281 Z M 202.515625 164.746094"/></clipPath><clipPath id="ae"><path d="M 16.929688 18.003906 L 358.179688 18.003906 L 358.179688 359.253906 L 16.929688 359.253906 Z M 16.929688 18.003906"/></clipPath><clipPath id="af"><path d="M 251.480469 60.214844 L 275.480469 60.214844 L 275.480469 94.714844 L 251.480469 94.714844 Z M 251.480469 60.214844"/></clipPath><mask id="b"><g filter="url(#a)"><path fill-opacity=".549" d="M-37.5 -37.5H412.5V412.5H-37.5z"/></g></mask><mask id="m"><g filter="url(#a)"><path fill-opacity=".188" d="M-37.5 -37.5H412.5V412.5H-37.5z"/></g></mask><filter x="0%" y="0%" width="100%" xmlns:xlink="http://www.w3.org/1999/xlink" xlink:type="simple" xlink:actuate="onLoad" height="100%" id="a" xlink:show="other"><feColorMatrix values="0 0 0 0 1 0 0 0 0 1 0 0 0 0 1 0 0 0 1 0" color-interpolation-filters="sRGB"/></filter></defs><g mask="url(#b)"><g><g clip-path="url(#c)" transform="translate(50 61)"><g clip-path="url(#d)"><path fill="#FF885F" d="M 26.566406 133.355469 C 26.820312 124.242188 27.09375 114.972656 27.359375 106.011719 C 27.703125 94.378906 28.054688 82.351562 28.375 70.515625 C 28.601562 62.082031 28.589844 53.433594 28.578125 45.070312 C 28.554688 31.578125 28.535156 17.660156 29.519531 4.164062 C 30.574219 4.324219 31.664062 4.402344 32.832031 4.402344 C 34.066406 4.402344 35.242188 4.316406 36.378906 4.238281 C 37.480469 4.15625 38.519531 4.082031 39.578125 4.082031 C 41.109375 4.082031 42.441406 4.246094 43.75 4.609375 C 45.351562 12.234375 44.441406 21.910156 43.628906 30.507812 C 43.335938 33.609375 43.0625 36.539062 42.898438 39.308594 C 42.273438 50.082031 41.441406 61.328125 40.351562 73.691406 C 38.1875 98.320312 36.074219 117.242188 33.5 135.046875 C 32.53125 141.757812 31.015625 148.402344 29.546875 154.484375 C 28.417969 153.824219 27.328125 153.175781 26.28125 152.542969 C 25.964844 152.347656 25.648438 152.160156 25.328125 151.96875 C 26 145.171875 26.40625 139.066406 26.566406 133.355469 Z M 31.28125 158.535156 C 33.144531 150.902344 34.976562 143.273438 36.109375 135.429688 C 39.0625 115.015625 41.175781 94.464844 42.980469 73.921875 C 43.992188 62.449219 44.867188 50.960938 45.535156 39.460938 C 46.183594 28.304688 48.832031 13.488281 45.976562 2.558594 C 43.636719 1.675781 41.554688 1.441406 39.578125 1.441406 C 37.277344 1.441406 35.113281 1.757812 32.832031 1.757812 C 31.046875 1.757812 29.1875 1.5625 27.132812 0.867188 C 25.179688 23.796875 26.359375 47.421875 25.738281 70.445312 C 25.175781 91.390625 24.515625 112.335938 23.929688 133.28125 C 23.738281 140.027344 23.222656 146.71875 22.535156 153.382812 C 23.253906 153.804688 24.039062 154.269531 24.914062 154.800781 C 26.910156 156.011719 29.039062 157.257812 31.28125 158.535156"/></g><path fill="#FF885F" d="M 18.328125 241.949219 C 16.347656 220.253906 19.28125 198.746094 22.121094 177.917969 C 22.269531 176.847656 22.414062 175.78125 22.558594 174.710938 C 23.214844 175.191406 23.886719 175.675781 24.566406 176.164062 C 20.203125 198.839844 19.875 218.949219 23.546875 240.871094 C 21.777344 241.121094 20.152344 241.5 18.328125 241.949219 Z M 27.277344 176.046875 C 27.347656 175.699219 27.421875 175.355469 27.492188 175.007812 C 25.269531 173.429688 23.167969 171.894531 21.191406 170.414062 C 20.972656 170.25 20.757812 170.089844 20.542969 169.929688 C 17.226562 194.84375 13.128906 219.574219 16.007812 245.226562 C 20.410156 244.191406 22.867188 243.410156 26.636719 243.230469 C 22.386719 219.863281 22.742188 199.261719 27.277344 176.046875"/><path fill="#FF885F" d="M 4.871094 5.023438 C 7 4.300781 8.75 4.199219 10.074219 4.199219 C 11.078125 4.199219 12.070312 4.265625 13.117188 4.332031 C 14.214844 4.40625 15.347656 4.480469 16.546875 4.480469 C 17.296875 4.480469 18.019531 4.449219 18.722656 4.390625 C 17.964844 10.9375 18.222656 17.878906 18.46875 24.632812 C 18.601562 28.246094 18.730469 31.660156 18.703125 34.949219 C 18.617188 45.308594 18.507812 55.839844 18.398438 66.027344 L 18.347656 71.152344 C 18.3125 74.464844 18.273438 77.777344 18.238281 81.089844 C 18.050781 98.164062 17.859375 115.816406 17.90625 133.1875 C 17.917969 137.613281 17.769531 142.230469 17.460938 147.195312 C 16.613281 146.578125 15.804688 145.898438 14.808594 144.960938 C 14.605469 144.765625 14.402344 144.570312 14.207031 144.378906 C 13.917969 142.394531 13.53125 140.414062 13.160156 138.492188 C 12.714844 136.1875 12.253906 133.808594 11.972656 131.519531 C 9.457031 110.960938 8.320312 89.851562 7.21875 69.4375 L 7.0625 66.539062 C 6.46875 55.539062 5.914062 44.097656 5.371094 31.574219 C 5.289062 29.683594 5.011719 27.28125 4.714844 24.738281 C 3.953125 18.175781 2.921875 9.320312 4.871094 5.023438 Z M 9.355469 131.839844 C 9.917969 136.417969 11.105469 141.015625 11.714844 145.59375 C 12.101562 146.003906 12.523438 146.4375 13 146.882812 C 15.441406 149.179688 16.9375 150.117188 19.78125 151.777344 C 20.265625 145.59375 20.558594 139.398438 20.542969 133.179688 C 20.488281 112.511719 20.769531 91.84375 20.984375 71.179688 C 21.109375 59.109375 21.242188 47.039062 21.339844 34.972656 C 21.425781 24.21875 19.898438 11.761719 21.871094 1.136719 C 19.933594 1.679688 18.195312 1.835938 16.546875 1.835938 C 14.328125 1.835938 12.265625 1.554688 10.074219 1.554688 C 7.933594 1.554688 5.671875 1.824219 3.023438 2.890625 C -0.914062 9.207031 2.425781 24.527344 2.734375 31.6875 C 3.242188 43.355469 3.800781 55.019531 4.429688 66.679688 C 5.601562 88.40625 6.710938 110.234375 9.355469 131.839844"/><path fill="#FF885F" d="M 50.445312 183.59375 C 48.851562 182.578125 46.421875 181.003906 42.59375 178.453125 C 35.832031 173.945312 29.78125 169.695312 24.609375 165.828125 C 19.488281 161.996094 15.609375 158.953125 12.398438 154.730469 C 12.042969 154.265625 11.722656 153.726562 11.445312 153.121094 C 13.394531 154.683594 15.121094 155.6875 17.6875 157.179688 L 17.738281 157.207031 L 17.792969 157.238281 C 18.96875 157.921875 20.300781 158.695312 21.957031 159.703125 C 28.253906 163.511719 35.765625 167.675781 44.292969 172.074219 C 48.226562 174.101562 51.457031 175.621094 53.867188 176.75 C 52.96875 180.144531 51.839844 182.402344 50.445312 183.59375 Z M 23.324219 157.441406 C 21.621094 156.410156 20.261719 155.621094 19.0625 154.921875 L 19.003906 154.886719 C 15.539062 152.875 13.800781 151.867188 10.894531 149.132812 C 10.546875 148.804688 10.21875 148.480469 9.90625 148.164062 L 7.085938 145.277344 L 7.65625 149.273438 C 8.070312 152.164062 8.984375 154.601562 10.296875 156.332031 C 13.71875 160.828125 17.734375 163.980469 23.03125 167.945312 C 28.238281 171.839844 34.328125 176.117188 41.132812 180.652344 C 45.640625 183.65625 48.226562 185.316406 49.777344 186.304688 L 50.460938 186.738281 L 51.160156 186.320312 C 53.683594 184.8125 55.441406 181.636719 56.695312 176.320312 L 56.941406 175.277344 L 55.292969 174.503906 C 52.875 173.367188 49.558594 171.816406 45.5 169.726562 C 37.03125 165.355469 29.570312 161.222656 23.324219 157.441406"/><g clip-path="url(#e)"><path fill="#FF885F" d="M 7.578125 244.085938 C 7.386719 244.085938 7.203125 244.078125 7.035156 244.058594 C 6.121094 228.332031 8.269531 211.667969 10.351562 195.535156 C 11.324219 187.984375 12.328125 180.175781 12.984375 172.683594 C 13.125 171.0625 13.300781 169.433594 13.492188 167.75 C 14.074219 168.238281 14.6875 168.738281 15.34375 169.261719 C 14.863281 173.261719 14.34375 177.304688 13.839844 181.230469 C 11.230469 201.5625 8.535156 222.5625 10.308594 243.753906 C 9.226562 243.957031 8.316406 244.085938 7.578125 244.085938 Z M 18.140625 168.101562 C 15.699219 166.207031 13.476562 164.355469 11.449219 162.316406 C 11.078125 165.742188 10.644531 169.148438 10.355469 172.453125 C 8.269531 196.339844 2.761719 222.058594 4.519531 246.042969 C 5.527344 246.527344 6.480469 246.730469 7.578125 246.730469 C 9.035156 246.730469 10.742188 246.378906 13.152344 245.871094 C 10.53125 219.601562 15.09375 193.910156 18.140625 168.101562"/></g><g clip-path="url(#f)"><path fill="#FF885F" d="M 231.152344 4.609375 C 232.460938 4.246094 233.796875 4.082031 235.328125 4.082031 C 236.382812 4.082031 237.421875 4.15625 238.523438 4.238281 C 239.660156 4.316406 240.839844 4.402344 242.074219 4.402344 C 243.238281 4.402344 244.332031 4.324219 245.382812 4.164062 C 246.371094 17.660156 246.347656 31.578125 246.328125 45.070312 C 246.316406 53.433594 246.300781 62.082031 246.527344 70.515625 C 246.847656 82.351562 247.203125 94.378906 247.542969 106.011719 C 247.808594 114.972656 248.082031 124.242188 248.335938 133.355469 C 248.496094 139.066406 248.902344 145.171875 249.574219 151.96875 C 249.253906 152.160156 248.9375 152.351562 248.625 152.539062 C 247.578125 153.171875 246.484375 153.824219 245.355469 154.484375 C 243.886719 148.402344 242.371094 141.757812 241.402344 135.046875 C 238.828125 117.242188 236.714844 98.320312 234.550781 73.691406 C 233.460938 61.328125 232.628906 50.082031 232.003906 39.308594 C 231.84375 36.539062 231.566406 33.609375 231.273438 30.507812 C 230.464844 21.910156 229.550781 12.234375 231.152344 4.609375 Z M 231.921875 73.921875 C 233.730469 94.464844 235.84375 115.015625 238.792969 135.429688 C 239.925781 143.273438 241.761719 150.902344 243.625 158.535156 C 245.867188 157.257812 247.992188 156.011719 249.988281 154.800781 C 250.863281 154.269531 251.648438 153.804688 252.367188 153.382812 C 251.679688 146.71875 251.164062 140.027344 250.976562 133.28125 C 250.386719 112.335938 249.730469 91.390625 249.164062 70.445312 C 248.546875 47.421875 249.722656 23.796875 247.773438 0.867188 C 245.71875 1.5625 243.859375 1.757812 242.074219 1.757812 C 239.789062 1.757812 237.625 1.441406 235.328125 1.441406 C 233.347656 1.441406 231.269531 1.675781 228.925781 2.558594 C 226.074219 13.488281 228.722656 28.304688 229.371094 39.460938 C 230.039062 50.960938 230.914062 62.449219 231.921875 73.921875"/></g><path fill="#FF885F" d="M 252.949219 159.699219 C 254.601562 158.695312 255.933594 157.921875 257.113281 157.238281 L 257.152344 157.214844 L 257.230469 157.171875 C 259.785156 155.683594 261.507812 154.683594 263.460938 153.121094 C 263.179688 153.726562 262.863281 154.265625 262.507812 154.730469 C 259.292969 158.957031 255.417969 161.996094 250.292969 165.828125 C 245.128906 169.691406 239.082031 173.941406 232.3125 178.453125 C 228.472656 181.007812 226.046875 182.582031 224.460938 183.59375 C 223.0625 182.402344 221.933594 180.144531 221.035156 176.75 C 223.445312 175.625 226.675781 174.101562 230.613281 172.074219 C 239.140625 167.671875 246.652344 163.511719 252.949219 159.699219 Z M 219.609375 174.503906 L 217.964844 175.277344 L 218.210938 176.320312 C 219.460938 181.636719 221.222656 184.8125 223.746094 186.320312 L 224.441406 186.738281 L 225.125 186.304688 C 226.679688 185.316406 229.265625 183.65625 233.773438 180.652344 C 240.578125 176.113281 246.667969 171.839844 251.871094 167.945312 C 257.167969 163.980469 261.183594 160.828125 264.605469 156.332031 C 265.921875 154.601562 266.832031 152.164062 267.246094 149.273438 L 267.816406 145.269531 L 264.996094 148.164062 C 264.6875 148.476562 264.359375 148.804688 264.011719 149.128906 C 261.101562 151.867188 259.363281 152.875 255.898438 154.886719 L 255.839844 154.921875 C 254.640625 155.621094 253.28125 156.410156 251.582031 157.4375 C 245.335938 161.21875 237.875 165.355469 229.40625 169.722656 C 225.34375 171.816406 222.03125 173.367188 219.609375 174.503906"/><path fill="#FF885F" d="M 181.824219 4.160156 C 183.230469 4.414062 184.671875 4.53125 186.261719 4.53125 C 187.523438 4.53125 188.734375 4.457031 189.90625 4.386719 C 191.058594 4.316406 192.148438 4.25 193.269531 4.25 C 194.214844 4.25 195.089844 4.296875 195.929688 4.402344 C 193.105469 12.082031 194.777344 24.808594 196.953125 38.300781 C 197.382812 40.960938 197.753906 43.253906 197.960938 45.007812 C 199.414062 57.203125 201.441406 69.851562 203.988281 82.609375 C 208.253906 103.996094 213.199219 122.773438 219.105469 140.019531 C 221.3125 146.46875 223.996094 152.746094 226.59375 158.824219 C 227.273438 160.414062 227.96875 162.039062 228.65625 163.664062 C 228.113281 163.949219 227.578125 164.226562 227.050781 164.5 C 224.8125 160.082031 222.386719 155.746094 220.03125 151.535156 C 217.175781 146.429688 214.222656 141.152344 211.660156 135.8125 C 203.816406 119.496094 197.28125 102.046875 192.238281 83.949219 C 188.972656 72.226562 186.355469 60.269531 184.464844 48.414062 C 184.253906 47.09375 183.925781 45.324219 183.542969 43.273438 C 182.402344 37.15625 180.679688 27.914062 180.117188 19.707031 C 179.453125 10.007812 180.667969 5.898438 181.824219 4.160156 Z M 189.699219 84.660156 C 194.699219 102.609375 201.210938 120.167969 209.28125 136.960938 C 214.386719 147.582031 220.734375 157.492188 225.875 168.0625 C 226.558594 167.71875 227.261719 167.363281 227.996094 166.984375 C 229.367188 166.277344 230.707031 165.578125 232.023438 164.882812 C 228.484375 156.347656 224.613281 147.964844 221.601562 139.164062 C 215.226562 120.550781 210.421875 101.375 206.574219 82.089844 C 204.101562 69.703125 202.074219 57.234375 200.582031 44.691406 C 199.441406 35.144531 193.753906 10.578125 199.867188 2.558594 C 197.441406 1.808594 195.296875 1.605469 193.269531 1.605469 C 190.871094 1.605469 188.632812 1.890625 186.261719 1.890625 C 184.578125 1.890625 182.828125 1.746094 180.910156 1.257812 C 172.945312 7.730469 180.40625 39.703125 181.859375 48.832031 C 183.785156 60.910156 186.414062 72.878906 189.699219 84.660156"/><g clip-path="url(#g)"><path fill="#FF885F" d="M 206.234375 3.480469 C 207.410156 3.578125 208.578125 3.746094 209.71875 3.984375 C 210.882812 4.226562 212.097656 4.347656 213.328125 4.347656 C 215.007812 4.347656 216.746094 4.121094 218.496094 3.671875 C 219.1875 3.496094 219.902344 3.394531 220.625 3.375 C 218.851562 11.566406 219.988281 21.800781 221.003906 30.953125 C 221.34375 34.015625 221.667969 36.910156 221.84375 39.453125 C 222.601562 50.503906 223.605469 61.894531 224.910156 74.28125 C 227.46875 98.5625 230.113281 118.105469 233.234375 135.785156 C 234.589844 143.472656 236.625 151.019531 238.613281 158.324219 C 237.527344 158.925781 236.414062 159.535156 235.28125 160.148438 C 234.824219 158.96875 234.371094 157.792969 233.921875 156.640625 C 231.46875 150.335938 228.929688 143.8125 226.933594 137.234375 C 221.714844 120.058594 217.289062 101.128906 213.410156 79.371094 C 211.121094 66.566406 209.304688 53.96875 208.003906 41.941406 C 207.785156 39.917969 207.40625 37.429688 206.964844 34.550781 C 205.554688 25.324219 203.253906 10.285156 206.234375 3.480469 Z M 210.8125 79.835938 C 214.308594 99.429688 218.621094 118.953125 224.410156 138.003906 C 227.09375 146.84375 230.632812 155.308594 233.890625 163.890625 C 236.625 162.4375 239.226562 161.011719 241.699219 159.625 C 239.519531 151.589844 237.289062 143.585938 235.832031 135.324219 C 232.246094 115.019531 229.695312 94.507812 227.535156 74.003906 C 226.316406 62.445312 225.273438 50.867188 224.472656 39.273438 C 223.722656 28.324219 220.378906 11.644531 223.988281 1.09375 C 222.933594 0.851562 221.902344 0.726562 220.890625 0.726562 C 219.851562 0.726562 218.835938 0.859375 217.839844 1.113281 C 216.359375 1.492188 214.84375 1.707031 213.328125 1.707031 C 212.300781 1.707031 211.269531 1.609375 210.253906 1.398438 C 208.441406 1.019531 206.597656 0.804688 204.71875 0.753906 C 199.039062 9.320312 204.316406 32.398438 205.378906 42.226562 C 206.742188 54.824219 208.585938 67.363281 210.8125 79.835938"/></g><path fill="#FF885F" d="M 77.949219 38.300781 C 80.125 24.808594 81.796875 12.082031 78.972656 4.402344 C 79.816406 4.296875 80.691406 4.25 81.632812 4.25 C 82.753906 4.25 83.84375 4.316406 84.996094 4.386719 C 86.167969 4.457031 87.378906 4.53125 88.640625 4.53125 C 90.230469 4.53125 91.675781 4.414062 93.078125 4.160156 C 94.234375 5.898438 95.453125 10.007812 94.785156 19.707031 C 94.222656 27.914062 92.5 37.15625 91.359375 43.273438 C 90.980469 45.324219 90.648438 47.09375 90.4375 48.414062 C 88.546875 60.269531 85.933594 72.226562 82.664062 83.949219 C 77.621094 102.046875 71.089844 119.496094 63.246094 135.8125 C 60.679688 141.152344 57.726562 146.429688 54.871094 151.535156 C 52.515625 155.746094 50.089844 160.082031 47.851562 164.5 C 47.320312 164.222656 46.785156 163.945312 46.25 163.664062 C 46.933594 162.039062 47.628906 160.410156 48.3125 158.820312 C 50.90625 152.746094 53.589844 146.464844 55.796875 140.019531 C 61.703125 122.773438 66.648438 103.996094 70.917969 82.609375 C 73.460938 69.851562 75.488281 57.203125 76.941406 45.007812 C 77.152344 43.253906 77.523438 40.960938 77.949219 38.300781 Z M 68.332031 82.089844 C 64.480469 101.375 59.675781 120.550781 53.300781 139.164062 C 50.289062 147.964844 46.417969 156.347656 42.878906 164.882812 C 44.195312 165.578125 45.539062 166.277344 46.910156 166.984375 C 47.644531 167.363281 48.34375 167.71875 49.03125 168.0625 C 54.167969 157.492188 60.515625 147.582031 65.621094 136.960938 C 73.695312 120.167969 80.203125 102.609375 85.207031 84.660156 C 88.488281 72.878906 91.117188 60.910156 93.042969 48.832031 C 94.5 39.703125 101.960938 7.730469 93.992188 1.257812 C 92.074219 1.746094 90.324219 1.890625 88.640625 1.890625 C 86.269531 1.890625 84.03125 1.605469 81.632812 1.605469 C 79.605469 1.605469 77.464844 1.808594 75.035156 2.558594 C 81.148438 10.578125 75.460938 35.144531 74.324219 44.691406 C 72.828125 57.234375 70.800781 69.703125 68.332031 82.089844"/><g clip-path="url(#h)"><path fill="#FF885F" d="M 49.992188 74.28125 C 51.296875 61.898438 52.300781 50.503906 53.0625 39.453125 C 53.238281 36.910156 53.558594 34.015625 53.898438 30.953125 C 54.914062 21.800781 56.054688 11.566406 54.277344 3.375 C 55 3.394531 55.714844 3.496094 56.40625 3.671875 C 58.15625 4.121094 59.894531 4.347656 61.574219 4.347656 C 62.808594 4.347656 64.019531 4.226562 65.1875 3.984375 C 66.324219 3.746094 67.492188 3.578125 68.667969 3.480469 C 71.648438 10.285156 69.347656 25.324219 67.941406 34.550781 C 67.5 37.429688 67.121094 39.917969 66.902344 41.941406 C 65.597656 53.96875 63.78125 66.566406 61.496094 79.371094 C 57.613281 101.128906 53.1875 120.058594 47.96875 137.234375 C 45.972656 143.8125 43.433594 150.335938 40.980469 156.640625 C 40.535156 157.792969 40.078125 158.96875 39.621094 160.148438 C 38.488281 159.53125 37.378906 158.921875 36.292969 158.324219 C 38.277344 151.019531 40.3125 143.472656 41.667969 135.785156 C 44.789062 118.105469 47.433594 98.5625 49.992188 74.28125 Z M 33.203125 159.625 C 35.675781 161.011719 38.28125 162.4375 41.011719 163.890625 C 44.273438 155.308594 47.808594 146.84375 50.496094 138.003906 C 56.28125 118.953125 60.597656 99.429688 64.09375 79.835938 C 66.316406 67.363281 68.160156 54.824219 69.523438 42.226562 C 70.585938 32.398438 75.863281 9.320312 70.183594 0.753906 C 68.308594 0.804688 66.460938 1.019531 64.648438 1.398438 C 63.632812 1.609375 62.605469 1.707031 61.574219 1.707031 C 60.058594 1.707031 58.542969 1.492188 57.0625 1.113281 C 56.066406 0.859375 55.050781 0.726562 54.011719 0.726562 C 53 0.726562 51.96875 0.851562 50.917969 1.09375 C 54.523438 11.644531 51.183594 28.324219 50.429688 39.273438 C 49.632812 50.867188 48.585938 62.445312 47.367188 74.003906 C 45.210938 94.507812 42.65625 115.019531 39.070312 135.324219 C 37.613281 143.585938 35.386719 151.589844 33.203125 159.625"/></g><path fill="#FF885F" d="M 256.578125 241.949219 C 254.75 241.5 253.125 241.121094 251.359375 240.871094 C 255.027344 218.949219 254.703125 198.839844 250.335938 176.164062 C 251.019531 175.675781 251.6875 175.191406 252.34375 174.710938 C 252.488281 175.777344 252.636719 176.847656 252.78125 177.917969 C 255.621094 198.746094 258.554688 220.253906 256.578125 241.949219 Z M 253.710938 170.414062 C 251.734375 171.894531 249.632812 173.429688 247.414062 175.007812 C 247.484375 175.355469 247.558594 175.699219 247.625 176.046875 C 252.164062 199.261719 252.515625 219.863281 248.265625 243.230469 C 252.035156 243.410156 254.496094 244.191406 258.894531 245.226562 C 261.777344 219.574219 257.675781 194.839844 254.363281 169.929688 C 254.148438 170.089844 253.929688 170.25 253.710938 170.414062"/><path fill="#FF885F" d="M 247.835938 209.730469 C 247.535156 220.261719 245.621094 230.800781 243.683594 241.03125 C 243.101562 241.164062 242.558594 241.308594 242.050781 241.445312 C 241.53125 241.585938 241.046875 241.714844 240.578125 241.820312 C 240.976562 240.121094 241.382812 238.421875 241.78125 236.761719 C 243.824219 228.226562 245.941406 219.398438 246.6875 210.378906 C 247.511719 200.421875 245.082031 190.878906 242.527344 181.640625 C 243.046875 181.285156 243.558594 180.929688 244.070312 180.578125 C 246.105469 190.164062 248.113281 200.039062 247.835938 209.730469 Z M 245.839844 176.203125 C 245.832031 176.179688 245.828125 176.15625 245.824219 176.132812 C 243.796875 177.5625 241.679688 179.027344 239.476562 180.523438 C 242.175781 190.21875 244.898438 200.023438 244.058594 210.164062 C 243.089844 221.847656 239.789062 233.128906 237.253906 244.523438 C 237.808594 244.632812 238.335938 244.679688 238.84375 244.679688 C 241.234375 244.679688 243.242188 243.648438 245.9375 243.300781 C 248.039062 232.25 250.148438 221.082031 250.472656 209.804688 C 250.796875 198.496094 248.160156 187.214844 245.839844 176.203125"/><path fill="#FF885F" d="M 239.933594 209.183594 C 239.109375 217.808594 236.878906 226.421875 234.722656 234.753906 C 234.292969 236.414062 233.855469 238.105469 233.425781 239.804688 C 231.816406 238.722656 230.21875 237.445312 228.65625 236.191406 C 228.261719 235.875 227.863281 235.554688 227.460938 235.238281 C 227.980469 233.742188 228.511719 232.230469 229.03125 230.757812 C 232.625 220.566406 236.339844 210.03125 237.261719 199.238281 C 237.613281 195.109375 237.167969 190.902344 235.855469 186.140625 C 236.085938 185.988281 236.320312 185.832031 236.558594 185.675781 C 238.71875 193.011719 240.710938 201.066406 239.933594 209.183594 Z M 238.058594 181.488281 C 237.210938 182.0625 236.351562 182.636719 235.480469 183.21875 C 234.492188 183.875 233.597656 184.46875 232.773438 185.011719 C 234.1875 189.523438 235.050781 194.125 234.632812 199.011719 C 233.550781 211.671875 228.421875 224.199219 224.355469 236.167969 C 227.695312 238.691406 231.296875 242.015625 235.144531 243.84375 C 237.890625 232.449219 241.4375 221.160156 242.5625 209.4375 C 243.484375 199.800781 240.824219 190.628906 238.058594 181.488281"/><g clip-path="url(#i)"><path fill="#FF885F" d="M 267.871094 244.058594 C 267.699219 244.078125 267.519531 244.085938 267.324219 244.085938 C 266.589844 244.085938 265.675781 243.957031 264.59375 243.753906 C 266.367188 222.5625 263.671875 201.5625 261.0625 181.230469 C 260.558594 177.304688 260.039062 173.261719 259.558594 169.261719 C 260.214844 168.738281 260.832031 168.238281 261.414062 167.75 C 261.601562 169.433594 261.777344 171.0625 261.917969 172.683594 C 262.574219 180.175781 263.582031 187.984375 264.554688 195.535156 C 266.632812 211.667969 268.78125 228.332031 267.871094 244.058594 Z M 263.457031 162.316406 C 261.425781 164.355469 259.203125 166.207031 256.761719 168.101562 C 259.8125 193.910156 264.375 219.601562 261.75 245.871094 C 264.164062 246.375 265.871094 246.730469 267.324219 246.730469 C 268.421875 246.730469 269.378906 246.527344 270.386719 246.042969 C 272.140625 222.058594 266.632812 196.339844 264.546875 172.453125 C 264.257812 169.148438 263.824219 165.742188 263.457031 162.316406"/></g><path fill="#FF885F" d="M 270.1875 24.738281 C 269.894531 27.28125 269.613281 29.683594 269.53125 31.574219 C 268.988281 44.097656 268.433594 55.539062 267.839844 66.539062 L 267.683594 69.4375 C 266.582031 89.851562 265.445312 110.960938 262.929688 131.519531 C 262.648438 133.808594 262.1875 136.1875 261.742188 138.492188 C 261.371094 140.414062 260.988281 142.394531 260.695312 144.378906 C 260.5 144.570312 260.300781 144.765625 260.097656 144.957031 C 259.101562 145.898438 258.292969 146.578125 257.441406 147.195312 C 257.132812 142.230469 256.988281 137.613281 257 133.1875 C 257.046875 115.816406 256.851562 98.164062 256.664062 81.089844 C 256.628906 77.777344 256.59375 74.464844 256.558594 71.152344 L 256.503906 66.027344 C 256.398438 55.839844 256.285156 45.308594 256.203125 34.949219 C 256.175781 31.660156 256.300781 28.246094 256.433594 24.632812 C 256.683594 17.878906 256.9375 10.9375 256.183594 4.390625 C 256.882812 4.449219 257.605469 4.480469 258.355469 4.480469 C 259.554688 4.480469 260.691406 4.40625 261.789062 4.332031 C 262.835938 4.265625 263.824219 4.199219 264.828125 4.199219 C 266.152344 4.199219 267.902344 4.300781 270.03125 5.023438 C 271.980469 9.320312 270.953125 18.175781 270.1875 24.738281 Z M 271.878906 2.890625 C 269.234375 1.824219 266.96875 1.554688 264.828125 1.554688 C 262.636719 1.554688 260.574219 1.835938 258.355469 1.835938 C 256.707031 1.835938 254.972656 1.679688 253.035156 1.136719 C 255.003906 11.761719 253.476562 24.21875 253.5625 34.972656 C 253.660156 47.039062 253.792969 59.109375 253.917969 71.179688 C 254.136719 91.84375 254.414062 112.511719 254.359375 133.179688 C 254.34375 139.398438 254.636719 145.59375 255.121094 151.777344 C 257.964844 150.117188 259.464844 149.179688 261.902344 146.882812 C 262.378906 146.433594 262.804688 146.003906 263.1875 145.59375 C 263.796875 141.015625 264.988281 136.417969 265.546875 131.839844 C 268.195312 110.234375 269.300781 88.40625 270.476562 66.679688 C 271.105469 55.019531 271.660156 43.355469 272.167969 31.6875 C 272.476562 24.527344 275.820312 9.207031 271.878906 2.890625"/><path fill="#FF885F" d="M 34.324219 241.820312 C 33.855469 241.714844 33.371094 241.585938 32.851562 241.445312 C 32.34375 241.308594 31.800781 241.164062 31.21875 241.03125 C 29.28125 230.800781 27.371094 220.261719 27.066406 209.730469 C 26.789062 200.039062 28.796875 190.164062 30.832031 180.578125 C 31.34375 180.929688 31.859375 181.285156 32.378906 181.640625 C 29.820312 190.878906 27.390625 200.421875 28.21875 210.378906 C 28.964844 219.398438 31.078125 228.226562 33.125 236.761719 C 33.519531 238.421875 33.929688 240.121094 34.324219 241.820312 Z M 35.425781 180.523438 C 33.222656 179.027344 31.105469 177.5625 29.082031 176.132812 C 29.078125 176.15625 29.070312 176.179688 29.066406 176.203125 C 26.742188 187.214844 24.105469 198.496094 24.429688 209.804688 C 24.753906 221.082031 26.863281 232.25 28.964844 243.300781 C 31.664062 243.648438 33.667969 244.679688 36.058594 244.679688 C 36.570312 244.679688 37.09375 244.632812 37.648438 244.523438 C 35.113281 233.128906 31.8125 221.847656 30.84375 210.164062 C 30.003906 200.023438 32.730469 190.21875 35.425781 180.523438"/><path fill="#FF885F" d="M 56.96875 229.710938 C 56.457031 229.925781 55.875 230.1875 55.226562 230.5 C 55.070312 230.078125 54.914062 229.65625 54.753906 229.234375 C 51.289062 220.003906 47.71875 210.496094 46.054688 201.074219 C 48.253906 209.765625 52.089844 218.542969 55.566406 226.5 C 56.046875 227.597656 56.511719 228.664062 56.96875 229.710938 Z M 47.25 188.34375 C 46.289062 187.730469 45.167969 187.007812 43.8125 186.117188 C 42.84375 189.8125 42.390625 193.613281 42.875 197.640625 C 44.359375 210.019531 49.480469 222.570312 53.796875 234.210938 C 58.445312 231.664062 60.503906 231.261719 60.503906 231.261719 C 55.535156 219.554688 48.796875 205.898438 47.207031 193.128906 C 46.996094 191.453125 47.03125 189.867188 47.25 188.34375"/><path fill="#FF885F" d="M 47.441406 235.238281 C 47.042969 235.554688 46.640625 235.875 46.25 236.191406 C 44.6875 237.445312 43.089844 238.722656 41.476562 239.804688 C 41.050781 238.105469 40.613281 236.414062 40.183594 234.753906 C 38.027344 226.421875 35.792969 217.808594 34.96875 209.183594 C 34.191406 201.066406 36.1875 193.011719 38.347656 185.675781 C 38.585938 185.832031 38.820312 185.988281 39.046875 186.140625 C 37.734375 190.902344 37.289062 195.109375 37.640625 199.238281 C 38.5625 210.03125 42.277344 220.566406 45.871094 230.757812 C 46.390625 232.230469 46.925781 233.742188 47.441406 235.238281 Z M 42.128906 185.011719 C 41.304688 184.46875 40.410156 183.875 39.425781 183.222656 C 38.554688 182.640625 37.695312 182.0625 36.84375 181.488281 C 34.082031 190.628906 31.417969 199.800781 32.34375 209.4375 C 33.464844 221.160156 37.011719 232.449219 39.757812 243.84375 C 43.609375 242.015625 47.210938 238.691406 50.550781 236.167969 C 46.480469 224.199219 41.351562 211.671875 40.269531 199.011719 C 39.851562 194.125 40.714844 189.523438 42.128906 185.011719"/><g clip-path="url(#j)"><path fill="#FF885F" d="M 118.59375 24.648438 C 118.285156 26.464844 118.023438 28.035156 117.878906 29.34375 C 117.109375 36.457031 116.054688 43.457031 114.746094 50.152344 C 112.140625 63.445312 108.386719 76.328125 103.582031 88.433594 C 97.339844 104.175781 88.726562 119.902344 77.253906 136.511719 C 73.980469 141.257812 70.464844 145.992188 67.070312 150.570312 C 62.914062 156.171875 58.628906 161.945312 54.667969 167.878906 C 54.570312 167.832031 54.472656 167.785156 54.371094 167.738281 C 56.996094 162.707031 59.933594 157.757812 62.785156 152.953125 C 65.742188 147.96875 68.800781 142.816406 71.535156 137.542969 C 80.347656 120.5625 87.550781 102.640625 92.949219 84.28125 C 96.375 72.628906 99.113281 60.65625 101.078125 48.699219 C 101.300781 47.339844 101.648438 45.523438 102.050781 43.417969 C 104.949219 28.246094 107.390625 13.074219 104.605469 4.382812 C 104.753906 4.382812 104.902344 4.386719 105.050781 4.386719 C 106.28125 4.386719 107.453125 4.300781 108.585938 4.21875 C 109.675781 4.136719 110.703125 4.058594 111.75 4.058594 C 113.734375 4.058594 115.382812 4.347656 117.078125 4.996094 C 121.550781 7.089844 119.699219 18.074219 118.59375 24.648438 Z M 118.097656 2.558594 C 115.773438 1.660156 113.714844 1.417969 111.75 1.417969 C 109.46875 1.417969 107.320312 1.746094 105.050781 1.746094 C 103.234375 1.746094 101.339844 1.535156 99.234375 0.78125 C 107.726562 6.785156 100.097656 38.417969 98.476562 48.269531 C 96.515625 60.175781 93.824219 71.960938 90.421875 83.535156 C 85.058594 101.761719 77.941406 119.464844 69.195312 136.328125 C 63.4375 147.425781 56.367188 157.761719 50.796875 168.9375 C 52.617188 169.835938 54.234375 170.601562 55.609375 171.246094 C 63.042969 159.832031 71.6875 149.222656 79.425781 138.015625 C 89.957031 122.765625 99.1875 106.667969 106.035156 89.410156 C 111.003906 76.886719 114.746094 63.882812 117.332031 50.664062 C 118.695312 43.710938 119.742188 36.671875 120.503906 29.628906 C 121.238281 22.8125 125.925781 6.054688 118.097656 2.558594"/></g><path fill="#FF885F" d="M 220.148438 229.234375 C 219.992188 229.65625 219.832031 230.078125 219.675781 230.5 C 219.027344 230.1875 218.449219 229.925781 217.9375 229.710938 C 218.390625 228.664062 218.855469 227.597656 219.335938 226.5 C 222.8125 218.542969 226.648438 209.765625 228.851562 201.074219 C 227.183594 210.496094 223.613281 220.003906 220.148438 229.234375 Z M 231.09375 186.117188 C 229.734375 187.007812 228.613281 187.730469 227.65625 188.34375 C 227.871094 189.867188 227.90625 191.453125 227.699219 193.128906 C 226.105469 205.898438 219.367188 219.554688 214.398438 231.261719 C 214.398438 231.261719 216.460938 231.664062 221.105469 234.210938 C 225.421875 222.570312 230.542969 210.019531 232.03125 197.640625 C 232.511719 193.613281 232.0625 189.8125 231.09375 186.117188"/><g clip-path="url(#k)"><path fill="#FF885F" d="M 197.648438 136.511719 C 186.175781 119.902344 177.566406 104.175781 171.320312 88.433594 C 166.515625 76.328125 162.761719 63.445312 160.160156 50.152344 C 158.847656 43.457031 157.792969 36.457031 157.023438 29.34375 C 156.882812 28.035156 156.617188 26.464844 156.3125 24.648438 C 155.203125 18.074219 153.351562 7.089844 157.828125 4.996094 C 159.523438 4.347656 161.167969 4.058594 163.152344 4.058594 C 164.199219 4.0625 165.230469 4.136719 166.320312 4.21875 C 167.449219 4.300781 168.621094 4.386719 169.851562 4.386719 C 170 4.386719 170.152344 4.382812 170.296875 4.382812 C 167.511719 13.074219 169.953125 28.246094 172.851562 43.417969 C 173.253906 45.523438 173.601562 47.339844 173.824219 48.699219 C 175.792969 60.65625 178.527344 72.628906 181.953125 84.28125 C 187.351562 102.640625 194.558594 120.5625 203.367188 137.542969 C 206.101562 142.816406 209.160156 147.96875 212.117188 152.953125 C 214.96875 157.761719 217.90625 162.707031 220.53125 167.738281 C 220.433594 167.785156 220.332031 167.832031 220.234375 167.878906 C 216.273438 161.945312 211.988281 156.171875 207.832031 150.570312 C 204.4375 145.992188 200.925781 141.257812 197.648438 136.511719 Z M 224.109375 168.9375 C 218.535156 157.761719 211.464844 147.425781 205.707031 136.328125 C 196.960938 119.464844 189.84375 101.761719 184.484375 83.535156 C 181.082031 71.960938 178.386719 60.175781 176.425781 48.269531 C 174.808594 38.417969 167.179688 6.785156 175.667969 0.78125 C 173.566406 1.535156 171.671875 1.746094 169.851562 1.746094 C 167.582031 1.746094 165.433594 1.417969 163.15625 1.417969 C 161.191406 1.417969 159.128906 1.660156 156.808594 2.558594 C 148.976562 6.054688 153.664062 22.8125 154.402344 29.628906 C 155.164062 36.671875 156.210938 43.710938 157.570312 50.664062 C 160.160156 63.882812 163.902344 76.886719 168.867188 89.410156 C 175.714844 106.667969 184.945312 122.765625 195.480469 138.015625 C 203.21875 149.222656 211.859375 159.832031 219.292969 171.246094 C 220.667969 170.601562 222.285156 169.835938 224.109375 168.9375"/></g></g></g></g><g clip-path="url(#l)"><path fill="#FF885F" d="M 86.777344 106.421875 C 80.148438 106.421875 74.777344 111.828125 74.777344 118.496094 C 74.777344 127.550781 86.777344 140.917969 86.777344 140.917969 C 86.777344 140.917969 98.777344 127.550781 98.777344 118.496094 C 98.777344 111.828125 93.402344 106.421875 86.777344 106.421875 Z M 86.777344 122.808594 C 84.410156 122.808594 82.488281 120.875 82.488281 118.496094 C 82.488281 116.117188 84.410156 114.183594 86.777344 114.183594 C 89.140625 114.183594 91.0625 116.117188 91.0625 118.496094 C 91.0625 120.875 89.140625 122.808594 86.777344 122.808594 Z M 86.777344 122.808594"/></g><g mask="url(#m)"><g><g clip-path="url(#n)" transform="translate(51 54)"><g clip-path="url(#o)"><path fill="#08AFB7" d="M 134.488281 268.144531 C 60.859375 268.144531 0.953125 208.265625 0.953125 134.664062 C 0.953125 61.054688 60.859375 1.179688 134.488281 1.179688 C 208.109375 1.179688 268.015625 61.054688 268.015625 134.664062 C 268.015625 208.265625 208.109375 268.144531 134.488281 268.144531"/></g><path fill="#E2E1D0" d="M 173.785156 171.285156 C 172.449219 168.246094 171.230469 165.347656 170.976562 162.007812 C 170.800781 159.808594 171.527344 157.644531 171.269531 155.453125 C 170.824219 151.746094 165.742188 151.828125 163.128906 151.839844 C 156.964844 151.875 150.578125 152.839844 144.914062 149.972656 C 142.960938 148.996094 141.136719 148.074219 139.007812 147.523438 C 135.679688 146.65625 131.960938 149.136719 128.949219 146.609375 C 125.765625 143.9375 122.507812 144.777344 118.503906 144.777344 C 115.289062 144.777344 110.859375 143.957031 108.523438 146.75 C 107.632812 147.8125 107.402344 149.382812 107.097656 150.683594 C 106.613281 152.773438 102.441406 150.46875 101.058594 150.507812 C 99.394531 150.554688 100.769531 154.324219 96.640625 150.441406 C 95.992188 149.824219 95.710938 148.917969 95.109375 148.269531 C 93.621094 146.667969 92.277344 145.808594 90.136719 145.347656 C 87.425781 144.769531 84.691406 145.855469 83.527344 142.421875 C 83.132812 141.273438 82.625 139.476562 81.695312 138.703125 C 79.609375 136.96875 77.5 138.148438 76.273438 140.292969 C 71.28125 149.015625 68.285156 138.140625 69.074219 133.871094 C 69.683594 130.554688 71.828125 126.757812 75.125 125.472656 C 76.757812 124.835938 79.042969 126.003906 80.554688 125.121094 C 82.285156 124.105469 81.375 121.675781 84.730469 122.328125 C 86.789062 122.726562 88.597656 124.222656 90.210938 125.453125 C 90.863281 125.949219 94.0625 128.253906 94.511719 126.152344 C 95.265625 122.664062 91.890625 121.875 90.347656 119.394531 C 88.832031 116.945312 90.300781 113.269531 90.460938 110.570312 C 90.628906 107.644531 90.839844 103.632812 93.722656 101.910156 C 94.539062 101.417969 94.949219 101.191406 95.316406 100.207031 C 95.914062 98.601562 96.820312 96.824219 97.242188 95.191406 C 97.660156 93.582031 97.507812 92.011719 97.535156 90.355469 C 97.589844 85.484375 104.4375 89.375 106.425781 88.824219 C 108.421875 88.277344 109.59375 86.25 108.902344 84.3125 C 108.605469 83.46875 107.710938 83.199219 106.972656 82.914062 C 106.574219 82.765625 106.046875 82.824219 105.640625 82.925781 C 103.230469 83.519531 103.792969 82.097656 102.554688 81.371094 C 100.804688 80.339844 98.726562 81.511719 97.121094 82.417969 C 96.886719 82.359375 96.632812 82.398438 96.402344 82.578125 C 96.246094 81.976562 96.277344 81.371094 96.496094 80.769531 C 96.722656 79.59375 97.621094 78.742188 98.40625 77.898438 C 100.253906 75.890625 101.445312 75.148438 104.363281 75.800781 C 105.496094 76.054688 107.527344 74.558594 108.429688 75.839844 C 109.113281 76.8125 109.683594 77.878906 110.976562 78.179688 C 112.675781 78.566406 116.660156 79.394531 118.300781 78.4375 C 120.167969 77.347656 119.367188 74.417969 118.59375 72.96875 C 118.195312 72.207031 117.074219 72 116.335938 71.84375 C 113.78125 71.296875 113.449219 69.496094 111.949219 67.921875 C 111.101562 67.023438 109.453125 66.683594 108.347656 66.382812 C 105.5625 65.628906 103.636719 64.9375 101.632812 62.855469 C 100.660156 61.855469 98.308594 59.214844 96.566406 60.191406 C 95.265625 60.914062 93.792969 63.640625 92.125 62.941406 C 90.589844 62.292969 89.277344 61.5 87.507812 61.414062 C 80.542969 61.078125 78.453125 68.65625 82.011719 73.703125 C 83.925781 76.40625 69.566406 77.777344 68.363281 77.933594 C 67.769531 78.015625 67.164062 78.070312 66.558594 78.09375 C 63.511719 78.265625 63.152344 74.53125 64.433594 72.363281 C 65.46875 70.617188 66.222656 68.625 67.484375 67.023438 C 68.253906 66.03125 69.820312 68.703125 70.253906 69.113281 C 70.765625 69.605469 71.632812 69.675781 72.292969 69.496094 C 74.28125 68.949219 75.527344 66.152344 76.050781 64.375 C 76.714844 62.078125 74.640625 59.121094 73.964844 57.03125 C 72.964844 53.964844 77.3125 56.230469 78.0625 56.585938 C 78.957031 57 81.644531 58.15625 81.765625 59.269531 C 81.816406 59.726562 82.101562 60.078125 82.585938 60.089844 C 83.757812 60.125 83.832031 60.097656 85.011719 59.894531 C 87.632812 59.433594 88.746094 60.695312 90.785156 61.417969 C 91.921875 61.824219 92.753906 61.492188 93.375 60.554688 C 94.816406 58.363281 96.910156 54.917969 93.292969 53.75 C 91.386719 53.128906 95.730469 52.890625 96.304688 52.648438 C 97.234375 52.25 98.859375 51.652344 98.480469 50.269531 C 98.265625 49.5 97.164062 48.726562 96.347656 48.765625 C 93.441406 48.910156 90.617188 49.605469 87.699219 49.640625 C 85.050781 49.671875 83.21875 47.582031 80.6875 47.316406 C 78.488281 47.09375 75.035156 46.75 72.863281 47.347656 C 70.367188 48.03125 69.371094 50.210938 66.574219 49.230469 C 64.988281 48.671875 63.339844 47.738281 61.609375 47.878906 C 59.953125 48.011719 59.902344 50.566406 61.382812 51.046875 C 62.050781 51.253906 62.691406 51.34375 63.378906 51.449219 C 64.660156 51.652344 64.675781 54.292969 64.972656 55.28125 C 65.582031 57.34375 67.375 58.679688 68.511719 60.46875 C 67.214844 59.726562 65.988281 58.609375 65.007812 57.804688 C 63.519531 56.589844 63.117188 55.226562 62.109375 53.703125 C 60.671875 51.507812 58.628906 53.902344 58.171875 55.351562 C 57.75 56.683594 57.757812 58.390625 57.964844 59.746094 C 58.21875 61.367188 59.375 64.566406 55.175781 63.421875 C 53.960938 63.089844 52.914062 62.820312 51.664062 62.863281 C 48.589844 62.945312 49.566406 63.566406 47.980469 61.121094 C 47.105469 59.761719 46.242188 58.867188 44.570312 58.988281 C 43.65625 59.054688 43.339844 60.226562 43.105469 60.9375 C 41.882812 64.59375 39.386719 66.523438 35.304688 67.066406 C 32.191406 67.476562 28.082031 67.757812 26.445312 70.96875 C 25.441406 72.945312 28.898438 74.503906 30.359375 74.023438 C 32.339844 73.359375 33.316406 72.128906 35.636719 72.269531 C 38 72.402344 40.363281 71.644531 42.613281 70.816406 C 37.828125 74.570312 33.417969 75.402344 27.269531 75.425781 C 24.265625 75.4375 20.335938 75.683594 18.488281 78.496094 C 16.804688 81.070312 16.671875 84.113281 16.632812 87.109375 C 16.574219 92.277344 15.96875 96.964844 14.554688 101.964844 C 14.039062 103.792969 11.925781 111.910156 15.402344 111.976562 C 17.359375 112.015625 18.089844 109.257812 18.339844 107.871094 C 19.058594 107.589844 19.78125 107.300781 20.5 107.015625 C 20.90625 107.792969 21.191406 108.609375 21.367188 109.464844 C 21.675781 110.660156 21.90625 111.890625 22.164062 113.101562 C 22.863281 116.328125 23.453125 119.578125 24.15625 122.804688 C 24.863281 126.09375 26.5 129.539062 29.222656 131.632812 C 31.128906 133.097656 33.230469 134.210938 35.265625 135.464844 C 38.140625 137.238281 39.582031 140.121094 41.074219 143.007812 C 42.667969 146.074219 44.460938 148.4375 47.730469 149.667969 C 49.136719 150.195312 53.28125 150.625 52.976562 147.875 C 52.660156 144.976562 49.792969 144.664062 47.9375 142.960938 C 47.332031 142.398438 42.828125 137.613281 46.472656 137.722656 C 50.152344 137.820312 52.707031 140.855469 54.855469 143.449219 C 57.714844 146.894531 60.714844 149.773438 64.882812 151.539062 C 69.074219 153.304688 73.378906 152.695312 77.703125 151.921875 C 81.554688 151.238281 85.019531 151.273438 88.597656 153.019531 C 91.242188 154.3125 94.285156 154.34375 96.433594 156.5625 C 97.507812 157.675781 98.792969 158.066406 100.289062 158.320312 C 101.09375 158.453125 101.863281 158.347656 102.65625 158.261719 C 105.394531 157.953125 106.953125 159.726562 108.109375 161.875 C 109.96875 165.335938 108.699219 166.957031 107.289062 170.039062 C 106.507812 171.753906 106.78125 172.757812 107.328125 174.578125 C 107.917969 176.546875 107.992188 178.742188 109.4375 180.367188 C 111.375 182.566406 113.351562 184.9375 115.515625 186.921875 C 117.136719 188.40625 119.265625 189.039062 120.878906 190.546875 C 122.070312 191.652344 123.21875 193.019531 124.960938 193.171875 C 129.0625 193.542969 130.910156 194.519531 132.945312 198.101562 C 134.3125 200.496094 135.410156 203.199219 136.410156 205.75 C 138.753906 211.691406 139.105469 218.527344 137.90625 224.734375 C 137.597656 226.332031 137.667969 227.625 138.363281 229.066406 C 139.804688 232.054688 144.925781 234.769531 140.390625 238.394531 C 140.128906 238.601562 140.070312 239.109375 140.265625 239.378906 C 144.609375 245.363281 149.429688 252.339844 157.507812 252.746094 C 158.691406 252.8125 162.917969 252.519531 162.320312 250.355469 C 162.03125 249.3125 160.96875 248.800781 160.113281 248.3125 C 159.078125 247.71875 157.875 247.363281 156.8125 246.785156 C 154.535156 245.554688 153.445312 242.289062 152.785156 240.011719 C 152.078125 237.554688 152.058594 234.933594 152.125 232.394531 C 152.191406 229.507812 155.039062 229.484375 157.261719 229.496094 C 158.824219 229.511719 160.613281 227.570312 158.957031 226.246094 C 157.214844 224.859375 158.40625 223.640625 159.042969 222 C 159.4375 220.953125 158.292969 219.476562 157.761719 218.746094 C 156.910156 217.566406 156.378906 217.09375 155.875 215.679688 C 155.566406 214.8125 154.605469 210.296875 158.074219 212.976562 C 159.238281 213.878906 160.394531 214.671875 161.953125 214.671875 C 164.3125 214.671875 164.410156 211.90625 164.226562 210.226562 C 163.980469 208.09375 162.90625 206.046875 162.316406 203.996094 C 161.378906 200.726562 164.617188 196.652344 165.511719 193.511719 C 166.207031 191.085938 166.480469 187.605469 168.78125 186.164062 C 170.027344 185.382812 171.292969 184.507812 172.082031 183.226562 C 174.28125 179.65625 175.550781 175.308594 173.785156 171.285156"/><path fill="#E2E1D0" d="M 45.113281 50.855469 C 43.554688 50.910156 42.421875 52.429688 41.53125 53.5 C 40.128906 55.195312 38.25 56.625 36.339844 57.699219 C 34.445312 58.769531 29.96875 60.585938 30.179688 63.339844 C 30.214844 63.796875 30.523438 64.136719 30.992188 64.15625 C 33.332031 64.242188 35.597656 63.734375 37.71875 62.835938 C 37.867188 62.851562 38.03125 62.808594 38.195312 62.6875 L 38.351562 62.5625 C 39.136719 62.199219 39.898438 61.785156 40.632812 61.324219 C 40.976562 61.109375 41.054688 60.777344 40.988281 60.46875 C 43.035156 58.738281 44.941406 56.9375 47.101562 55.210938 C 49.417969 53.359375 47.53125 50.773438 45.113281 50.855469"/><path fill="#E2E1D0" d="M 56.367188 47.929688 C 55.894531 47.183594 54.941406 47.097656 54.144531 47.0625 C 51.558594 46.945312 49.34375 47.859375 48.941406 50.636719 C 48.8125 51.535156 50 51.984375 50.398438 51.386719 C 52.179688 51.363281 54.03125 51.125 55.761719 51.636719 C 56.265625 51.785156 56.789062 51.375 56.789062 50.855469 C 56.789062 49.914062 56.902344 48.765625 56.367188 47.929688"/><path fill="#E2E1D0" d="M 80.386719 22.691406 C 78.183594 21.40625 75.71875 24.15625 74.441406 25.539062 C 71.097656 29.164062 67.09375 31.578125 63.507812 34.863281 C 61.867188 36.355469 61.925781 38.003906 61.765625 39.976562 C 59.054688 39.894531 54.316406 39.800781 54.878906 43.359375 C 55.15625 45.175781 57.308594 45.339844 58.71875 45.445312 C 60.957031 45.617188 62.636719 45.550781 64.734375 46.714844 C 66.332031 47.59375 67.339844 46.316406 68.9375 46.96875 L 69.066406 47.03125 L 69.105469 47.042969 C 69.207031 47.089844 69.3125 47.148438 69.414062 47.207031 C 69.761719 47.417969 70.085938 47.339844 70.316406 47.132812 C 73.265625 46.878906 76.148438 43.453125 72.640625 41.714844 C 72.398438 41.605469 72.148438 41.523438 71.898438 41.457031 C 70.175781 40.90625 72.644531 39.304688 73.460938 38.792969 C 74.449219 38.152344 74.449219 37.21875 74.492188 36.199219 C 74.394531 35.472656 74.285156 34.75 74.171875 34.019531 C 73.875 31.574219 75.972656 30.398438 77.558594 29.339844 C 78.554688 28.675781 80.082031 27.867188 80.75 26.820312 C 81.554688 25.558594 81.976562 23.628906 80.386719 22.691406"/><path fill="#E2E1D0" d="M 125.5 16.617188 C 125.496094 16.367188 125.496094 16.121094 125.496094 15.871094 C 126.09375 15.878906 126.730469 15.867188 127.328125 15.773438 C 126.730469 16.078125 126.128906 16.375 125.5 16.617188 Z M 140.605469 7.550781 C 137.761719 9.300781 137.578125 12.566406 133.925781 13.789062 C 132.449219 14.28125 130.867188 14.351562 129.382812 14.851562 C 129.277344 14.890625 129.183594 14.933594 129.078125 14.960938 C 129.480469 14.515625 129.65625 13.851562 129.449219 12.867188 C 129.046875 10.964844 128.761719 9.203125 128.546875 7.257812 C 128.453125 6.359375 128.058594 5.367188 127.234375 4.878906 C 124.132812 3.070312 119.519531 7.011719 116.746094 7.800781 C 115.320312 8.210938 113.207031 7.457031 111.9375 8.511719 C 110.554688 9.660156 110.324219 10.5625 109.847656 11.949219 C 106.835938 10.292969 103.5 8.511719 101.59375 12.824219 C 101.148438 13.824219 101 14.902344 100.53125 15.902344 C 99.964844 17.105469 96.460938 16.667969 95.34375 16.644531 C 93.644531 16.609375 91.640625 17.414062 90.335938 18.5 C 87.621094 20.746094 85.226562 23.417969 82.753906 25.921875 C 81.253906 27.433594 81.03125 30.070312 79.964844 31.863281 C 77.777344 35.515625 83.609375 35.554688 85.972656 36.511719 C 87.550781 37.742188 89.472656 38.886719 91.328125 39.425781 C 92.933594 39.890625 94.199219 39.980469 95.882812 39.945312 C 99.542969 39.863281 100.3125 41.953125 101.476562 44.621094 C 103.050781 48.226562 105.828125 51.925781 110.128906 52.265625 C 114.320312 52.59375 116.703125 49.863281 117.320312 45.910156 C 117.550781 44.40625 117.613281 42.914062 118 41.4375 C 118.644531 38.957031 121.132812 37.066406 122.871094 35.328125 C 125.664062 32.53125 128.746094 30.785156 132.101562 28.828125 C 133.394531 28.070312 134.828125 26.585938 134.773438 24.953125 C 134.738281 23.65625 134.5 22.589844 134.148438 21.328125 C 133.128906 17.765625 135.742188 18.632812 137.449219 18.347656 C 140.183594 17.890625 139.738281 15.019531 141.554688 13.628906 C 142.902344 12.59375 144.707031 12.042969 145.351562 10.289062 C 146.503906 7.171875 142.847656 6.164062 140.605469 7.550781"/><path fill="#E2E1D0" d="M 148.808594 30.816406 C 148.75 30.574219 148.515625 30.292969 148.246094 30.25 C 145.554688 29.859375 142.074219 29.234375 139.652344 30.714844 C 138.308594 31.535156 137.074219 32.445312 135.675781 33.203125 C 134.769531 33.703125 133.671875 34.433594 133.148438 35.347656 C 130.9375 39.214844 136.289062 42.488281 138.53125 39.730469 C 138.804688 39.765625 139.070312 39.65625 139.222656 39.3125 C 139.78125 38.050781 141.960938 37.542969 143.046875 36.746094 C 144.296875 35.820312 144.707031 34.78125 146.402344 34.304688 C 148.167969 33.816406 149.3125 32.683594 148.808594 30.816406"/><path fill="#E2E1D0" d="M 151.78125 26.636719 C 150.710938 25.472656 148.988281 24.886719 147.4375 24.828125 C 145.371094 24.738281 144.777344 26.597656 144.761719 28.320312 C 144.761719 28.769531 145.144531 29.136719 145.578125 29.136719 C 145.765625 29.136719 145.945312 29.136719 146.128906 29.136719 L 146.289062 29.101562 L 146.394531 29.128906 C 147.980469 29.183594 149.472656 29.84375 151.066406 29.589844 C 152.554688 29.351562 152.644531 27.582031 151.78125 26.636719"/><path fill="#E2E1D0" d="M 157.421875 29.460938 C 156.28125 29.035156 154.789062 29.226562 153.5625 29.550781 C 153.316406 29.128906 152.753906 28.902344 152.339844 29.378906 C 151.550781 30.292969 151.289062 31.445312 151.585938 32.613281 C 151.679688 32.964844 152.015625 33.203125 152.371094 33.210938 C 153.445312 33.222656 154.503906 33.339844 155.578125 33.316406 C 156.558594 33.289062 158.097656 33.238281 158.667969 32.277344 C 159.269531 31.265625 158.429688 29.839844 157.421875 29.460938"/><path fill="#E2E1D0" d="M 182.945312 41.488281 C 182.464844 40.660156 181.617188 40.429688 180.765625 40.222656 C 178.527344 39.699219 176.84375 39.277344 174.945312 37.785156 C 173.214844 36.433594 171.84375 33.542969 169.242188 34.476562 C 166.8125 35.347656 166.3125 40.34375 166.21875 42.4375 C 166.210938 42.59375 166.257812 42.722656 166.3125 42.835938 C 165.046875 44.976562 162.246094 46.90625 164.554688 48.992188 C 165.925781 50.230469 168.738281 49.121094 169.902344 48.105469 C 170.199219 47.84375 170.535156 47.261719 170.742188 46.945312 C 170.949219 46.625 172.628906 43.410156 172.960938 46.996094 C 173.058594 48.066406 173.472656 48.441406 174.289062 48.949219 C 176.476562 50.28125 179.4375 48.8125 181.148438 47.472656 C 182.890625 46.128906 184.160156 43.566406 182.945312 41.488281"/><path fill="#E2E1D0" d="M 93.996094 129.570312 C 91.445312 129.839844 84.300781 131.164062 85.441406 135.308594 C 86.664062 139.75 93.503906 134.566406 95.476562 133.417969 C 97.453125 133.613281 99.261719 134.191406 100.617188 135.820312 C 100.871094 136.128906 101.648438 136.453125 102.085938 136.332031 C 103.613281 135.914062 104.617188 134.183594 104.554688 132.691406 C 104.335938 128.394531 96.550781 129.292969 93.996094 129.570312"/><path fill="#E2E1D0" d="M 117.585938 130.988281 C 117.519531 130.628906 117.132812 130.402344 116.796875 130.390625 C 114.382812 130.308594 111.570312 129.265625 109.28125 130.199219 C 109.070312 130.066406 108.796875 130.046875 108.519531 130.242188 C 107.011719 131.269531 105.335938 132.613281 104.792969 134.425781 C 104.222656 136.335938 106.558594 137.289062 108.054688 137.171875 C 110.324219 136.980469 112.316406 135.25 114.433594 134.511719 C 116.140625 133.917969 117.921875 133.066406 117.585938 130.988281"/><path fill="#E2E1D0" d="M 202.277344 27.105469 C 204.378906 27.988281 206.742188 28.265625 208.535156 29.804688 C 210.144531 31.179688 205.636719 30.707031 205.523438 30.695312 C 204.324219 30.550781 203.136719 30.359375 201.945312 30.242188 C 198.917969 29.9375 196.851562 32.859375 193.917969 32.929688 C 191.710938 32.996094 195.882812 28.671875 196.203125 27.972656 C 196.695312 26.90625 195.914062 26.085938 195.097656 25.515625 C 193.277344 24.238281 191.996094 23.683594 192.574219 20.882812 C 192.875 19.402344 194.285156 18.261719 195.445312 17.292969 C 197.863281 18.613281 200.566406 20.1875 203.519531 22.066406 C 202.765625 22.355469 202.171875 22.867188 201.925781 23.714844 C 198.851562 23.914062 199.394531 25.90625 202.277344 27.105469 Z M 224.980469 61.3125 C 226.285156 63.007812 225.511719 64.128906 222.648438 64.667969 C 222.070312 64.359375 221.625 63.882812 221.015625 63.636719 C 219.566406 63.046875 218.546875 63.023438 216.996094 63.0625 C 215.492188 63.109375 214.121094 63.65625 212.785156 64.265625 C 210.476562 65.308594 211.484375 63.890625 211.019531 61.980469 C 209.652344 56.386719 199.972656 63.59375 198 65.09375 C 196.390625 66.296875 194.910156 67.554688 193.03125 68.3125 C 189.660156 69.660156 190.390625 62.589844 190.589844 61.496094 C 191.269531 57.808594 196.921875 54.210938 200.054688 52.957031 C 203.285156 51.664062 205.828125 53.460938 208.1875 55.46875 C 208.878906 56.066406 209.945312 58.3125 210.894531 58.773438 C 212.488281 59.542969 214.238281 59.078125 215.542969 57.789062 C 218.894531 54.476562 211.238281 51.9375 209.21875 50.835938 C 207.417969 49.859375 205.40625 46.578125 208.792969 48.589844 C 209.945312 49.28125 210.933594 50.234375 212.0625 50.972656 C 215.214844 53.023438 218.816406 54.007812 221.882812 56.199219 C 222.917969 56.9375 225.566406 58.707031 226.953125 57.640625 C 227.679688 57.085938 227.773438 57.007812 227.988281 56.117188 C 228.125 55.53125 227.460938 52.238281 228.785156 53.980469 C 229.457031 54.851562 231.035156 55.890625 232.019531 54.90625 C 232.949219 53.976562 231.773438 52.089844 231.167969 50.660156 C 232.304688 51.214844 233.597656 52.261719 234.625 52.566406 C 235.6875 52.882812 236.921875 52.851562 238.113281 52.796875 C 239.238281 54.191406 240.34375 55.632812 241.4375 57.109375 C 240.769531 57.074219 240.105469 57.117188 239.316406 57.257812 C 236.925781 57.683594 235.414062 57.796875 233.015625 57.570312 C 232.070312 57.476562 230.527344 57.210938 229.621094 57.75 C 228.054688 58.667969 227.527344 59.824219 225.472656 60.105469 C 224.925781 60.183594 224.753906 60.894531 224.980469 61.3125 Z M 243.777344 58.5 C 243.535156 58.132812 243.3125 57.75 243.105469 57.351562 L 242.90625 57.324219 C 239.5625 52.6875 236.109375 48.511719 232.71875 44.847656 C 211.210938 21.621094 186.78125 11.417969 184.839844 11.070312 L 184.75 11.566406 C 184.480469 11.410156 184.191406 11.269531 183.9375 11.085938 C 182.941406 12.070312 182.066406 13.132812 181.121094 14.171875 C 180.226562 15.160156 178.765625 14.671875 177.867188 15.535156 C 176.207031 17.121094 176.207031 19.164062 176.304688 21.351562 C 176.382812 23.230469 176.203125 24.4375 174.882812 25.964844 C 174.382812 26.53125 173.796875 27.539062 173.816406 28.320312 C 173.851562 29.414062 174.011719 31.117188 175.398438 31.386719 C 177.191406 31.738281 180.453125 30.101562 180.453125 33.0625 C 180.453125 34.835938 182.179688 35.1875 183.609375 35.382812 C 189.21875 36.152344 184.71875 43.542969 183.164062 45.984375 C 182.179688 47.515625 181.203125 48.835938 179.648438 49.875 C 178.871094 50.402344 178.148438 50.664062 177.597656 51.421875 C 177.445312 51.632812 177.445312 52.035156 177.597656 52.25 C 178.226562 53.101562 179.027344 53.476562 180.042969 53.738281 L 180.265625 53.765625 C 182.265625 53.53125 182.527344 54.964844 181.058594 58.070312 C 180.328125 58.375 179.542969 58.582031 178.800781 58.859375 C 176.394531 59.769531 174.621094 62.636719 175.421875 65.234375 C 176.414062 68.503906 178.707031 71.191406 182.101562 71.953125 C 183.324219 72.230469 184.054688 71.6875 184.726562 70.84375 C 186.789062 68.261719 186.960938 72.503906 186.949219 72.925781 C 186.949219 74.164062 186.617188 75.316406 186.230469 76.46875 C 184.695312 81.058594 182.585938 85.707031 182.320312 90.621094 C 182.0625 95.203125 183.960938 100.226562 185.820312 104.363281 C 187.617188 108.351562 189.613281 112.136719 192.855469 115.125 C 196.050781 118.074219 200.332031 122.605469 204.652344 123.882812 C 207.808594 124.820312 208.886719 122.894531 210.792969 120.660156 C 213.796875 117.125 218.417969 122.488281 220.1875 119.472656 C 221.011719 118.074219 219.53125 115.265625 222.203125 114.933594 C 224.671875 114.632812 229.324219 114.179688 231.019531 116.398438 C 232.328125 118.125 231.957031 121.425781 232.5 123.550781 C 233.179688 126.207031 234.867188 128.453125 236.476562 130.617188 C 238.027344 132.710938 239.734375 134.890625 240.621094 137.359375 C 241.300781 139.234375 238.476562 142.078125 237.929688 144.019531 C 237.597656 145.203125 237.847656 146.101562 238.441406 147.132812 C 240.382812 150.46875 242.085938 152.582031 242.246094 156.722656 C 242.296875 158.050781 241.914062 159.992188 243.027344 161.101562 C 245.144531 163.222656 248.242188 161.453125 248.761719 166.257812 C 249.148438 169.878906 248.644531 173.09375 250.304688 176.535156 C 251.789062 179.589844 256.746094 177.558594 258.507812 175.824219 C 258.957031 175.390625 259.472656 174.867188 259.65625 174.261719 C 260.292969 172.199219 261.234375 170.566406 262.507812 168.804688 C 263.183594 167.875 263.539062 166.488281 263.902344 165.433594 C 264.183594 164.628906 264.382812 162.464844 264.824219 161.058594 L 264.824219 159.636719 L 265.355469 159.71875 C 272.375 113.839844 259.421875 80.703125 243.777344 58.5"/></g></g></g><g clip-path="url(#p)"><path fill="#FF885F" d="M 128.976562 132.71875 C 122.351562 132.71875 116.976562 138.125 116.976562 144.792969 C 116.976562 153.847656 128.976562 167.214844 128.976562 167.214844 C 128.976562 167.214844 140.976562 153.847656 140.976562 144.792969 C 140.976562 138.125 135.605469 132.71875 128.976562 132.71875 Z M 128.976562 149.105469 C 126.613281 149.105469 124.691406 147.171875 124.691406 144.792969 C 124.691406 142.414062 126.613281 140.480469 128.976562 140.480469 C 131.34375 140.480469 133.265625 142.414062 133.265625 144.792969 C 133.265625 147.171875 131.34375 149.105469 128.976562 149.105469 Z M 128.976562 149.105469"/></g><g clip-path="url(#q)"><path fill="#FF885F" d="M 252.132812 115.4375 C 245.507812 115.4375 240.132812 120.84375 240.132812 127.511719 C 240.132812 136.566406 252.132812 149.933594 252.132812 149.933594 C 252.132812 149.933594 264.132812 136.566406 264.132812 127.511719 C 264.132812 120.84375 258.757812 115.4375 252.132812 115.4375 Z M 252.132812 131.824219 C 249.765625 131.824219 247.847656 129.890625 247.847656 127.511719 C 247.847656 125.128906 249.765625 123.199219 252.132812 123.199219 C 254.5 123.199219 256.417969 125.128906 256.417969 127.511719 C 256.417969 129.890625 254.5 131.824219 252.132812 131.824219 Z M 252.132812 131.824219"/></g><g clip-path="url(#r)"><path fill="#FF885F" d="M 98.875 167.285156 C 92.246094 167.285156 86.875 172.691406 86.875 179.359375 C 86.875 188.414062 98.875 201.78125 98.875 201.78125 C 98.875 201.78125 110.875 188.414062 110.875 179.359375 C 110.875 172.691406 105.5 167.285156 98.875 167.285156 Z M 98.875 183.667969 C 96.507812 183.667969 94.585938 181.738281 94.585938 179.359375 C 94.585938 176.976562 96.507812 175.046875 98.875 175.046875 C 101.238281 175.046875 103.160156 176.976562 103.160156 179.359375 C 103.160156 181.738281 101.238281 183.667969 98.875 183.667969 Z M 98.875 183.667969"/></g><g clip-path="url(#s)"><path fill="#FF885F" d="M 310.203125 188.578125 C 303.578125 188.578125 298.203125 193.984375 298.203125 200.648438 C 298.203125 209.703125 310.203125 223.070312 310.203125 223.070312 C 310.203125 223.070312 322.203125 209.703125 322.203125 200.648438 C 322.203125 193.984375 316.828125 188.578125 310.203125 188.578125 Z M 310.203125 204.960938 C 307.835938 204.960938 305.917969 203.03125 305.917969 200.648438 C 305.917969 198.269531 307.835938 196.335938 310.203125 196.335938 C 312.566406 196.335938 314.488281 198.269531 314.488281 200.648438 C 314.488281 203.03125 312.566406 204.960938 310.203125 204.960938 Z M 310.203125 204.960938"/></g><g clip-path="url(#t)"><path fill="#FF885F" d="M 264.230469 59.582031 C 257.605469 59.582031 252.230469 64.988281 252.230469 71.652344 C 252.230469 80.707031 264.230469 94.074219 264.230469 94.074219 C 264.230469 94.074219 276.230469 80.707031 276.230469 71.652344 C 276.230469 64.988281 270.855469 59.582031 264.230469 59.582031 Z M 264.230469 75.964844 C 261.863281 75.964844 259.945312 74.035156 259.945312 71.652344 C 259.945312 69.273438 261.863281 67.34375 264.230469 67.34375 C 266.597656 67.34375 268.515625 69.273438 268.515625 71.652344 C 268.515625 74.035156 266.597656 75.964844 264.230469 75.964844 Z M 264.230469 75.964844"/></g><g clip-path="url(#u)"><path fill="#FF885F" d="M 298.105469 132.71875 C 291.480469 132.71875 286.105469 138.125 286.105469 144.792969 C 286.105469 153.847656 298.105469 167.214844 298.105469 167.214844 C 298.105469 167.214844 310.105469 153.847656 310.105469 144.792969 C 310.105469 138.125 304.730469 132.71875 298.105469 132.71875 Z M 298.105469 149.105469 C 295.738281 149.105469 293.820312 147.171875 293.820312 144.792969 C 293.820312 142.414062 295.738281 140.480469 298.105469 140.480469 C 300.46875 140.480469 302.390625 142.414062 302.390625 144.792969 C 302.390625 147.171875 300.46875 149.105469 298.105469 149.105469 Z M 298.105469 149.105469"/></g><g clip-path="url(#v)"><path fill="#FF885F" d="M 162.792969 59.582031 C 156.164062 59.582031 150.792969 64.988281 150.792969 71.652344 C 150.792969 80.707031 162.792969 94.074219 162.792969 94.074219 C 162.792969 94.074219 174.792969 80.707031 174.792969 71.652344 C 174.792969 64.988281 169.417969 59.582031 162.792969 59.582031 Z M 162.792969 75.964844 C 160.425781 75.964844 158.507812 74.035156 158.507812 71.652344 C 158.507812 69.273438 160.425781 67.34375 162.792969 67.34375 C 165.15625 67.34375 167.078125 69.273438 167.078125 71.652344 C 167.078125 74.035156 165.15625 75.964844 162.792969 75.964844 Z M 162.792969 75.964844"/></g><g clip-path="url(#w)"><g clip-path="url(#x)"><g clip-path="url(#y)"><path fill="#08AFB7" d="M 181.167969 200.578125 C 182.492188 197.320312 182.574219 193.554688 181.105469 190.058594 C 179.632812 186.558594 176.886719 183.980469 173.640625 182.644531 C 170.386719 181.3125 166.632812 181.21875 163.144531 182.683594 C 159.664062 184.144531 157.105469 186.894531 155.78125 190.148438 C 154.457031 193.410156 154.371094 197.179688 155.839844 200.671875 C 157.3125 204.175781 160.058594 206.753906 163.308594 208.089844 C 166.5625 209.421875 170.316406 209.519531 173.804688 208.054688 C 177.285156 206.589844 179.847656 203.839844 181.167969 200.578125"/></g></g></g><g clip-path="url(#z)"><g clip-path="url(#A)"><g clip-path="url(#B)"><path fill="#08AFB7" d="M 201.445312 215.46875 L 215.058594 202.875 C 215.183594 202.867188 215.304688 202.886719 215.421875 202.933594 C 215.636719 203.019531 215.820312 203.179688 215.917969 203.402344 C 216.003906 203.609375 216.007812 203.832031 215.941406 204.027344 C 215.875 204.230469 215.738281 204.410156 215.542969 204.519531 L 214.851562 205.082031 L 201.527344 219.957031 C 200.117188 220.636719 196.121094 222.09375 193.644531 223 C 192.976562 223.246094 192.425781 223.445312 191.90625 223.640625 L 189.632812 224.5 L 190.203125 226.878906 L 195.859375 250.433594 L 196.878906 251.996094 L 209.886719 261.886719 L 210.046875 262.066406 L 210.082031 262.097656 C 210.128906 262.144531 210.183594 262.226562 210.246094 262.332031 C 210.316406 262.457031 210.363281 262.5625 210.390625 262.648438 L 210.78125 263.441406 L 227.132812 286.332031 C 227.136719 286.539062 227.085938 286.738281 226.992188 286.917969 C 226.851562 287.179688 226.605469 287.390625 226.292969 287.484375 L 226.289062 287.484375 C 226.007812 287.570312 225.710938 287.535156 225.453125 287.414062 C 225.183594 287.28125 224.964844 287.0625 224.847656 286.777344 L 224.371094 286.011719 L 205.761719 264.855469 L 205.019531 264.261719 L 194.113281 258.203125 L 190.324219 261.894531 L 193.777344 268.550781 L 193.988281 268.953125 L 193.992188 268.964844 C 194.0625 269.101562 194.109375 269.226562 194.140625 269.34375 L 194.136719 269.34375 C 194.171875 269.488281 194.1875 269.625 194.1875 269.753906 L 194.183594 269.753906 L 193.683594 302.039062 L 193.691406 302.050781 C 193.683594 302.371094 193.550781 302.660156 193.335938 302.867188 C 193.117188 303.078125 192.820312 303.207031 192.492188 303.203125 L 192.492188 303.199219 C 192.253906 303.195312 192.039062 303.125 191.871094 303.011719 C 191.683594 302.886719 191.535156 302.714844 191.441406 302.515625 L 191.449219 302.511719 L 191.394531 302.382812 L 191.390625 302.386719 C 191.378906 302.355469 191.371094 302.3125 191.355469 302.253906 C 191.339844 302.1875 191.332031 302.132812 191.328125 302.089844 L 189.1875 271.441406 L 188.765625 270.160156 L 180.691406 257.394531 C 180.25 256.691406 179.449219 255.257812 178.746094 253.882812 C 178.246094 252.898438 177.824219 252.019531 177.710938 251.636719 L 177.707031 251.625 L 170.371094 227.296875 C 169.632812 224.847656 169.949219 222.335938 171.066406 220.25 C 172.183594 218.160156 174.097656 216.496094 176.542969 215.757812 L 176.546875 215.757812 C 178.582031 215.148438 182.808594 215.578125 187.113281 216.011719 C 191.949219 216.503906 196.875 217 200.273438 216.117188 L 201.445312 215.46875"/></g></g></g><g clip-path="url(#C)"><g clip-path="url(#D)"><g clip-path="url(#E)"><g clip-path="url(#F)"><g clip-path="url(#G)"><path fill="#08AFB7" d="M 211.765625 198.367188 L 198.246094 210.875 C 195.742188 211.300781 191.664062 210.890625 187.652344 210.484375 C 182.8125 209.992188 178.058594 209.511719 174.945312 210.445312 L 174.9375 210.449219 C 171.035156 211.621094 167.980469 214.269531 166.199219 217.605469 C 164.414062 220.949219 163.898438 224.976562 165.085938 228.90625 L 172.417969 253.222656 L 172.414062 253.222656 C 172.644531 253.980469 173.195312 255.179688 173.820312 256.398438 C 174.566406 257.863281 175.480469 259.484375 176.015625 260.335938 L 176.019531 260.347656 L 183.71875 272.523438 L 185.8125 302.476562 L 185.816406 302.484375 C 185.84375 302.851562 185.894531 303.191406 185.96875 303.503906 C 186.039062 303.808594 186.144531 304.136719 186.28125 304.484375 L 186.289062 304.527344 L 186.34375 304.65625 L 186.363281 304.679688 C 186.886719 305.871094 187.734375 306.886719 188.796875 307.601562 C 189.84375 308.304688 191.082031 308.726562 192.410156 308.75 L 192.417969 308.746094 C 194.261719 308.777344 195.945312 308.054688 197.175781 306.863281 C 198.40625 305.664062 199.183594 303.996094 199.214844 302.140625 L 199.21875 302.140625 L 199.71875 269.859375 L 199.714844 269.847656 C 199.722656 269.253906 199.65625 268.65625 199.519531 268.074219 L 199.515625 268.0625 C 199.464844 267.847656 199.402344 267.632812 199.332031 267.421875 L 201.929688 268.863281 L 219.96875 289.367188 C 220.652344 290.730469 221.761719 291.789062 223.074219 292.417969 C 224.527344 293.113281 226.238281 293.292969 227.90625 292.792969 L 227.910156 292.789062 C 229.671875 292.257812 231.058594 291.050781 231.871094 289.535156 C 232.679688 288.019531 232.910156 286.191406 232.371094 284.410156 L 232.355469 284.378906 L 231.972656 283.605469 L 215.507812 260.550781 C 215.378906 260.210938 215.226562 259.886719 215.050781 259.582031 C 214.8125 259.164062 214.503906 258.746094 214.132812 258.347656 L 214.136719 258.34375 L 213.8125 257.980469 L 213.429688 257.632812 L 201 248.179688 L 196.152344 227.988281 C 199.074219 226.921875 203.375 225.332031 204.667969 224.566406 L 205.324219 224.03125 L 218.707031 209.089844 C 219.894531 208.277344 220.753906 207.101562 221.1875 205.785156 C 221.667969 204.332031 221.636719 202.703125 220.976562 201.195312 L 220.972656 201.183594 C 220.253906 199.558594 218.953125 198.375 217.429688 197.773438 C 215.902344 197.175781 214.148438 197.15625 212.527344 197.871094 L 211.765625 198.367188"/></g></g></g></g></g><g clip-path="url(#H)"><g clip-path="url(#I)"><g clip-path="url(#J)"><path fill="#08AFB7" d="M 208.066406 194.640625 C 207.046875 193.5 205.300781 193.398438 204.167969 194.417969 C 203.03125 195.433594 202.9375 197.183594 203.957031 198.324219 L 207.847656 202.683594 C 208.867188 203.824219 210.609375 203.925781 211.746094 202.90625 C 212.878906 201.890625 212.976562 200.140625 211.957031 199 Z M 219.164062 207.066406 C 218.148438 205.925781 216.402344 205.824219 215.269531 206.839844 C 214.132812 207.855469 214.039062 209.605469 215.054688 210.75 L 218.050781 214.101562 C 219.070312 215.242188 220.8125 215.34375 221.949219 214.324219 C 223.082031 213.308594 223.179688 211.558594 222.160156 210.417969 L 219.164062 207.066406"/></g></g></g><g clip-path="url(#K)"><g clip-path="url(#L)"><g clip-path="url(#M)"><path fill="#08AFB7" d="M 205.5625 198.628906 C 202.632812 199.859375 199.234375 198.464844 197.996094 195.523438 C 196.761719 192.578125 198.144531 189.175781 201.074219 187.941406 C 204.003906 186.710938 207.402344 188.109375 208.640625 191.050781 C 209.875 193.992188 208.492188 197.398438 205.5625 198.628906" fill-rule="evenodd"/></g></g></g><g clip-path="url(#N)"><g clip-path="url(#O)"><g clip-path="url(#P)"><path fill="#FF885F" d="M 178.023438 200.578125 C 179.34375 197.320312 179.425781 193.554688 177.957031 190.058594 C 176.484375 186.558594 173.738281 183.980469 170.492188 182.644531 C 167.238281 181.3125 163.484375 181.21875 159.996094 182.683594 C 156.515625 184.144531 153.957031 186.894531 152.632812 190.148438 C 151.308594 193.410156 151.222656 197.179688 152.691406 200.671875 C 154.164062 204.175781 156.910156 206.753906 160.160156 208.089844 C 163.414062 209.421875 167.167969 209.519531 170.65625 208.054688 C 174.136719 206.589844 176.699219 203.839844 178.023438 200.578125"/></g></g></g><g clip-path="url(#Q)"><g clip-path="url(#R)"><g clip-path="url(#S)"><path fill="#FF885F" d="M 198.296875 215.46875 L 211.910156 202.875 C 212.035156 202.867188 212.15625 202.886719 212.273438 202.933594 C 212.488281 203.019531 212.671875 203.179688 212.769531 203.402344 C 212.855469 203.609375 212.859375 203.832031 212.796875 204.027344 C 212.726562 204.230469 212.589844 204.410156 212.394531 204.519531 L 211.703125 205.082031 L 198.378906 219.957031 C 196.96875 220.636719 192.972656 222.09375 190.496094 223 C 189.828125 223.246094 189.277344 223.445312 188.757812 223.640625 L 186.484375 224.5 L 187.054688 226.878906 L 192.710938 250.433594 L 193.730469 251.996094 L 206.738281 261.886719 L 206.898438 262.066406 L 206.933594 262.097656 C 206.980469 262.144531 207.035156 262.226562 207.097656 262.332031 C 207.167969 262.457031 207.214844 262.5625 207.242188 262.648438 L 207.632812 263.441406 L 223.984375 286.332031 C 223.988281 286.539062 223.9375 286.738281 223.84375 286.917969 C 223.703125 287.179688 223.457031 287.390625 223.144531 287.484375 L 223.140625 287.484375 C 222.859375 287.570312 222.5625 287.535156 222.308594 287.414062 C 222.035156 287.28125 221.816406 287.0625 221.699219 286.777344 L 221.222656 286.011719 L 202.613281 264.855469 L 201.871094 264.261719 L 190.964844 258.203125 L 187.175781 261.894531 L 190.628906 268.550781 L 190.839844 268.953125 L 190.84375 268.964844 C 190.914062 269.101562 190.964844 269.226562 190.992188 269.34375 L 190.988281 269.34375 C 191.023438 269.488281 191.042969 269.625 191.039062 269.753906 L 191.035156 269.753906 L 190.535156 302.039062 L 190.542969 302.050781 C 190.535156 302.371094 190.402344 302.660156 190.1875 302.867188 C 189.96875 303.078125 189.671875 303.207031 189.34375 303.203125 L 189.34375 303.199219 C 189.105469 303.195312 188.890625 303.125 188.722656 303.011719 C 188.535156 302.886719 188.386719 302.714844 188.292969 302.515625 L 188.300781 302.511719 L 188.246094 302.382812 L 188.242188 302.386719 C 188.230469 302.355469 188.222656 302.3125 188.210938 302.253906 C 188.191406 302.1875 188.183594 302.132812 188.179688 302.089844 L 186.039062 271.441406 L 185.617188 270.160156 L 177.542969 257.394531 C 177.101562 256.691406 176.300781 255.257812 175.597656 253.882812 C 175.097656 252.898438 174.675781 252.019531 174.5625 251.636719 L 174.558594 251.625 L 167.222656 227.296875 C 166.484375 224.847656 166.800781 222.335938 167.917969 220.25 C 169.035156 218.160156 170.949219 216.496094 173.398438 215.757812 C 175.433594 215.148438 179.660156 215.578125 183.964844 216.011719 C 188.800781 216.503906 193.726562 217 197.125 216.117188 L 198.296875 215.46875"/></g></g></g><g clip-path="url(#T)"><g clip-path="url(#U)"><g clip-path="url(#V)"><g clip-path="url(#W)"><g clip-path="url(#X)"><path fill="#FF885F" d="M 208.617188 198.367188 L 195.097656 210.875 C 192.597656 211.300781 188.515625 210.890625 184.503906 210.484375 C 179.664062 209.992188 174.910156 209.511719 171.796875 210.445312 L 171.789062 210.449219 C 167.886719 211.621094 164.832031 214.269531 163.050781 217.605469 C 161.265625 220.949219 160.75 224.976562 161.9375 228.90625 L 169.269531 253.222656 L 169.265625 253.222656 C 169.496094 253.980469 170.046875 255.179688 170.671875 256.398438 C 171.417969 257.863281 172.332031 259.484375 172.867188 260.335938 L 172.871094 260.347656 L 180.570312 272.523438 L 182.664062 302.476562 L 182.667969 302.484375 C 182.695312 302.851562 182.746094 303.191406 182.820312 303.503906 C 182.890625 303.808594 182.996094 304.136719 183.132812 304.484375 L 183.140625 304.527344 L 183.195312 304.65625 L 183.21875 304.679688 C 183.738281 305.871094 184.585938 306.886719 185.648438 307.601562 C 186.695312 308.304688 187.933594 308.726562 189.261719 308.75 L 189.269531 308.746094 C 191.113281 308.777344 192.796875 308.054688 194.027344 306.863281 C 195.257812 305.664062 196.035156 303.996094 196.066406 302.140625 L 196.070312 302.140625 L 196.570312 269.859375 L 196.566406 269.847656 C 196.574219 269.253906 196.507812 268.65625 196.371094 268.074219 L 196.367188 268.0625 C 196.316406 267.847656 196.253906 267.632812 196.183594 267.421875 L 198.78125 268.863281 L 216.820312 289.367188 C 217.503906 290.730469 218.613281 291.789062 219.925781 292.417969 C 221.378906 293.113281 223.089844 293.292969 224.757812 292.792969 L 224.761719 292.789062 C 226.527344 292.257812 227.910156 291.050781 228.722656 289.535156 C 229.53125 288.019531 229.761719 286.191406 229.222656 284.410156 L 229.207031 284.378906 L 228.824219 283.605469 L 212.359375 260.550781 C 212.230469 260.210938 212.078125 259.886719 211.902344 259.582031 C 211.664062 259.164062 211.355469 258.746094 210.984375 258.347656 L 210.992188 258.34375 L 210.664062 257.980469 L 210.28125 257.632812 L 197.851562 248.179688 L 193.003906 227.988281 C 195.925781 226.921875 200.226562 225.332031 201.519531 224.566406 L 202.175781 224.03125 L 215.558594 209.089844 C 216.746094 208.277344 217.605469 207.101562 218.039062 205.785156 C 218.519531 204.332031 218.488281 202.703125 217.828125 201.195312 L 217.824219 201.183594 C 217.105469 199.558594 215.804688 198.375 214.28125 197.773438 C 212.753906 197.175781 211 197.15625 209.378906 197.871094 L 208.617188 198.367188"/></g></g></g></g></g><g clip-path="url(#Y)"><g clip-path="url(#Z)"><g clip-path="url(#aa)"><path fill="#FF885F" d="M 204.917969 194.640625 C 203.898438 193.5 202.152344 193.398438 201.019531 194.417969 C 199.882812 195.433594 199.789062 197.183594 200.808594 198.324219 L 204.703125 202.683594 C 205.71875 203.824219 207.460938 203.925781 208.597656 202.90625 C 209.730469 201.890625 209.828125 200.140625 208.808594 199 Z M 216.015625 207.066406 C 215 205.925781 213.253906 205.824219 212.121094 206.839844 C 210.984375 207.855469 210.890625 209.605469 211.90625 210.75 L 214.902344 214.101562 C 215.921875 215.242188 217.664062 215.34375 218.800781 214.324219 C 219.933594 213.308594 220.03125 211.558594 219.011719 210.417969 L 216.015625 207.066406"/></g></g></g><g clip-path="url(#ab)"><g clip-path="url(#ac)"><g clip-path="url(#ad)"><path fill="#FF885F" d="M 202.414062 198.628906 C 199.484375 199.859375 196.085938 198.464844 194.851562 195.523438 C 193.613281 192.578125 194.996094 189.175781 197.925781 187.941406 C 200.855469 186.710938 204.257812 188.109375 205.492188 191.050781 C 206.726562 193.992188 205.34375 197.398438 202.414062 198.628906" fill-rule="evenodd"/></g></g></g><path fill="#FFF" d="M 187.394531 -5.730469 C 80.691406 -5.730469 -5.730469 80.691406 -5.730469 187.394531 C -5.730469 294.09375 80.691406 380.519531 187.394531 380.519531 C 294.09375 380.519531 380.519531 294.09375 380.519531 187.394531 C 380.519531 80.691406 294.09375 -5.730469 187.394531 -5.730469 Z M 187.394531 341.894531 C 102.03125 341.894531 32.894531 272.753906 32.894531 187.394531 C 32.894531 102.03125 102.03125 32.894531 187.394531 32.894531 C 272.753906 32.894531 341.894531 102.03125 341.894531 187.394531 C 341.894531 272.753906 272.753906 341.894531 187.394531 341.894531 Z M 187.394531 341.894531"/><g clip-path="url(#ae)"><path fill="#FFF" d="M 187.554688 18.003906 C 93.285156 18.003906 16.929688 94.355469 16.929688 188.628906 C 16.929688 282.898438 93.285156 359.253906 187.554688 359.253906 C 281.824219 359.253906 358.179688 282.898438 358.179688 188.628906 C 358.179688 94.355469 281.824219 18.003906 187.554688 18.003906 Z M 187.554688 325.128906 C 112.136719 325.128906 51.054688 264.042969 51.054688 188.628906 C 51.054688 113.210938 112.136719 52.128906 187.554688 52.128906 C 262.96875 52.128906 324.054688 113.210938 324.054688 188.628906 C 324.054688 264.042969 262.96875 325.128906 187.554688 325.128906 Z M 187.554688 325.128906"/></g><path fill="#F7CEAD" d="M 187.375 346.054688 C 145.296875 346.054688 105.671875 329.675781 75.941406 299.882812 C 46.144531 270.148438 29.765625 230.527344 29.765625 188.449219 C 29.765625 146.367188 46.144531 106.746094 75.941406 77.015625 C 105.671875 47.21875 145.296875 30.839844 187.375 30.839844 C 229.453125 30.839844 269.074219 47.21875 298.808594 77.015625 C 328.601562 106.808594 344.980469 146.367188 344.980469 188.449219 C 344.980469 230.527344 328.601562 270.148438 298.808594 299.882812 C 269.074219 329.675781 229.453125 346.054688 187.375 346.054688 Z M 187.375 40.289062 C 147.816406 40.289062 110.585938 55.722656 82.617188 83.691406 C 54.648438 111.660156 39.214844 148.886719 39.214844 188.449219 C 39.214844 228.007812 54.648438 265.234375 82.617188 293.203125 C 110.585938 321.171875 147.816406 336.605469 187.375 336.605469 C 226.933594 336.605469 264.160156 321.171875 292.128906 293.203125 C 320.097656 265.234375 335.53125 228.007812 335.53125 188.449219 C 335.53125 148.886719 320.097656 111.660156 292.128906 83.691406 C 264.160156 55.722656 226.933594 40.289062 187.375 40.289062 Z M 187.375 40.289062"/><path fill="#08AFB7" d="M 187.359375 364.855469 C 140.257812 364.855469 95.90625 346.519531 62.621094 313.167969 C 29.269531 279.886719 10.9375 235.535156 10.9375 188.433594 C 10.9375 141.332031 29.269531 96.976562 62.621094 63.695312 C 95.90625 30.34375 140.257812 12.011719 187.359375 12.011719 C 234.460938 12.011719 278.8125 30.34375 312.09375 63.695312 C 345.445312 97.050781 363.78125 141.332031 363.78125 188.433594 C 363.78125 235.535156 345.445312 279.886719 312.09375 313.167969 C 278.8125 346.519531 234.460938 364.855469 187.359375 364.855469 Z M 187.359375 22.589844 C 143.078125 22.589844 101.40625 39.863281 70.097656 71.171875 C 38.789062 102.476562 21.515625 144.152344 21.515625 188.433594 C 21.515625 232.714844 38.789062 274.386719 70.097656 305.695312 C 101.40625 337 143.078125 354.277344 187.359375 354.277344 C 231.640625 354.277344 273.3125 337 304.621094 305.695312 C 335.929688 274.386719 353.203125 232.714844 353.203125 188.433594 C 353.203125 144.152344 335.929688 102.476562 304.621094 71.171875 C 273.3125 39.863281 231.640625 22.589844 187.359375 22.589844 Z M 187.359375 22.589844"/><g clip-path="url(#af)"><path fill="#FF885F" d="M 263.480469 60.214844 C 256.855469 60.214844 251.480469 65.625 251.480469 72.289062 C 251.480469 81.34375 263.480469 94.710938 263.480469 94.710938 C 263.480469 94.710938 275.480469 81.34375 275.480469 72.289062 C 275.480469 65.625 270.105469 60.214844 263.480469 60.214844 Z M 263.480469 76.601562 C 261.113281 76.601562 259.195312 74.667969 259.195312 72.289062 C 259.195312 69.910156 261.113281 67.976562 263.480469 67.976562 C 265.847656 67.976562 267.765625 69.910156 267.765625 72.289062 C 267.765625 74.667969 265.847656 76.601562 263.480469 76.601562 Z M 263.480469 76.601562"/></g></svg>