<?xml version="1.0" standalone="no"?>
<!DOCTYPE svg PUBLIC "-//W3C//DTD SVG 20010904//EN"
 "http://www.w3.org/TR/2001/REC-SVG-20010904/DTD/svg10.dtd">
<svg version="1.0" xmlns="http://www.w3.org/2000/svg"
 width="476.000000pt" height="476.000000pt" viewBox="0 0 476.000000 476.000000"
 preserveAspectRatio="xMidYMid meet">
<metadata>
Created by potrace 1.14, written by Peter Selinger 2001-2017
</metadata>
<g transform="translate(0.000000,476.000000) scale(0.100000,-0.100000)"
fill="#000000" stroke="none">
<path d="M1377 1686 c-120 -43 -184 -144 -157 -245 22 -81 95 -136 253 -192
68 -23 117 -63 117 -96 0 -8 -13 -28 -29 -44 -25 -24 -38 -29 -80 -29 -67 0
-99 14 -143 61 -31 34 -40 39 -65 33 -85 -21 -96 -38 -63 -100 46 -89 125
-127 260 -128 102 -1 167 19 219 67 61 56 78 160 39 237 -29 58 -90 98 -210
141 -134 48 -167 90 -113 144 19 20 34 25 74 25 44 0 54 -4 84 -35 36 -37 62
-43 115 -24 45 16 50 43 15 93 -33 47 -80 82 -132 96 -50 14 -139 12 -184 -4z"/>
<path d="M3017 1684 c-87 -27 -157 -118 -157 -204 1 -42 35 -104 79 -142 27
-23 79 -49 144 -73 112 -42 150 -69 150 -110 0 -41 -33 -67 -92 -73 -71 -6
-98 3 -147 53 -38 40 -47 44 -76 39 -49 -9 -78 -31 -78 -58 0 -40 60 -108 125
-141 53 -27 67 -30 154 -30 140 1 221 41 262 130 42 90 12 192 -74 251 -25 18
-88 47 -139 65 -51 18 -103 43 -115 56 -51 49 -9 113 73 113 36 0 51 -6 84
-36 36 -33 44 -36 82 -31 22 3 50 14 61 25 20 20 20 20 -7 66 -14 24 -40 55
-57 67 -67 48 -179 61 -272 33z"/>
<path d="M3883 1685 c-168 -46 -273 -170 -281 -334 -6 -100 11 -169 59 -240
75 -112 179 -163 334 -165 90 -1 106 2 162 28 34 15 70 37 79 47 16 18 16 22
1 54 -9 19 -27 41 -39 49 -22 14 -29 13 -83 -9 -135 -55 -270 -14 -324 98 -27
56 -28 155 -2 213 23 50 83 101 136 115 54 15 150 6 204 -19 53 -24 69 -19
101 32 25 42 18 64 -32 94 -81 50 -211 65 -315 37z"/>
<path d="M726 1674 c-14 -13 -16 -59 -16 -353 0 -388 -4 -371 88 -371 86 0 82
-17 82 370 0 388 4 370 -85 370 -35 0 -59 -5 -69 -16z"/>
<path d="M2217 1678 c-20 -16 -267 -652 -267 -689 0 -32 15 -39 79 -39 60 0
75 12 101 83 l22 58 140 -3 140 -3 20 -50 c26 -68 48 -85 112 -85 54 0 76 12
76 41 0 33 -252 664 -272 682 -24 20 -125 24 -151 5z m80 -456 c-55 -1 -102 0
-105 2 -2 3 19 69 48 146 l53 142 52 -144 51 -143 -99 -3z"/>
</g>
</svg>
