<svg xmlns="http://www.w3.org/2000/svg" width="623.35" height="64.21" viewBox="0 0 623.35 64.21"><defs><style>.a39d85e2-538a-463d-a4b0-47df4b64fff1{fill:#231f20;}</style></defs><g id="a9593093-ac7d-4b98-ad80-6bbebe6e67f0" data-name="Layer 2"><g id="b7df50c5-d006-4fd7-aeb1-baef48081044" data-name="Layer 1"><path class="a39d85e2-538a-463d-a4b0-47df4b64fff1" d="M0,19.47V1.9a.9.9,0,0,1,1-1H1.9a.9.9,0,0,1,1,1V19.47a.9.9,0,0,1-1,1H1A.9.9,0,0,1,0,19.47Z"/><path class="a39d85e2-538a-463d-a4b0-47df4b64fff1" d="M8.1,19.47V1.9a.9.9,0,0,1,1-1h.41a1.35,1.35,0,0,1,1.22.61l9.74,13.54V1.9a.9.9,0,0,1,1-1h.92a.92.92,0,0,1,1,1V19.47a.93.93,0,0,1-1,1H22a1.36,1.36,0,0,1-1.22-.62L11,6.27v13.2a.9.9,0,0,1-1,1H9.08A.91.91,0,0,1,8.1,19.47Z"/><path class="a39d85e2-538a-463d-a4b0-47df4b64fff1" d="M41.87,1.9v.42a.9.9,0,0,1-1,1h-5.3V19.47a.9.9,0,0,1-1,1h-.89a.9.9,0,0,1-1-1V3.33H27.43a.91.91,0,0,1-1-1V1.9a.91.91,0,0,1,1-1H40.89A.9.9,0,0,1,41.87,1.9Z"/><path class="a39d85e2-538a-463d-a4b0-47df4b64fff1" d="M47.85,3.33V9.68H55a.9.9,0,0,1,1,1v.36a.92.92,0,0,1-1,1H47.85v6h8.33a.91.91,0,0,1,1,1v.42a.91.91,0,0,1-1,1H46a.91.91,0,0,1-1-1V1.9a.9.9,0,0,1,1-1H56.18a.91.91,0,0,1,1,1v.42a.91.91,0,0,1-1,1Z"/><path class="a39d85e2-538a-463d-a4b0-47df4b64fff1" d="M67.7,13.12H64v6.35a.9.9,0,0,1-1,1h-.92a.9.9,0,0,1-1-1V1.9a.9.9,0,0,1,1-1h7c3.67,0,5.79,2.85,5.79,6.18,0,2.91-1.63,5.34-4.46,5.9.19,2.13,1.47,5.31,3.54,5.31A2.71,2.71,0,0,0,75.34,18c.6-.28,1-.23,1.31.36l.14.25a1,1,0,0,1-.3,1.4,4.81,4.81,0,0,1-2.75.81C69.25,20.78,67.89,15.47,67.7,13.12Zm.82-2.35c2.09,0,3.37-1.54,3.37-3.69s-1.3-3.75-3.37-3.75H64v7.44Z"/><path class="a39d85e2-538a-463d-a4b0-47df4b64fff1" d="M79.78,19.47V1.9a.9.9,0,0,1,1-1h.4a1.38,1.38,0,0,1,1.23.61l9.73,13.54V1.9a.9.9,0,0,1,1-1H94a.92.92,0,0,1,1,1V19.47a.93.93,0,0,1-1,1h-.38a1.38,1.38,0,0,1-1.22-.62L82.66,6.27v13.2a.9.9,0,0,1-1,1h-.92A.9.9,0,0,1,79.78,19.47Z"/><path class="a39d85e2-538a-463d-a4b0-47df4b64fff1" d="M98.43,19.3,105,1.71A1.15,1.15,0,0,1,106.12.9h1.58a1.12,1.12,0,0,1,1.14.81l6.61,17.59c.24.7,0,1.18-.76,1.18h-.87a1.16,1.16,0,0,1-1.17-.82l-1.17-3.18H102.4l-1.17,3.18a1.12,1.12,0,0,1-1.14.82h-.9C98.46,20.48,98.16,20,98.43,19.3Zm12.23-5.23L106.91,3.78l-3.7,10.29Z"/><path class="a39d85e2-538a-463d-a4b0-47df4b64fff1" d="M130.05,1.9v.42a.9.9,0,0,1-1,1h-5.3V19.47a.9.9,0,0,1-1,1h-.9a.9.9,0,0,1-1-1V3.33h-5.31a.92.92,0,0,1-1-1V1.9a.91.91,0,0,1,1-1h13.46A.9.9,0,0,1,130.05,1.9Z"/><path class="a39d85e2-538a-463d-a4b0-47df4b64fff1" d="M133.15,19.47V1.9a.9.9,0,0,1,1-1h.92a.9.9,0,0,1,1,1V19.47a.9.9,0,0,1-1,1h-.92A.9.9,0,0,1,133.15,19.47Z"/><path class="a39d85e2-538a-463d-a4b0-47df4b64fff1" d="M139.87,10.69a9.9,9.9,0,1,1,19.79,0,9.9,9.9,0,1,1-19.79,0Zm16.86,0a7,7,0,1,0-13.93,0,7,7,0,1,0,13.93,0Z"/><path class="a39d85e2-538a-463d-a4b0-47df4b64fff1" d="M163.47,19.47V1.9a.9.9,0,0,1,1-1h.4a1.38,1.38,0,0,1,1.23.61l9.73,13.54V1.9a.9.9,0,0,1,1-1h.93a.92.92,0,0,1,1,1V19.47a.92.92,0,0,1-1,1h-.38a1.39,1.39,0,0,1-1.23-.62L166.35,6.27v13.2a.9.9,0,0,1-1,1h-.92A.9.9,0,0,1,163.47,19.47Z"/><path class="a39d85e2-538a-463d-a4b0-47df4b64fff1" d="M182.12,19.3l6.55-17.59A1.15,1.15,0,0,1,189.82.9h1.57a1.13,1.13,0,0,1,1.15.81l6.6,17.59c.25.7,0,1.18-.76,1.18h-.87a1.16,1.16,0,0,1-1.17-.82l-1.17-3.18h-9.08l-1.17,3.18a1.12,1.12,0,0,1-1.14.82h-.9C182.15,20.48,181.85,20,182.12,19.3Zm12.24-5.23L190.6,3.78l-3.69,10.29Z"/><path class="a39d85e2-538a-463d-a4b0-47df4b64fff1" d="M202.51,19.47V1.9a.9.9,0,0,1,1-1h.93a.9.9,0,0,1,1,1V18h7.69a.93.93,0,0,1,1,1v.42a.93.93,0,0,1-1,1h-9.6A.91.91,0,0,1,202.51,19.47Z"/><path class="a39d85e2-538a-463d-a4b0-47df4b64fff1" d="M223.18,16.81a.87.87,0,0,1,.65-1.26l.79-.19c.6-.14.92.08,1.22.67a4.53,4.53,0,0,0,4,2.15c2.44,0,3.94-1.23,3.94-2.91,0-1.48-1.2-2.4-2.75-3l-2.82-1c-3.59-1.23-4.46-3.44-4.46-5.26,0-3.38,2.88-5.45,6.17-5.45a6,6,0,0,1,6,3.69.88.88,0,0,1-.65,1.26l-.68.22a1,1,0,0,1-1.25-.64A3.44,3.44,0,0,0,230,3.22c-1.8,0-3.29,1-3.29,2.74,0,.81.24,1.87,2.42,2.71l2.82,1.09c3.21,1,4.68,3.22,4.68,5.32,0,3.52-2.72,5.7-6.69,5.7C226.55,20.78,224.16,19.11,223.18,16.81Z"/><path class="a39d85e2-538a-463d-a4b0-47df4b64fff1" d="M239,10.69a9.9,9.9,0,1,1,19.79,0,9.9,9.9,0,1,1-19.79,0Zm16.86,0a7,7,0,1,0-13.92,0,7,7,0,1,0,13.92,0Z"/><path class="a39d85e2-538a-463d-a4b0-47df4b64fff1" d="M261.24,10.69c0-5.46,3.84-10.1,10.31-10.1a9.58,9.58,0,0,1,5.55,1.59,1,1,0,0,1,.32,1.4l-.24.45a.87.87,0,0,1-1.36.34,9,9,0,0,0-4.27-1.12,7.08,7.08,0,0,0-7.37,7.44,7.09,7.09,0,0,0,7.37,7.44A9.1,9.1,0,0,0,275.82,17a.87.87,0,0,1,1.36.33l.24.45c.3.59.25,1-.16,1.29a9.52,9.52,0,0,1-5.71,1.7C265.08,20.78,261.24,16.14,261.24,10.69Z"/><path class="a39d85e2-538a-463d-a4b0-47df4b64fff1" d="M281.23,19.47V1.9a.9.9,0,0,1,1-1h.92a.9.9,0,0,1,1,1V19.47a.9.9,0,0,1-1,1h-.92A.9.9,0,0,1,281.23,19.47Z"/><path class="a39d85e2-538a-463d-a4b0-47df4b64fff1" d="M292.21,3.33V9.68h7.13a.9.9,0,0,1,1,1v.36a.92.92,0,0,1-1,1h-7.13v6h8.32a.92.92,0,0,1,1,1v.42a.92.92,0,0,1-1,1H290.31a.91.91,0,0,1-1-1V1.9a.9.9,0,0,1,1-1h10.22a.91.91,0,0,1,1,1v.42a.91.91,0,0,1-1,1Z"/><path class="a39d85e2-538a-463d-a4b0-47df4b64fff1" d="M318.75,1.9v.42a.9.9,0,0,1-1,1h-5.3V19.47a.9.9,0,0,1-1,1h-.9a.9.9,0,0,1-1-1V3.33h-5.31a.92.92,0,0,1-1-1V1.9a.91.91,0,0,1,1-1h13.46A.9.9,0,0,1,318.75,1.9Z"/><path class="a39d85e2-538a-463d-a4b0-47df4b64fff1" d="M327.1,19.47v-7L320.46,2.13c-.46-.7-.16-1.23.63-1.23h1.2a1.19,1.19,0,0,1,1.17.67l5.05,8.33,5.09-8.33A1.23,1.23,0,0,1,334.79.9H336c.79,0,1.09.53.63,1.23L330,12.42v7a.92.92,0,0,1-1,1h-.9A.9.9,0,0,1,327.1,19.47Z"/><path class="a39d85e2-538a-463d-a4b0-47df4b64fff1" d="M354.18,8.28l-.19.65h-2.53l-2.25,8.72q-1.53,5.91-3.36,7.93a5.34,5.34,0,0,1-4,2,4.17,4.17,0,0,1-2.19-.58,1.69,1.69,0,0,1-1-1.45,1.09,1.09,0,0,1,.31-.8,1,1,0,0,1,1.47,0,1.11,1.11,0,0,1,.29.75,2.44,2.44,0,0,1,0,.37l0,.25a.63.63,0,0,0,.35.52,1.43,1.43,0,0,0,.84.24,3.41,3.41,0,0,0,2.92-1.9,32.07,32.07,0,0,0,2.69-7.64l2.22-8.48h-2.85l.19-.65h2.86l.23-.86q2-7.42,6.33-7.42a2.85,2.85,0,0,1,1.91.57A1.54,1.54,0,0,1,359,1.68c0,.53-.25.79-.73.79s-.8-.34-1.23-1A1.33,1.33,0,0,0,356,.7a2.63,2.63,0,0,0-1.89.93q-.9.93-2,5.06l-.42,1.59Z"/><path class="a39d85e2-538a-463d-a4b0-47df4b64fff1" d="M353.37,16.56a10.89,10.89,0,0,1,.81-3.89,8.35,8.35,0,0,1,2.32-3.42,4.49,4.49,0,0,1,2.92-1.31,2.52,2.52,0,0,1,2.12,1.12,5,5,0,0,1,.84,3,10.66,10.66,0,0,1-.93,4.4,8.23,8.23,0,0,1-2.33,3.2,4.42,4.42,0,0,1-2.74,1.11,2.86,2.86,0,0,1-2.11-.95A4.8,4.8,0,0,1,353.37,16.56Zm1.55,1.71a2.29,2.29,0,0,0,.4,1.37,1.31,1.31,0,0,0,1.12.57c1.29,0,2.36-1.26,3.19-3.79a19.94,19.94,0,0,0,1.25-5.77,2.52,2.52,0,0,0-.38-1.54,1.33,1.33,0,0,0-1.15-.52q-1.82,0-3.12,3.51A17.87,17.87,0,0,0,354.92,18.27Z"/><path class="a39d85e2-538a-463d-a4b0-47df4b64fff1" d="M364.56,11.88h-.64A10.47,10.47,0,0,1,365.45,9a2.46,2.46,0,0,1,1.82-1.18,1,1,0,0,1,.93.52,3.15,3.15,0,0,1,.3,1.55,15.35,15.35,0,0,1-.65,3.69,11.58,11.58,0,0,0,.48-1.07A19.67,19.67,0,0,1,370.21,9a2.18,2.18,0,0,1,1.62-1.1,1,1,0,0,1,.81.33A1.14,1.14,0,0,1,373,9a1.05,1.05,0,0,1-.26.73.78.78,0,0,1-.6.28,1.09,1.09,0,0,1-.8-.49.41.41,0,0,0-.31-.19c-.49,0-1.23,1.19-2.23,3.58a63,63,0,0,0-2.44,6.74L366,20.7h-1.74l2.3-7.89a14.18,14.18,0,0,0,.65-3.07,1.34,1.34,0,0,0-.11-.64.34.34,0,0,0-.32-.21c-.32,0-.72.35-1.2,1.06A8.28,8.28,0,0,0,364.56,11.88Z"/><path class="a39d85e2-538a-463d-a4b0-47df4b64fff1" d="M388.6,8.28l-.21.65h-2.17l-1.91,6.51a24.65,24.65,0,0,0-1,3.73.87.87,0,0,0,.16.54.54.54,0,0,0,.44.18c.35,0,.8-.33,1.36-1a10.66,10.66,0,0,0,1.51-2.54h.63a10.23,10.23,0,0,1-2,3.38,3.11,3.11,0,0,1-2.08,1.17,1.44,1.44,0,0,1-1.17-.53,2,2,0,0,1-.45-1.36,20.05,20.05,0,0,1,.9-3.72l1.87-6.35h-2l.2-.65h2L386,3.77h1.74l-1.33,4.51Z"/><path class="a39d85e2-538a-463d-a4b0-47df4b64fff1" d="M389.38,20.7h-1.72l5.08-17.2a10.77,10.77,0,0,0,.43-1.7.57.57,0,0,0-.19-.49,1.9,1.9,0,0,0-1-.15h-.46l.17-.62A9.78,9.78,0,0,0,395.14,0h.36l-3.28,11.11C394,8.94,395.54,7.86,397,7.86a2.12,2.12,0,0,1,1.44.42,1.59,1.59,0,0,1,.48,1.26,14.14,14.14,0,0,1-.85,3.19l-1.28,3.74A16,16,0,0,0,396,19a.92.92,0,0,0,.15.57.5.5,0,0,0,.43.19,1.81,1.81,0,0,0,1.18-.64,5.92,5.92,0,0,0,1.11-1.59h.71A8.09,8.09,0,0,1,397.85,20a3,3,0,0,1-1.93.92,1.54,1.54,0,0,1-1.14-.5,1.88,1.88,0,0,1-.48-1.34,11.52,11.52,0,0,1,.81-3.18l1.23-3.44a13,13,0,0,0,.86-3,.73.73,0,0,0-.2-.56.82.82,0,0,0-.6-.19,3.07,3.07,0,0,0-1.53.54A7.11,7.11,0,0,0,393,11.07a10.37,10.37,0,0,0-1.4,2.39c-.29.75-.68,1.93-1.15,3.56Z"/><path class="a39d85e2-538a-463d-a4b0-47df4b64fff1" d="M407.28,16.68H408q-1.85,4.21-4.72,4.21a2.43,2.43,0,0,1-1.93-.85,3.41,3.41,0,0,1-.75-2.32,11.09,11.09,0,0,1,1-4.17,11.78,11.78,0,0,1,2.74-4,4.93,4.93,0,0,1,3.09-1.68,1.48,1.48,0,0,1,1.23.53A2,2,0,0,1,409,9.71a4.29,4.29,0,0,1-1.56,3.09,16.4,16.4,0,0,1-4.69,2.85,8.23,8.23,0,0,0-.41,2.46,2.37,2.37,0,0,0,.36,1.43,1.27,1.27,0,0,0,1.08.47Q405.77,20,407.28,16.68ZM403,14.89a11.27,11.27,0,0,0,3.35-2.38,4.21,4.21,0,0,0,1.5-2.76,1.33,1.33,0,0,0-.23-.84.82.82,0,0,0-.67-.27c-.58,0-1.26.57-2.05,1.73A14.5,14.5,0,0,0,403,14.89Z"/><path class="a39d85e2-538a-463d-a4b0-47df4b64fff1" d="M418,19.3l6.55-17.59A1.15,1.15,0,0,1,425.73.9h1.57a1.13,1.13,0,0,1,1.15.81l6.6,17.59c.25.7,0,1.18-.76,1.18h-.87a1.16,1.16,0,0,1-1.17-.82l-1.17-3.18H422l-1.17,3.18a1.12,1.12,0,0,1-1.14.82h-.9C418.06,20.48,417.76,20,418,19.3Zm12.24-5.23L426.52,3.78l-3.7,10.29Z"/><path class="a39d85e2-538a-463d-a4b0-47df4b64fff1" d="M438.42,19.47V1.9a.9.9,0,0,1,1-1h5.25a9.4,9.4,0,0,1,9.79,9.79,9.41,9.41,0,0,1-9.79,9.79H439.4A.91.91,0,0,1,438.42,19.47ZM444.6,18c4.27,0,6.9-3.27,6.9-7.35s-2.63-7.36-6.9-7.36h-3.29V18Z"/><path class="a39d85e2-538a-463d-a4b0-47df4b64fff1" d="M462,19.66,456,2.07c-.24-.7.08-1.17.79-1.17h.93a1.08,1.08,0,0,1,1.11.84l4.9,15.13,4.81-15.13A1.09,1.09,0,0,1,469.72.9h.93c.7,0,1,.47.78,1.17l-6,17.59a1.06,1.06,0,0,1-1.11.82h-1.23A1.06,1.06,0,0,1,462,19.66Z"/><path class="a39d85e2-538a-463d-a4b0-47df4b64fff1" d="M471.92,19.3l6.56-17.59A1.14,1.14,0,0,1,479.62.9h1.57a1.13,1.13,0,0,1,1.15.81l6.6,17.59c.25.7,0,1.18-.76,1.18h-.87a1.16,1.16,0,0,1-1.17-.82L485,16.48h-9.08l-1.17,3.18a1.11,1.11,0,0,1-1.14.82h-.9C472,20.48,471.65,20,471.92,19.3Zm12.24-5.23L480.41,3.78l-3.7,10.29Z"/><path class="a39d85e2-538a-463d-a4b0-47df4b64fff1" d="M492.32,19.47V1.9a.89.89,0,0,1,1-1h.41a1.38,1.38,0,0,1,1.23.61l9.73,13.54V1.9a.9.9,0,0,1,1-1h.92a.92.92,0,0,1,1,1V19.47a.93.93,0,0,1-1,1h-.38a1.38,1.38,0,0,1-1.22-.62L495.2,6.27v13.2a.91.91,0,0,1-1,1h-.93A.9.9,0,0,1,492.32,19.47Z"/><path class="a39d85e2-538a-463d-a4b0-47df4b64fff1" d="M511.4,10.69c0-5.46,3.84-10.1,10.31-10.1a9.6,9.6,0,0,1,5.55,1.59,1,1,0,0,1,.32,1.4l-.24.45a.87.87,0,0,1-1.36.34,9,9,0,0,0-4.27-1.12,7.08,7.08,0,0,0-7.37,7.44,7.09,7.09,0,0,0,7.37,7.44A9.13,9.13,0,0,0,526,17a.87.87,0,0,1,1.36.33l.24.45c.3.59.25,1-.16,1.29a9.54,9.54,0,0,1-5.71,1.7C515.24,20.78,511.4,16.14,511.4,10.69Z"/><path class="a39d85e2-538a-463d-a4b0-47df4b64fff1" d="M534.27,3.33V9.68h7.12a.9.9,0,0,1,1,1v.36a.92.92,0,0,1-1,1h-7.12v6h8.32a.92.92,0,0,1,1,1v.42a.92.92,0,0,1-1,1H532.37a.9.9,0,0,1-1-1V1.9a.9.9,0,0,1,1-1h10.22a.91.91,0,0,1,1,1v.42a.91.91,0,0,1-1,1Z"/><path class="a39d85e2-538a-463d-a4b0-47df4b64fff1" d="M546.75,19.41l1.63-17.56a.92.92,0,0,1,1-.95h1.44a1.07,1.07,0,0,1,1.11.78l5.93,14.57,5.9-14.57A1.11,1.11,0,0,1,564.91.9h1.42a.92.92,0,0,1,1,1L569,19.41a.88.88,0,0,1-1,1.07h-.89a1,1,0,0,1-1.06-1L564.89,5.4l-5.66,14a1.12,1.12,0,0,1-1.14.78h-.46a1.1,1.1,0,0,1-1.12-.78l-5.65-14-1.2,14.12a.93.93,0,0,1-1,1h-.9A.89.89,0,0,1,546.75,19.41Z"/><path class="a39d85e2-538a-463d-a4b0-47df4b64fff1" d="M576.33,3.33V9.68h7.13a.9.9,0,0,1,1,1v.36a.92.92,0,0,1-1,1h-7.13v6h8.32a.92.92,0,0,1,1,1v.42a.92.92,0,0,1-1,1H574.43a.91.91,0,0,1-1-1V1.9a.9.9,0,0,1,1-1h10.22a.91.91,0,0,1,1,1v.42a.91.91,0,0,1-1,1Z"/><path class="a39d85e2-538a-463d-a4b0-47df4b64fff1" d="M589.58,19.47V1.9a.89.89,0,0,1,1-1H591a1.38,1.38,0,0,1,1.23.61l9.73,13.54V1.9a.9.9,0,0,1,1-1h.92a.92.92,0,0,1,1,1V19.47a.93.93,0,0,1-1,1h-.38a1.38,1.38,0,0,1-1.22-.62L592.46,6.27v13.2a.91.91,0,0,1-1,1h-.93A.9.9,0,0,1,589.58,19.47Z"/><path class="a39d85e2-538a-463d-a4b0-47df4b64fff1" d="M623.35,1.9v.42a.9.9,0,0,1-1,1h-5.31V19.47a.9.9,0,0,1-1,1h-.9a.9.9,0,0,1-1-1V3.33h-5.3a.91.91,0,0,1-1-1V1.9a.91.91,0,0,1,1-1h13.46A.9.9,0,0,1,623.35,1.9Z"/><path class="a39d85e2-538a-463d-a4b0-47df4b64fff1" d="M115.1,53.16a11,11,0,0,1,.81-3.9,8.48,8.48,0,0,1,2.32-3.42,4.52,4.52,0,0,1,2.92-1.31,2.53,2.53,0,0,1,2.12,1.13,5,5,0,0,1,.83,3,10.7,10.7,0,0,1-.92,4.41,8.23,8.23,0,0,1-2.33,3.2,4.42,4.42,0,0,1-2.74,1.11,2.83,2.83,0,0,1-2.11-1A4.76,4.76,0,0,1,115.1,53.16Zm1.55,1.71a2.29,2.29,0,0,0,.4,1.37,1.29,1.29,0,0,0,1.12.57c1.29,0,2.36-1.27,3.19-3.79a19.94,19.94,0,0,0,1.25-5.77,2.57,2.57,0,0,0-.38-1.55,1.35,1.35,0,0,0-1.15-.51q-1.81,0-3.12,3.51A17.82,17.82,0,0,0,116.65,54.87Z"/><path class="a39d85e2-538a-463d-a4b0-47df4b64fff1" d="M133.85,44.88l-.19.65h-2.53l-2.25,8.71q-1.53,5.91-3.36,7.94a5.34,5.34,0,0,1-4,2,4.27,4.27,0,0,1-2.19-.58,1.69,1.69,0,0,1-1-1.45,1.05,1.05,0,0,1,.31-.8,1,1,0,0,1,1.47,0,1.15,1.15,0,0,1,.29.76,2.44,2.44,0,0,1,0,.37l0,.25a.66.66,0,0,0,.35.52,1.43,1.43,0,0,0,.84.24,3.41,3.41,0,0,0,2.92-1.91,32.29,32.29,0,0,0,2.7-7.63l2.21-8.48h-2.85l.19-.65h2.86q0-.18.24-.87,1.95-7.41,6.32-7.41a2.9,2.9,0,0,1,1.91.56,1.55,1.55,0,0,1,.66,1.12c0,.53-.25.79-.73.79s-.79-.34-1.23-1a1.33,1.33,0,0,0-1.11-.74,2.63,2.63,0,0,0-1.89.93c-.59.62-1.26,2.3-2,5.05l-.42,1.6Z"/><path class="a39d85e2-538a-463d-a4b0-47df4b64fff1" d="M142.42,53.41a.87.87,0,0,1,.65-1.26l.79-.19c.6-.14.92.08,1.22.67a4.53,4.53,0,0,0,4,2.15c2.44,0,3.94-1.23,3.94-2.91,0-1.48-1.2-2.4-2.75-3l-2.82-1c-3.59-1.23-4.46-3.44-4.46-5.26,0-3.38,2.88-5.45,6.17-5.45a6,6,0,0,1,6,3.69.88.88,0,0,1-.65,1.26l-.68.22a1,1,0,0,1-1.25-.64,3.44,3.44,0,0,0-3.37-1.9c-1.8,0-3.3,1-3.3,2.74,0,.81.25,1.87,2.43,2.71l2.82,1.09c3.21,1,4.68,3.22,4.68,5.31,0,3.53-2.72,5.71-6.69,5.71C145.79,57.38,143.4,55.7,142.42,53.41Z"/><path class="a39d85e2-538a-463d-a4b0-47df4b64fff1" d="M158.27,47.28c0-5.45,3.83-10.09,10.3-10.09a9.51,9.51,0,0,1,5.55,1.59,1,1,0,0,1,.33,1.4l-.25.45a.87.87,0,0,1-1.36.33,9.07,9.07,0,0,0-4.27-1.12,7.09,7.09,0,0,0-7.36,7.44,7.08,7.08,0,0,0,7.36,7.44,9.06,9.06,0,0,0,4.27-1.11.87.87,0,0,1,1.36.33l.25.45c.3.59.24,1-.17,1.28a9.43,9.43,0,0,1-5.71,1.71C162.1,57.38,158.27,52.74,158.27,47.28Z"/><path class="a39d85e2-538a-463d-a4b0-47df4b64fff1" d="M178.25,56.07V38.5a.9.9,0,0,1,1-1h.93a.9.9,0,0,1,1,1V56.07a.9.9,0,0,1-1,1h-.93A.9.9,0,0,1,178.25,56.07Z"/><path class="a39d85e2-538a-463d-a4b0-47df4b64fff1" d="M189.24,39.93v6.35h7.12a.9.9,0,0,1,1,1v.37a.92.92,0,0,1-1,1h-7.12v6h8.32a.91.91,0,0,1,1,1v.42a.91.91,0,0,1-1,1H187.33a.89.89,0,0,1-1-1V38.5a.89.89,0,0,1,1-1h10.23a.91.91,0,0,1,1,1v.42a.92.92,0,0,1-1,1Z"/><path class="a39d85e2-538a-463d-a4b0-47df4b64fff1" d="M202.48,56.07V38.5a.9.9,0,0,1,1-1h.41a1.37,1.37,0,0,1,1.22.61l9.73,13.54V38.5a.9.9,0,0,1,1-1h.93a.92.92,0,0,1,1,1V56.07a.92.92,0,0,1-1,1h-.38a1.38,1.38,0,0,1-1.23-.61l-9.76-13.59v13.2a.9.9,0,0,1-1,1h-.92A.9.9,0,0,1,202.48,56.07Z"/><path class="a39d85e2-538a-463d-a4b0-47df4b64fff1" d="M221.57,47.28c0-5.45,3.83-10.09,10.3-10.09a9.51,9.51,0,0,1,5.55,1.59,1,1,0,0,1,.33,1.4l-.25.45a.87.87,0,0,1-1.36.33,9.07,9.07,0,0,0-4.27-1.12,7.1,7.1,0,0,0-7.37,7.44,7.09,7.09,0,0,0,7.37,7.44,9.06,9.06,0,0,0,4.27-1.11.87.87,0,0,1,1.36.33l.25.45c.3.59.24,1-.17,1.28a9.43,9.43,0,0,1-5.71,1.71C225.4,57.38,221.57,52.74,221.57,47.28Z"/><path class="a39d85e2-538a-463d-a4b0-47df4b64fff1" d="M244.43,39.93v6.35h7.13a.9.9,0,0,1,1,1v.37a.92.92,0,0,1-1,1h-7.13v6h8.33a.91.91,0,0,1,1,1v.42a.91.91,0,0,1-1,1H242.53a.9.9,0,0,1-1-1V38.5a.9.9,0,0,1,1-1h10.23a.91.91,0,0,1,1,1v.42a.91.91,0,0,1-1,1Z"/><path class="a39d85e2-538a-463d-a4b0-47df4b64fff1" d="M264.5,47.28c0-5.45,3.83-10.09,10.31-10.09a9.5,9.5,0,0,1,5.54,1.59,1,1,0,0,1,.33,1.4l-.25.45a.87.87,0,0,1-1.36.33,9.06,9.06,0,0,0-4.26-1.12,7.09,7.09,0,0,0-7.37,7.44,7.08,7.08,0,0,0,7.37,7.44,9.05,9.05,0,0,0,4.26-1.11.87.87,0,0,1,1.36.33l.25.45c.3.59.24,1-.16,1.28a9.47,9.47,0,0,1-5.71,1.71C268.33,57.38,264.5,52.74,264.5,47.28Z"/><path class="a39d85e2-538a-463d-a4b0-47df4b64fff1" d="M282.72,47.28a9.9,9.9,0,1,1,9.9,10.1A10,10,0,0,1,282.72,47.28Zm16.86,0a7,7,0,1,0-13.93,0,7,7,0,1,0,13.93,0Z"/><path class="a39d85e2-538a-463d-a4b0-47df4b64fff1" d="M305.56,56l1.63-17.56a.91.91,0,0,1,1-1h1.44a1.07,1.07,0,0,1,1.11.78l5.93,14.57,5.9-14.57a1.1,1.1,0,0,1,1.14-.78h1.42a.92.92,0,0,1,1,1L327.77,56a.86.86,0,0,1-.95,1.06h-.9a1,1,0,0,1-1.06-1L323.69,42,318,56a1.12,1.12,0,0,1-1.14.78h-.46a1.09,1.09,0,0,1-1.12-.78l-5.66-14-1.19,14.12a.92.92,0,0,1-1,1h-.9A.88.88,0,0,1,305.56,56Z"/><path class="a39d85e2-538a-463d-a4b0-47df4b64fff1" d="M331.5,56l1.63-17.56a.91.91,0,0,1,1-1h1.44a1.07,1.07,0,0,1,1.11.78l5.93,14.57,5.9-14.57a1.1,1.1,0,0,1,1.14-.78h1.42a.92.92,0,0,1,1,1L353.71,56a.86.86,0,0,1-.95,1.06h-.9a1,1,0,0,1-1.06-1L349.63,42,344,56a1.12,1.12,0,0,1-1.14.78h-.47a1.09,1.09,0,0,1-1.11-.78L335.6,42l-1.19,14.12a.93.93,0,0,1-1,1h-.89A.88.88,0,0,1,331.5,56Z"/><path class="a39d85e2-538a-463d-a4b0-47df4b64fff1" d="M357.93,49.8V38.5a.91.91,0,0,1,1-1h.92a.9.9,0,0,1,1,1V49.8c0,3.3,2.17,4.92,4.68,4.92s4.7-1.62,4.7-4.92V38.5a.9.9,0,0,1,1-1h.9a.92.92,0,0,1,1,1V49.8c0,5-3.48,7.58-7.58,7.58S357.93,54.78,357.93,49.8Z"/><path class="a39d85e2-538a-463d-a4b0-47df4b64fff1" d="M378,56.07V38.5a.9.9,0,0,1,1-1h.41a1.36,1.36,0,0,1,1.22.61l9.74,13.54V38.5a.89.89,0,0,1,1-1h.93a.91.91,0,0,1,1,1V56.07a.91.91,0,0,1-1,1h-.38a1.38,1.38,0,0,1-1.23-.61L380.9,42.87v13.2a.9.9,0,0,1-1,1H379A.9.9,0,0,1,378,56.07Z"/><path class="a39d85e2-538a-463d-a4b0-47df4b64fff1" d="M398.5,56.07V38.5a.89.89,0,0,1,1-1h.93a.9.9,0,0,1,1,1V56.07a.9.9,0,0,1-1,1h-.93A.89.89,0,0,1,398.5,56.07Z"/><path class="a39d85e2-538a-463d-a4b0-47df4b64fff1" d="M405.21,47.28c0-5.45,3.84-10.09,10.31-10.09a9.47,9.47,0,0,1,5.54,1.59,1,1,0,0,1,.33,1.4l-.24.45a.87.87,0,0,1-1.36.33,9.13,9.13,0,0,0-4.27-1.12,7.09,7.09,0,0,0-7.37,7.44,7.08,7.08,0,0,0,7.37,7.44,9.13,9.13,0,0,0,4.27-1.11.87.87,0,0,1,1.36.33l.24.45c.3.59.25,1-.16,1.28a9.47,9.47,0,0,1-5.71,1.71C409.05,57.38,405.21,52.74,405.21,47.28Z"/><path class="a39d85e2-538a-463d-a4b0-47df4b64fff1" d="M423.35,55.9l6.55-17.59A1.13,1.13,0,0,1,431,37.5h1.58a1.11,1.11,0,0,1,1.14.81l6.61,17.59c.24.7,0,1.17-.76,1.17h-.87a1.14,1.14,0,0,1-1.17-.81l-1.17-3.19h-9.08l-1.17,3.19a1.11,1.11,0,0,1-1.14.81h-.9C423.37,57.07,423.07,56.6,423.35,55.9Zm12.23-5.23-3.75-10.29-3.7,10.29Z"/><path class="a39d85e2-538a-463d-a4b0-47df4b64fff1" d="M455,38.5v.42a.9.9,0,0,1-1,1h-5.3V56.07a.9.9,0,0,1-1,1h-.9a.9.9,0,0,1-1-1V39.93h-5.3a.92.92,0,0,1-1-1V38.5a.91.91,0,0,1,1-1H454A.9.9,0,0,1,455,38.5Z"/><path class="a39d85e2-538a-463d-a4b0-47df4b64fff1" d="M458.07,56.07V38.5a.9.9,0,0,1,1-1H460a.9.9,0,0,1,1,1V56.07a.9.9,0,0,1-1,1h-.92A.9.9,0,0,1,458.07,56.07Z"/><path class="a39d85e2-538a-463d-a4b0-47df4b64fff1" d="M464.79,47.28a9.9,9.9,0,1,1,9.89,10.1A10,10,0,0,1,464.79,47.28Zm16.85,0a7,7,0,1,0-13.92,0,7,7,0,1,0,13.92,0Z"/><path class="a39d85e2-538a-463d-a4b0-47df4b64fff1" d="M488.39,56.07V38.5a.89.89,0,0,1,1-1h.41a1.38,1.38,0,0,1,1.23.61l9.73,13.54V38.5a.9.9,0,0,1,1-1h.92a.92.92,0,0,1,1,1V56.07a.92.92,0,0,1-1,1h-.38a1.37,1.37,0,0,1-1.22-.61l-9.76-13.59v13.2a.9.9,0,0,1-1,1h-.93A.89.89,0,0,1,488.39,56.07Z"/></g></g></svg>